<!-- Generator: Adobe Illustrator 17.0.0, SVG Export Plug-In  -->
<svg version="1.1"
	 xmlns="http://www.w3.org/2000/svg" xmlns:xlink="http://www.w3.org/1999/xlink" xmlns:a="http://ns.adobe.com/AdobeSVGViewerExtensions/3.0/"
	 x="0px" y="0px" width="12.395px" height="12.395px" viewBox="0 0 12.395 12.395" enable-background="new 0 0 12.395 12.395"
	 xml:space="preserve">
<defs>
</defs>
<g id="Compass_1_">
	<g>
		<path fill="#666666" d="M5.84,5.266l-0.345,0.23L5.259,5.85C5.218,5.96,5.196,6.076,5.196,6.196c0,0.268,0.104,0.519,0.293,0.708
			C5.679,7.094,5.93,7.198,6.197,7.198c0.119,0,0.235-0.022,0.343-0.062l0.359-0.239l0.237-0.354
			c0.041-0.11,0.063-0.226,0.063-0.347c0-0.268-0.104-0.519-0.293-0.708C6.628,5.21,6.198,5.136,5.84,5.266z M6.197,0
			C2.78,0,0,2.78,0,6.197s2.78,6.197,6.197,6.197c3.417,0,6.198-2.78,6.198-6.197S9.615,0,6.197,0z M6.197,11.62
			c-2.99,0-5.423-2.433-5.423-5.423s2.433-5.423,5.423-5.423c2.99,0,5.423,2.433,5.423,5.423S9.188,11.62,6.197,11.62z"/>
	</g>
</g>
</svg>
