<!-- Generator: Adobe Illustrator 17.0.0, SVG Export Plug-In  -->
<svg version="1.1"
	 xmlns="http://www.w3.org/2000/svg" xmlns:xlink="http://www.w3.org/1999/xlink" xmlns:a="http://ns.adobe.com/AdobeSVGViewerExtensions/3.0/"
	 x="0px" y="0px" width="12.915px" height="12.915px" viewBox="0 0 12.915 12.915" enable-background="new 0 0 12.915 12.915"
	 xml:space="preserve">
<defs>
</defs>
<g id="Heart_1_">
	<g>
		<path fill="#666666" d="M8.879,0C8.755,0,8.631,0.007,8.507,0.019C8.462,0.023,8.417,0.03,8.372,0.036
			C8.297,0.045,8.222,0.056,8.147,0.07C8.093,0.08,8.039,0.091,7.985,0.103C7.923,0.117,7.862,0.134,7.8,0.151
			c-0.058,0.016-0.116,0.032-0.173,0.05C7.575,0.218,7.524,0.239,7.473,0.258C7.338,0.308,7.207,0.365,7.08,0.429
			C7.054,0.441,7.028,0.453,7.003,0.466C6.935,0.501,6.871,0.541,6.806,0.58C6.77,0.601,6.733,0.622,6.698,0.645
			C6.635,0.686,6.575,0.729,6.514,0.773C6.496,0.786,6.476,0.798,6.458,0.812C5.76,0.286,4.912,0,4.036,0C1.811,0,0,1.81,0,4.036
			c0,3.653,2.349,6.958,6.283,8.839c0.055,0.026,0.115,0.04,0.174,0.04c0.06,0,0.119-0.013,0.174-0.04
			c3.934-1.882,6.283-5.187,6.283-8.839C12.915,1.81,11.104,0,8.879,0z M6.458,12.063c-3.542-1.757-5.65-4.746-5.65-8.027
			c0-1.78,1.448-3.229,3.229-3.229c0.651,0,1.282,0.201,1.817,0.568c-0.627,0.711-1.01,1.641-1.01,2.661
			c0,0.223,0.18,0.404,0.404,0.404S5.65,4.259,5.65,4.036c0-0.961,0.425-1.823,1.093-2.415C6.806,1.566,6.87,1.514,6.935,1.464
			C6.95,1.453,6.965,1.442,6.98,1.431c0.064-0.047,0.13-0.092,0.197-0.133c0.019-0.012,0.037-0.023,0.056-0.034
			c0.065-0.039,0.132-0.075,0.199-0.11C7.456,1.142,7.48,1.131,7.503,1.119c0.064-0.031,0.13-0.06,0.197-0.086
			C7.729,1.022,7.76,1.011,7.79,1c0.062-0.022,0.125-0.044,0.189-0.063c0.038-0.011,0.077-0.021,0.115-0.03
			c0.058-0.015,0.115-0.03,0.174-0.041c0.053-0.01,0.107-0.017,0.161-0.024c0.046-0.007,0.092-0.015,0.139-0.019
			c0.103-0.01,0.206-0.016,0.311-0.016c1.78,0,3.229,1.448,3.229,3.229C12.108,7.317,10,10.305,6.458,12.063z M8.879,1.614
			c-0.223,0-0.404,0.181-0.404,0.404c0,0.223,0.181,0.404,0.404,0.404c0.89,0,1.614,0.724,1.614,1.614
			c0,0.223,0.181,0.404,0.404,0.404c0.223,0,0.404-0.181,0.404-0.404C11.301,2.701,10.215,1.614,8.879,1.614z"/>
	</g>
</g>
</svg>
