<!-- Generator: Adobe Illustrator 17.1.0, SVG Export Plug-In  -->
<svg version="1.1"
	 xmlns="http://www.w3.org/2000/svg" xmlns:xlink="http://www.w3.org/1999/xlink" xmlns:a="http://ns.adobe.com/AdobeSVGViewerExtensions/3.0/"
	 x="0px" y="0px" width="298.171px" height="300px" viewBox="0 0 298.171 300" enable-background="new 0 0 298.171 300"
	 xml:space="preserve">
<defs>
</defs>
<g>
	<path fill="#FFFFFF" d="M298.171,149.553c0-2.406-0.171-4.795-0.171-7.173V0H0v300h298V156.726
		C298,154.348,298.171,151.959,298.171,149.553z"/>
	<g>
		
			<radialGradient id="SVGID_1_" cx="186.205" cy="85.1134" r="134.7919" gradientTransform="matrix(1.9626 0 0 1.9626 -141.5205 -143.9094)" gradientUnits="userSpaceOnUse">
			<stop  offset="0" style="stop-color:#F7931E"/>
			<stop  offset="0.2362" style="stop-color:#F79020"/>
			<stop  offset="0.4154" style="stop-color:#F68628"/>
			<stop  offset="0.5758" style="stop-color:#F57635"/>
			<stop  offset="0.7252" style="stop-color:#F35F46"/>
			<stop  offset="0.8657" style="stop-color:#F0425D"/>
			<stop  offset="1" style="stop-color:#ED1E79"/>
		</radialGradient>
		<path fill="url(#SVGID_1_)" d="M98.575,155.841L93,155.83v1.924c0,28.078,24.96,50.922,53.178,50.922s52.176-22.671,52.176-50.679
			l0.987-1.996h-98.755L98.575,155.841z M195.477,161c-0.924,25-21.785,45.211-47.295,45.211c-25.464,0-46.295-20.211-47.289-45.211
			H195.477z"/>
		
			<radialGradient id="SVGID_2_" cx="185.7476" cy="84.9269" r="134.97" gradientTransform="matrix(1.9626 0 0 1.9626 -141.5205 -143.9094)" gradientUnits="userSpaceOnUse">
			<stop  offset="0" style="stop-color:#F7931E"/>
			<stop  offset="0.2362" style="stop-color:#F79020"/>
			<stop  offset="0.4154" style="stop-color:#F68628"/>
			<stop  offset="0.5758" style="stop-color:#F57635"/>
			<stop  offset="0.7252" style="stop-color:#F35F46"/>
			<stop  offset="0.8657" style="stop-color:#F0425D"/>
			<stop  offset="1" style="stop-color:#ED1E79"/>
		</radialGradient>
		<path fill="url(#SVGID_2_)" d="M113.299,138.261c0.478-0.283,11.854-6.884,23.324-0.002c0.31,0.186,0.651,0.274,0.988,0.274
			c0.654,0,1.291-0.333,1.651-0.934c0.547-0.911,0.252-2.093-0.659-2.64c-13.487-8.09-26.724-0.334-27.28,0
			c-0.909,0.546-1.203,1.724-0.66,2.635C111.206,138.507,112.388,138.799,113.299,138.261z"/>
		
			<radialGradient id="SVGID_3_" cx="185.7476" cy="84.9269" r="134.97" gradientTransform="matrix(1.9626 0 0 1.9626 -141.5205 -143.9094)" gradientUnits="userSpaceOnUse">
			<stop  offset="0" style="stop-color:#F7931E"/>
			<stop  offset="0.2362" style="stop-color:#F79020"/>
			<stop  offset="0.4154" style="stop-color:#F68628"/>
			<stop  offset="0.5758" style="stop-color:#F57635"/>
			<stop  offset="0.7252" style="stop-color:#F35F46"/>
			<stop  offset="0.8657" style="stop-color:#F0425D"/>
			<stop  offset="1" style="stop-color:#ED1E79"/>
		</radialGradient>
		<path fill="url(#SVGID_3_)" d="M159.472,138.261c0.478-0.283,11.854-6.884,23.324-0.002c0.31,0.186,0.651,0.274,0.988,0.274
			c0.654,0,1.291-0.333,1.651-0.934c0.547-0.911,0.252-2.093-0.659-2.64c-13.486-8.09-26.723-0.334-27.28,0
			c-0.909,0.546-1.203,1.724-0.66,2.635C157.38,138.507,158.561,138.799,159.472,138.261z"/>
		
			<radialGradient id="SVGID_4_" cx="185.7476" cy="84.9269" r="134.97" gradientTransform="matrix(1.9626 0 0 1.9626 -141.5205 -143.9094)" gradientUnits="userSpaceOnUse">
			<stop  offset="0" style="stop-color:#F7931E"/>
			<stop  offset="0.2362" style="stop-color:#F79020"/>
			<stop  offset="0.4154" style="stop-color:#F68628"/>
			<stop  offset="0.5758" style="stop-color:#F57635"/>
			<stop  offset="0.7252" style="stop-color:#F35F46"/>
			<stop  offset="0.8657" style="stop-color:#F0425D"/>
			<stop  offset="1" style="stop-color:#ED1E79"/>
		</radialGradient>
		<path fill="url(#SVGID_4_)" d="M230.637,114.176c-0.294,0-0.586,0.027-0.879,0.034l0.581-0.249
			c-14.031-32.734-46.367-53.887-82.376-53.887s-68.344,21.153-82.376,53.887l0.581,0.249c-0.294-0.007-0.585-0.034-0.879-0.034
			c-19.507,0-35.378,15.87-35.378,35.377s15.871,35.378,35.378,35.378c2.011,0,4.01-0.209,5.978-0.544
			c12.266,30.469,42.11,52.043,76.917,52.043c34.782,0,64.609-21.544,76.891-51.98c1.835,0.291,3.694,0.481,5.564,0.481
			c19.507,0,35.378-15.871,35.378-35.378S250.144,114.176,230.637,114.176z M147.962,64.198c33.953,0,64.465,19.706,78.094,50.297
			c-1.466,0.19-2.916,0.468-4.344,0.84c-13.839-26.529-41.595-44.693-73.53-44.693c-31.978,0-59.766,18.213-73.586,44.801
			c-1.553-0.423-3.13-0.74-4.728-0.947C83.497,83.904,114.01,64.198,147.962,64.198z M148.182,74.488
			c11.428,0,22.286,2.457,32.104,6.84c-53.797,52.727-99.088,55.211-109.248,55.027C78.907,101.005,110.497,74.488,148.182,74.488z
			 M33.758,149.553c0-14.701,10.128-27.048,23.763-30.521c-4.194,11.002-6.341,22.587-6.341,34.503
			c0,8.715,1.157,17.326,3.433,25.648C42.473,174.794,33.758,163.188,33.758,149.553z M65.288,181.083
			c-2.158,0-4.265-0.22-6.302-0.635c-2.619-8.694-3.959-17.743-3.959-26.913c0-12.243,2.354-24.121,6.957-35.335
			c1.086-0.114,2.188-0.176,3.303-0.176c2.575,0,5.117,0.318,7.588,0.928c-4.857,10.534-7.588,22.243-7.588,34.583
			c0,9.517,1.633,18.655,4.598,27.175C68.367,180.932,66.833,181.083,65.288,181.083z M148.182,232.582
			c-43.586,0-79.047-35.461-79.047-79.047c0-4.448,0.388-8.805,1.098-13.055c0.66,0.031,1.447,0.057,2.446,0.057
			c13.687,0,58.304-4.537,111.569-57.305c25.494,13.132,42.98,39.706,42.98,70.303C227.228,197.121,191.768,232.582,148.182,232.582
			z M226.456,180.773c2.98-8.537,4.62-17.698,4.62-27.238c0-12.379-2.747-24.123-7.633-34.683c2.347-0.547,4.757-0.828,7.194-0.828
			c1.116,0,2.217,0.062,3.303,0.176c4.603,11.214,6.957,23.092,6.957,35.335c0,9.171-1.339,18.219-3.959,26.913
			c-2.037,0.415-4.144,0.635-6.302,0.635C229.234,181.083,227.84,180.957,226.456,180.773z M241.313,179.183
			c2.275-8.322,3.433-16.933,3.433-25.648c0-11.916-2.147-23.501-6.341-34.503c13.635,3.474,23.763,15.821,23.763,30.521
			C262.167,163.188,253.452,174.794,241.313,179.183z"/>
	</g>
</g>
</svg>
