<!-- Generator: Adobe Illustrator 17.1.0, SVG Export Plug-In  -->
<svg version="1.1"
	 xmlns="http://www.w3.org/2000/svg" xmlns:xlink="http://www.w3.org/1999/xlink" xmlns:a="http://ns.adobe.com/AdobeSVGViewerExtensions/3.0/"
	 x="0px" y="0px" width="512px" height="512.001px" viewBox="0 0 512 512.001"
	 enable-background="new 0 0 -323.716 512 512.001" xml:space="preserve">
<defs>
</defs>
<g>
	<path fill="#39579A" d="M483.724,0H28.259C12.663,0,0,12.637,0,28.259v455.466c0,15.622,12.663,28.276,28.259,28.276h245.209
		V313.724h-66.719v-77.282h66.719v-56.99c0-66.12,40.374-102.144,99.37-102.144c28.284,0,52.539,2.116,59.612,3.035v69.113
		l-40.922,0.017c-32.078,0-38.266,15.251-38.266,37.617v49.327h76.532l-10.007,77.274h-66.533v198.285h130.462
		c15.613,0,28.284-12.671,28.284-28.251V28.242C511.992,12.637,499.337,0,483.724,0z"/>
</g>
</svg>
