<!-- Generator: Adobe Illustrator 17.0.0, SVG Export Plug-In  -->
<svg version="1.1"
	 xmlns="http://www.w3.org/2000/svg" xmlns:xlink="http://www.w3.org/1999/xlink" xmlns:a="http://ns.adobe.com/AdobeSVGViewerExtensions/3.0/"
	 x="0px" y="0px" width="512px" height="512.001px" viewBox="0 0 512 512.001"
	 enable-background="new 0 0 512 512.001" xml:space="preserve">
<defs>
</defs>
<path fill="#D6492E" d="M483.724,0H28.259C12.663,0,0,12.637,0,28.259v455.466c0,15.622,12.663,28.276,28.259,28.276l455.457-0.025
	c15.613,0,28.284-12.671,28.284-28.251V28.242C511.992,12.637,499.338,0,483.724,0z M199.517,368.966
	c-62.413,0-112.966-50.553-112.966-112.966s50.553-112.966,112.966-112.966c30.503,0,55.987,11.225,75.548,29.441l-31.848,31.844
	v-0.073c-11.859-11.297-26.896-17.085-43.7-17.085c-37.277,0-67.567,31.488-67.567,68.77c0,37.274,30.289,68.838,67.567,68.838
	c33.82,0,56.835-19.347,61.572-45.892h-61.572v-44.058h106.257c1.414,7.553,2.186,15.462,2.186,23.721
	C307.96,323.074,264.756,368.966,199.517,368.966z M425.449,270.121h-35.302v35.302h-28.241v-35.302h-35.302V241.88h35.302v-35.302
	h28.241v35.302h35.302V270.121z"/>
</svg>
