<!-- Generator: Adobe Illustrator 17.1.0, SVG Export Plug-In  -->
<svg version="1.1"
	 xmlns="http://www.w3.org/2000/svg" xmlns:xlink="http://www.w3.org/1999/xlink" xmlns:a="http://ns.adobe.com/AdobeSVGViewerExtensions/3.0/"
	 x="0px" y="0px" width="458.457px" height="769.535px" viewBox="0 0 458.457 769.535" enable-background="new 0 0 458.457 769.535"
	 xml:space="preserve">
<defs>
</defs>
<g>
	<g>
		<path fill-rule="evenodd" clip-rule="evenodd" fill="#FFFFFF" d="M458.457,755.463V14.072C458.457,6.33,452.128,0,444.388,0
			H14.072C6.33,0,0,6.33,0,14.072v741.391c0,7.728,6.33,14.072,14.072,14.072h430.315
			C452.128,769.535,458.457,763.191,458.457,755.463z"/>
	</g>
	<path fill="#007FC1" d="M441.758,357.826c0,6.159,0,58.697,0,76.855c-13.988,4.11-32.273,7.045-51.336,5.629
		c-9.281-0.711-19.791-2.417-29.272-3.122c-10.468-0.796-21.268,0-31.754,0c-5.955,0-12.138-0.542-18.057,0
		c-10.878,0.958-23.311,3.489-34.864,4.357c-10.764,0.802-19.93-1.573-28.023-2.489c-8.275-0.952-15.588,0.314-22.365,1.254
		c0-25.318,0-50.673,0-75.973c5.529,0.606,7.883,0.742,13.029,1.869c4.255,0.916,9.378,3.29,14.319,3.736
		c17.918,1.597,36.498-3.191,51.059-6.228c3.579-0.753,9.063-2.661,13.077-3.11c25.041-2.902,41.675,8.055,61.642,10.583
		c13.945,1.754,29.675-0.136,40.475-3.733C426.088,365.314,441.758,357.826,441.758,357.826"/>
	<path fill="#007FC1" d="M320.055,306.433c19.388-1.422,35.455,2.176,50.443,4.979c6.111,1.13,10.752,1.229,16.809,2.495
		c10.432,2.179,22.088,5.955,36.117,4.357c5.853-0.681,12.753-3.067,18.334-4.704c0,8.591,0,18.643,0,26.345
		c-12.392,2.549-27.578,5.271-43.248,3.887c-11.354-1.03-23.154-3.911-34.243-6.226c-12.18-2.549-25.24-7.548-38.607-6.852
		c-9.606,0.488-19.339,4.086-28.018,5.605c-17.568,3.037-42.458,4.999-61.646,1.868c0,0-6.114-0.826-6.114-1.443
		c0-7.461,0.057-12.644,0-23.462c1.829,0.371,3.685,0.991,4.872,1.245c4.436,0.876,8.601,0.235,13.699,0.624
		c7.942,0.582,17.434,0.988,26.149,0C289.259,313.455,303.97,307.6,320.055,306.433"/>
	<path fill="#007FC1" d="M143.705,264.714c5.722-0.425,11.306,0.795,16.194,1.248c9.398,0.832,17.119,1.262,25.526,3.109
		c2.664,0.588,6.714,2.432,9.341,3.116c9.263,2.371,21.229,4.709,31.134,5.604c32.442,2.881,72.658,3.327,105.232,0
		c11.342-1.166,24.649-3.815,36.111-4.981c12.12-1.266,25.626,0.446,36.112,1.247c2.628,0.19,5.448-0.277,8.1,0
		c6.689,0.678,13.85,3.887,22.413,2.486c2.164-0.371,5.045-1.938,7.89-2.796c0.012,8.127,0,15.823,0,23.353
		c-28.543-0.247-278.162,0.301-307.391,0.301c-4.201-10.33,0.1-22.956,2.495-32.065
		C139.249,265.337,142.211,264.813,143.705,264.714"/>
	<path fill="#DD6555" d="M195.201,216.769c3.851-1.085,10.137,0.389,13.075,0.623c26.833,2.004,44.287,10.854,62.885,21.169
		c2.381,1.326,4.538,1.714,6.853,3.116c1.422,0.856,2.917,2.838,4.357,3.733c0.838,0.524,2.41,0.566,3.115,1.247
		c0.579,0.561,0,1.886,0.627,2.492c-4.339,2.001-9.196,4.665-13.704,6.226c-20.178,6.906-50.98,5.93-69.735-1.245
		c-3.038-1.166-7.148-1.925-8.721-4.357c-1.708-2.63-0.796-9.633-1.248-13.702c0,0,0.548-3.191,0.624-4.357
		c0.018-1.777,0.124-1.666,0-3.116C193.194,226.538,190.879,217.953,195.201,216.769"/>
	<path fill="#DD6555" d="M269.298,13.781c12.005-0.895,26.349,0.292,37.354,0.624c17.297,0.506,37.377,1.184,54.795,2.495
		c25.631,1.904,48.219-0.144,73.477,1.862c-2.94,21.654,1.248,44.284,1.248,65.377c-1.176-0.542-2.067-0.09-3.116-0.621
		c-4.424-2.218-12.668-9.826-11.83-16.811c0.097-0.949,1.633-3.58,1.868-4.358c0.464-1.754-0.175-3.658,1.247-4.357
		c0.597-0.313-0.801-0.524-0.626-1.245c-15.465,2.275-25.312,9.2-37.98,14.316c-1.501-3.926-3.194-8.019-4.357-12.448
		c-0.103,0-1.874,0.018-1.874,0c-6.087,5.066-10.908,17.158-13.15,26.629c-0.639,2.666-0.139,4.275-0.796,7.054
		c-1.217,4.942-4.742,11.113-7.545,15.082c-5.255,7.355-13.626,15.91-20.515,21.729c-3.622,3.038-7.605,5.252-11.27,8.272
		c-0.747,0.597-1.428,1.627-2.139,2.178c-0.735,0.524-1.44,0.567-1.754,1.386c-0.253,0.642,0.555,1.136,0.169,1.706
		c6.629,6.325,11.498,13.922,18.152,20.265c6.815-2.739,10.088-6.213,15.814-9.658c5.37-3.27,10.366-5.213,16.188-8.097
		c1.229-0.624,3.508-2.585,4.978-3.11c2.591-0.955,7.087-2.784,9.341-3.116c4.074-0.624,8.329,0.289,12.457,0
		c3.562-0.271,7.612-1.594,10.583-2.489c2.278-20.605,3.622-32.553,27.397-29.886c1.26,8.522,1.851,18.33,2.489,26.77
		c2.06,27.611-1.182,53.258-3.11,79.079c-0.988,13.018,1.242,24.809,1.242,37.362c-1.013,0.271-1.031-0.53-1.242,0.618
		c-9.787,0-19.502,0-29.266,0c-0.645-8.13,1.917-13.258,5.045-18.884c1.013-1.847,2.14-4.776,2.429-5.394
		c-5.412,1.338-10.33,2.233-16.188,3.733c-6.738,1.709-14.44,6.226-23.534,5.394c-4.882-0.47-9.498-2.591-13.133-4.381
		c-0.698-0.347-6.821-3.956-8.594-5.023c-16.133-9.769-26.933-23.112-38.8-37.085h-1.247v-1.247c-0.308-0.874-2.82-1.633-3.11-2.492
		c-0.253-0.696,0.29-1.844,0-2.486c7.684-1.148,14.748-1.989,22.414-3.116c0,0-5.184-5.882-7.148-8.22
		c-13.873-16.48-36.256-30.938-56.59-40.373c0.253-0.139,0.234-1.654,0.627-1.871c1.38-0.838,3.959-0.241,5.821-0.594
		c3.677-0.702,6.75-1.485,9.281-3.375c2.001-1.537,3.478-2.938,3.242-6.813c-0.253-3.987-16.248-12.626-16.881-13.473
		c-2.043-2.703-4.852-10.411-3.55-15.878c0.325-1.419,3.52-3.08,4.376-4.05c6.044-7.121,14.584-4.842,22.22-3.733
		c4.237,0.624,8.407,1.47,11.204-1.245c1.361-1.347,1.223-3.501,1.868-5.605c0.555-1.877,0.555-8.214-0.627-9.959
		c-2.989-4.42-8.462-5.9-14.94-6.852c-0.15-0.684-1.163-0.992-1.247-1.245c-0.41-1.148,0.253-2.567,0-3.733
		c-0.446-1.934-3.966-5.957-5.604-6.852c-9.631-5.258-26.964,1.89-39.229,0.624c-3.109-0.335-7.448-1.908-10.582-3.116l-1.248-1.247
		c-1.105-0.29-1.1,0.265-2.19-0.006c0.624,4.61,0.094,6.295,1.573,9.974c-3.357,2.362-5.642,5.9-8.221,9.158
		c-4.71,5.942-9.028,12.349-12.955,18.86c-0.814,1.344-4.942,5.373-4.978,6.849c-0.063,2.667,7.979,12.12,10.583,14.316
		c0.895,0.76,4.041,1.938,4.43,3.104c0.624,1.853-0.226,4.457-0.319,5.352c-0.723,5.583-2.26,9.974-4.11,14.587
		c-2.161,5.334-11.264,14.012-9.338,21.793c0.624,2.549,7.259,8.561,9.338,11.206c-2.739,2.586-16.645,14.527-20.379,14.684
		c-1.709,0.054-3.058,1.411-4.324,1.296c0-16.423,3.399-32.11,2.29-47.114c-1.323-17.685-3.716-35.22-4.981-52.302
		c-1.383-18.309,0.56-37.57,1.247-54.171C216.872,16.547,242.54,15.725,269.298,13.781"/>
	<path fill="#00988F" d="M55.43,18.138c30.767-2.251,54.403,6.054,81.568,8.097c16.148,1.205,29.732-2.375,42.34-4.982
		c0,79.155,0,152.496,0,226.648c-15.471-0.913-34.632-2.492-52.923-2.492c-0.859,6.247-1.094,12.008-1.871,18.68
		c-0.488,4.011-2.179,9.32-2.492,13.702c-1.052,13.816,0.919,27.22,1.868,39.225c16.794-4.204,39.46-0.931,55.418,1.248
		c0,13.427,0.816,100.688,0,122.046c-22.784,0-133.28,0.314-162.515,0c2.221-7.322,4.881-14.699,6.229-22.426
		c4.707-27.222,4.065-63.798,1.868-93.395c-0.566-7.374-2.591-16.423-3.116-23.661c-1.419-18.737-2.739-40.454-1.247-60.399
		c0.551-7.449,1.094-15.353,2.495-22.413c0.855-4.399,3.188-10.257,3.733-14.946c2.257-19.614,1.479-41.72,0-61.641
		c-2.414-32.183-12.258-65.848-9.338-98.383c0.443-5.059-0.036-12.743,1.871-16.188c0.443-0.841,1.633-0.702,2.486-1.248
		C29.819,20.299,43.096,19.033,55.43,18.138"/>
	<path d="M22.518,493.779h4.261c3.811,0,4.894-5.448,4.894-9.625c0-6.262-1.847-8.624-4.894-8.624h-4.261V493.779 M22.518,530.999
		h-9.594v-65.553h17.73c6.548,0,10.743,5.997,10.743,17.164c0,8.348-2.287,14.615-8.516,16.073v0.175
		c2.097,0.368,8.326,1.091,8.326,12.892c0,4.182,0.19,16.524,1.079,19.249h-9.404c-1.272-3.99-1.019-8.443-1.019-12.704
		c0-7.811,0.506-14.44-6.861-14.44h-2.483V530.999z"/>
	<polyline points="94.724,530.999 94.724,465.447 119.767,465.447 119.767,475.53 104.321,475.53 104.321,491.687 118.556,491.687 
		118.556,501.77 104.321,501.77 104.321,520.922 120.274,520.922 120.274,530.999 94.724,530.999 	"/>
	<path d="M193.748,485.606c0.069-6.08-0.636-11.444-5.713-11.444c-5.981,0-5.981,11.535-5.981,24.245
		c0,20.521,1.401,24.149,6.871,24.149c1.585,0,3.299-0.543,4.764-1.272V506.76h-5.21v-10.077h14.804v33.232
		c-2.604,0.724-9.151,2.182-12.963,2.182c-16.145,0-17.983-9.54-17.983-34.412c0-16.531,0.566-33.321,16.266-33.321
		c9.404,0,15.256,7.533,14.681,21.243H193.748"/>
	
		<line fill="none" stroke="#000000" stroke-width="9" stroke-miterlimit="10" x1="262.681" y1="530.999" x2="262.681" y2="465.447"/>
	<path d="M343.294,498.226c0-16.802-0.699-24.064-6.1-24.064c-5.405,0-6.099,7.263-6.099,24.064c0,16.797,0.693,24.059,6.099,24.059
		C342.595,522.285,343.294,515.023,343.294,498.226 M321.369,498.226c0-17.345,0-33.863,15.826-33.863
		c15.826,0,15.826,16.519,15.826,33.863c0,17.164,0,33.87-15.826,33.87C321.369,532.096,321.369,515.39,321.369,498.226z"/>
	<polyline points="406.972,530.999 406.972,465.447 419.941,465.447 432.151,510.846 432.272,510.846 432.272,465.447 
		441.227,465.447 441.227,530.999 428.583,530.999 416.06,483.063 415.933,483.063 415.933,530.999 406.972,530.999 	"/>
	<polyline points="42.921,586.818 42.921,551.201 55.948,551.201 55.948,640.178 42.921,640.178 42.921,600.499 27.999,600.499 
		27.999,640.178 14.973,640.178 14.973,551.201 27.999,551.201 27.999,586.818 42.921,586.818 	"/>
	<path d="M135.473,568.34h-0.172l-5.957,38.444h12.424L135.473,568.34 M110.369,640.178l17.254-88.978h17.161l16.911,88.978h-13.72
		l-3.45-19.713h-17.767l-3.535,19.713H110.369z"/>
	<path d="M257.776,551.201v63.1c0,13.312-5.256,27.36-21.13,27.36c-14.316,0-21.223-10.601-21.223-27.36v-63.1h13.027v61.87
		c0,10.969,3.278,15.283,8.027,15.283c5.689,0,8.281-5.424,8.281-15.283v-61.87H257.776"/>
	<polyline points="353.346,551.201 353.346,565.99 338.859,565.99 338.859,640.178 325.828,640.178 325.828,565.99 311.34,565.99 
		311.34,551.201 353.346,551.201 	"/>
	<polyline points="407.261,640.178 407.261,551.201 441.251,551.201 441.251,564.887 420.285,564.887 420.285,586.818 
		439.613,586.818 439.613,600.499 420.285,600.499 420.285,626.498 441.939,626.498 441.939,640.178 407.261,640.178 	"/>
	<polyline points="14.632,748.484 14.632,659.506 32.227,659.506 48.791,721.128 48.963,721.128 48.963,659.506 61.128,659.506 
		61.128,748.484 43.958,748.484 26.963,683.414 26.791,683.414 26.791,748.484 14.632,748.484 	"/>
	<path d="M98.475,703.995c0-22.799-0.949-32.658-8.281-32.658c-7.332,0-8.284,9.859-8.284,32.658
		c0,22.799,0.952,32.659,8.284,32.659C97.526,736.654,98.475,726.793,98.475,703.995 M68.719,703.995
		c0-23.534,0-45.965,21.476-45.965c21.482,0,21.482,22.431,21.482,45.965c0,23.293,0,45.966-21.482,45.966
		C68.719,749.96,68.719,727.288,68.719,703.995z"/>
	<path d="M132.023,697.951h5.776c5.177,0,6.642-7.39,6.642-13.055c0-8.509-2.501-11.709-6.642-11.709h-5.776V697.951
		 M132.023,748.484h-13.027v-88.977h24.068c8.886,0,14.575,8.13,14.575,23.293c0,11.33-3.104,19.84-11.556,21.811v0.247
		c2.845,0.494,11.297,1.477,11.297,17.495c0,5.671,0.259,22.438,1.47,26.132h-12.768c-1.73-5.424-1.383-11.457-1.383-17.254
		c0-10.596,0.69-19.6-9.314-19.6h-3.363V748.484z"/>
	<polyline points="164.187,748.484 164.187,659.506 185.151,659.506 194.896,720.014 195.071,720.014 205.425,659.506 
		225.699,659.506 225.699,748.484 213.016,748.484 213.016,679.84 212.844,679.84 200.853,748.484 188.43,748.484 177.042,679.84 
		176.87,679.84 176.87,748.484 164.187,748.484 	"/>
	<path d="M253.882,676.64h-0.169l-5.954,38.444h12.427L253.882,676.64 M228.784,748.484l17.252-88.977H263.2l16.911,88.977h-13.717
		l-3.454-19.72h-17.767l-3.537,19.72H228.784z"/>
	<polyline points="283.545,748.484 283.545,659.506 301.143,659.506 317.704,721.128 317.879,721.128 317.879,659.506 
		330.041,659.506 330.041,748.484 312.871,748.484 295.888,683.414 295.707,683.414 295.707,748.484 283.545,748.484 	"/>
	<path d="M351.514,734.797h6.304c7.938,0,9.486-8.498,9.486-30.803c0-16.393,0-30.808-9.052-30.808h-6.738V734.797 M338.496,659.506
		h21.732c17.086,0,20.273,16.266,20.273,43.994c0,13.681,1.471,44.983-20.792,44.983h-21.214V659.506z"/>
	
		<line fill="none" stroke="#000000" stroke-width="11" stroke-miterlimit="10" x1="394.683" y1="748.484" x2="394.683" y2="659.506"/>
	<polyline points="409.37,748.484 409.37,659.506 443.367,659.506 443.367,673.187 422.4,673.187 422.4,695.118 441.722,695.118 
		441.722,708.798 422.4,708.798 422.4,734.797 444.048,734.797 444.048,748.484 409.37,748.484 	"/>
	<path fill="#FFE600" d="M436.244,83.998c-1.163-0.542-1.591-0.096-2.64-0.621c-4.418-2.218-12.675-9.826-11.831-16.811
		c0.097-0.953,1.64-3.58,1.862-4.357c0.471-1.754-0.175-3.658,1.248-4.357c0.603-0.313-0.796-0.524-0.627-1.248
		c-15.465,2.278-25.311,9.203-37.974,14.319c-1.501-3.926-3.188-8.019-4.363-12.448c-0.091,0-1.862,0.018-1.862,0
		c-6.714,5.053-11.463,17.299-13.705,26.771c-0.639,2.666,0.036,4.068-0.621,6.849c-1.199,4.945-4.67,10.975-7.473,14.943
		c-5.249,7.356-13.656,15.977-20.545,21.796c-3.622,3.037-7.558,5.08-11.21,8.091c-0.656,0.53-1.186,1.967-1.868,2.492
		c-0.735,0.525-2.182,0.428-2.495,1.248c-0.253,0.642,0.392,1.302,0,1.865c6.642,6.325,12.029,14.205,18.683,20.548
		c6.81-2.739,10.475-6.515,16.194-9.959c5.369-3.27,10.371-5.216,16.188-8.097c1.229-0.624,3.501-2.585,4.984-3.11
		c2.579-0.959,7.081-2.784,9.341-3.116c4.061-0.624,8.323,0.289,12.445,0c3.561-0.271,7.611-1.594,10.589-2.489
		c2.278-20.605,3.073-32.411,26.849-29.745L436.244,83.998"/>
	<path fill="#FFE600" d="M291.711,57.369c0,0-2.163-16.712-19.665-14.118c-17.514,2.598-24.648,3.245-24.648,3.245
		s-11.029-1.295-14.916-5.84c0,0-2.489,2.113,0.702,11.11c0,0-8.492,8.35-16.923,20.675c-8.428,12.321-9.23,14.192-9.23,14.192
		s4.041,9.152,9.23,13.693l5.093,3.119c0,0,3.45-1.193-3.74,20.548c0,0-13.674,18.496-8.485,23.682
		c5.189,5.189,8.485,9.317,8.485,9.317s-12.379,12.738-24.703,15.98v46.698c0,0,29.295-14.268,93.202,29.48
		c0,0,77.226-13.442,121.413,1.241c0,0-0.958-6.123,7.474-24.278c0,0-22.962,5.234-32.044,8.48
		c-9.082,3.239-27.24-1.95-53.836-30.486c-26.596-28.536-18.726-21.582-18.726-21.582l22.414-3.116c0,0-21.848-29.136-55.578-44.706
		c0,0-17.044-5.568-1.712-6.352c15.338-0.783,16.634-14.404,4.954-18.945c-11.674-4.535-21.401-18.803-3.242-28.536
		c0,0,9.082-1.296,18.809,0.648c0,0,15.393,5.61,10.613-17.297c0,0-4.773-5.4-11.909-6.051L291.711,57.369"/>
	<path fill="#FFE600" d="M281.557,93.842c0,0,23.998,21.401,27.885,24.002c0,0,7.793,3.887,17.514-3.249
		c9.733-7.132,6.491-5.837,6.491-5.837s-6.714-0.594-11.029-2.591c-4.314-2.001-24.649-12.325-33.08-12.973
		C284.811,92.842,281.557,93.842,281.557,93.842"/>
</g>
</svg>
