<!-- Generator: Adobe Illustrator 17.1.0, SVG Export Plug-In  -->
<svg version="1.1"
	 xmlns="http://www.w3.org/2000/svg" xmlns:xlink="http://www.w3.org/1999/xlink" xmlns:a="http://ns.adobe.com/AdobeSVGViewerExtensions/3.0/"
	 x="0px" y="0px" width="214.997px" height="291.048px" viewBox="0 0 214.997 291.048" enable-background="new 0 0 214.997 291.048"
	 xml:space="preserve">
<defs>
</defs>
<g>
	<path fill-rule="evenodd" clip-rule="evenodd" fill="#FFFFFF" d="M214.997,285.726V5.322c0-2.928-2.394-5.322-5.321-5.322H5.322
		C2.394,0,0,2.394,0,5.322v280.403c0,2.923,2.394,5.322,5.322,5.322h204.354C212.604,291.048,214.997,288.648,214.997,285.726z"/>
</g>
<g>
	<path fill-rule="evenodd" clip-rule="evenodd" fill="#EF7D00" d="M88.338,160.643c0.012,0.361,1.416-4.331,3.085-5.453
		c0.102-0.072,0.21-0.144,0.324-0.216c0.756-0.505,1.758-1.146,2.922-1.896c0.018-0.019,0.036-0.023,0.06-0.036
		c1.572-1.025,3.438-2.244,5.388-3.6c0.132-0.096,0.264-0.192,0.402-0.282c1.032-0.731,2.088-1.494,3.138-2.28
		c0.066-0.06,0.144-0.107,0.216-0.162v34.116c-3.174-4.374-7.566-7.782-10.866-11.275c-0.174-0.18-0.336-0.365-0.498-0.539
		c-0.144-0.162-0.288-0.318-0.42-0.474c-0.138-0.162-0.276-0.312-0.402-0.469c-0.822-0.977-1.524-1.98-2.076-3.012
		c-0.024-0.049-0.054-0.091-0.072-0.132c-0.264-0.51-0.486-1.026-0.666-1.555c-0.174-0.504-0.312-1.02-0.402-1.541
		C88.398,161.442,88.35,161.047,88.338,160.643 M82.59,174.54c4.194,3.774,9.27,6.906,12.786,11.37
		c0.408,0.516,0.816,1.015,1.224,1.506c0.06,0.072,0.12,0.15,0.186,0.227c0.114,0.139,0.234,0.289,0.354,0.433
		c0.108,0.126,0.216,0.252,0.33,0.384c0.312,0.366,0.63,0.726,0.942,1.087c0.192,0.221,0.39,0.443,0.588,0.666
		c1.704,1.931,3.342,3.731,4.872,5.634v20.237c-0.21-0.084-0.42-0.168-0.63-0.245c-0.12-0.049-0.24-0.097-0.354-0.139
		c-1.734-0.691-3.54-1.416-5.466-2.142c-0.138-0.054-0.27-0.103-0.402-0.15c-2.718-1.015-5.676-2.022-9.006-2.898
		c-2.028-0.539-4.194-1.025-6.522-1.445c-2.322-0.421-4.806-0.768-7.476-1.02c-1.968-0.192-4.038-0.323-6.222-0.396
		c5.79-10.326,7.932-19.266,12.69-29.052C81.132,177.259,81.828,175.908,82.59,174.54 M38.256,141.924
		c-0.552,0.762-1.188,2.676-0.138,4.098c3.828,3.102,13.128,11.376,20.856,14.172c8.868,3.204,14.406,8.682,12.684,15.822
		c-0.576,2.376-7.062,12.696-8.496,16.488c-0.186,0.473-0.372,0.953-0.564,1.428c-0.78,1.884-1.65,3.702-2.556,5.46
		c-0.228,0.438-0.462,0.87-0.69,1.302c-1.392,2.573-2.826,4.998-4.134,7.273c-3.78,0.365-7.524,1.02-11.178,1.872
		c-0.888,0.203-1.764,0.42-2.634,0.653c-0.312,0.078-0.618,0.162-0.924,0.246c-0.828,0.222-1.644,0.45-2.448,0.696
		c-0.924,0.27-1.83,0.558-2.73,0.857c-0.738,0.24-1.464,0.48-2.178,0.738c-0.39,0.132-0.78,0.271-1.158,0.414
		c-2.79,1.008-5.454,2.1-7.962,3.234c-0.45,0.197-0.888,0.408-1.32,0.611c-0.498,0.228-0.99,0.462-1.47,0.696
		c-0.456,0.216-0.906,0.438-1.344,0.66c-2.016,1.008-3.9,2.021-5.616,3.029V52.806c0-3.234,2.64-5.88,5.874-5.88h77.862
		c3.234,0,5.88,2.646,5.88,5.88v85.272c-6.15,4.44-11.298,9.57-17.31,13.086c-0.78,0.45-1.572,0.876-2.376,1.272
		c-0.048,0.018-0.096,0.041-0.138,0.065c-0.972,0.462-1.968,0.888-2.994,1.254c-1.524,0.534-3.186,0.828-4.926,0.919
		c-0.648,0.029-1.308,0.029-1.974,0.012c-0.87-0.03-1.758-0.102-2.652-0.204H71.49c-0.636-0.078-1.278-0.181-1.92-0.288
		c-0.018-0.006-0.042-0.006-0.054-0.006c-0.282-0.054-0.558-0.102-0.834-0.156c-0.126-0.03-0.252-0.055-0.372-0.078
		c-2.76-0.564-5.586-1.403-8.358-2.388c-0.186-0.066-0.366-0.132-0.546-0.192c-0.84-0.306-1.668-0.624-2.484-0.941
		c-0.504-0.205-1.008-0.402-1.5-0.607c-0.21-0.09-0.42-0.174-0.624-0.258c-0.03-0.018-0.066-0.024-0.09-0.036
		c-1.47-0.618-2.904-1.248-4.272-1.872c-0.18-0.084-0.354-0.162-0.522-0.239c-1.746-0.811-3.39-1.597-4.878-2.323
		c-0.132-0.066-0.258-0.126-0.384-0.186c-1.746-0.852-3.27-1.602-4.512-2.172c-0.126-0.06-0.252-0.114-0.366-0.168
		c-0.3-0.138-0.582-0.264-0.84-0.372C38.688,142.092,38.46,142.002,38.256,141.924"/>
</g>
<g>
	<path fill-rule="evenodd" clip-rule="evenodd" fill="#C61932" d="M31.908,218.393c-6.258,2.166-12.21,4.873-17.652,7.927v44.052
		c0,3.234,2.64,5.874,5.874,5.874H194.13c3.233,0,5.88-2.64,5.88-5.874V233.88c-0.288,0.061-0.576,0.12-0.864,0.186
		c-0.233,0.048-0.462,0.102-0.69,0.155c-0.485,0.102-0.972,0.204-1.463,0.307c-1.068,0.216-2.185,0.414-3.391,0.606
		c-0.27,0.036-0.54,0.083-0.816,0.125c-1.397,0.192-2.928,0.36-4.662,0.486c-1.859,0.133-3.947,0.21-6.359,0.229h-1.074
		c-0.732-0.007-1.488-0.012-2.273-0.024c-6.24-0.12-13.128-3.048-19.116-4.338c-0.372-0.084-0.732-0.156-1.093-0.216
		c-0.726-0.133-1.439-0.234-2.147-0.307c-1.422-0.155-2.826-0.216-4.236-0.21c-0.474,0-0.947,0.006-1.415,0.024h-0.024
		c-0.468,0.012-0.942,0.03-1.41,0.059c-0.485,0.025-0.966,0.054-1.452,0.091c-1.464,0.096-2.964,0.233-4.529,0.371
		c-0.019-0.791-1.453-1.374-0.895-1.787c0.72-0.318,1.44-0.595,2.148-0.847c0.701-0.258,1.403-0.479,2.094-0.672
		c0.684-0.198,1.367-0.365,2.046-0.51c1.344-0.294,2.664-0.492,3.96-0.601c0.966-0.089,1.92-0.125,2.861-0.125
		c0.336-0.006,0.679,0.005,1.021,0.018c0.265,0.006,0.534,0.012,0.804,0.03h0.061c0.264,0.012,0.527,0.023,0.792,0.048
		c0.239,0.012,0.48,0.036,0.726,0.06c0.06,0,0.126,0.012,0.192,0.019c0.216,0.018,0.432,0.042,0.648,0.065
		c0.653,0.066,1.308,0.15,1.955,0.252c0.433,0.06,0.87,0.133,1.302,0.211c0.439,0.071,0.877,0.149,1.315,0.239
		c0.12,0.024,0.246,0.042,0.372,0.072c0.042,0.006,0.084,0.018,0.132,0.03c0.234,0.042,0.468,0.089,0.708,0.143
		c1.08,0.222,2.154,0.468,3.222,0.72c0.385,0.084,0.769,0.18,1.152,0.271c0.45,0.101,0.9,0.204,1.35,0.311
		c0.99,0.223,1.986,0.42,2.989,0.589c0.995,0.161,2.004,0.3,3.011,0.407c1.507,0.156,3.024,0.246,4.543,0.27h1.518
		c1.008-0.018,2.021-0.059,3.036-0.131c2.52-0.187,5.04-0.546,7.548-1.074c2.328-0.499,4.014-1.026,6.408-1.398v-8.082
		c-4.734,1.254-9.756,2.112-15.024,2.076c-0.479-0.006-0.96-0.013-1.439-0.03c-5.545-0.216-14.142-2.88-23.07-2.909
		c-0.408-0.007-0.816,0-1.218,0.011c-8.952,0.211-18.553,7.488-39.804,7.387c-0.99-0.006-2.004-0.03-3.042-0.066
		c-10.639-0.396-18.577-4.296-25.789-7.109c-6.45-2.521-12.48-5.215-20.784-5.916c-2.088-0.18-3.822-0.306-5.328-0.384
		c-2.634,3.954-5.892,8.153-10.08,12.689c-5.112-2.802-4.716-6.87-2.25-12.096c-0.12,0.012-0.234,0.023-0.348,0.042
		c-2.646,0.336-5.28,0.792-7.878,1.357C40.95,215.49,34.044,217.668,31.908,218.393"/>
</g>
<g>
	<path fill-rule="evenodd" clip-rule="evenodd" fill="#FFFFFF" d="M73.086,137.298l0.072-1.074c1.188-0.276,4.746-0.48,8.82,2.628
		c2.544,1.944,1.038,9.3-1.08,11.034C72.612,156.66,61.548,136.854,73.086,137.298"/>
	<path fill-rule="evenodd" clip-rule="evenodd" fill="#FFFFFF" d="M73.086,137.298l0.072-1.074c1.188-0.276,4.746-0.48,8.82,2.628
		c2.544,1.944,1.038,9.3-1.08,11.034C72.612,156.66,61.548,136.854,73.086,137.298"/>
	<path fill-rule="evenodd" clip-rule="evenodd" fill="#FFFFFF" d="M73.086,137.298l0.072-1.074c1.188-0.276,4.746-0.48,8.82,2.628
		c2.544,1.944,1.038,9.3-1.08,11.034C72.612,156.66,61.548,136.854,73.086,137.298"/>
</g>
<g>
	<path fill-rule="evenodd" clip-rule="evenodd" fill="#C61932" d="M20.316,39.06c3.39,0,7.638-1.14,7.638-7.17
		c0-4.35-2.91-6.654-5.712-8.178c-1.668-0.876-2.568-1.59-2.568-2.724c0-1.206,0.72-1.854,2.622-1.854
		c1.08,0,2.802,0.456,3.648,0.714c0.72,0.228,1.44-4.38,0.846-4.638c-0.354-0.162-1.464-0.714-4.854-0.714
		c-4.476,0-7.278,2.436-7.278,6.75c0,4.668,2.982,6.324,5.424,7.59c1.8,0.906,2.622,1.722,2.622,2.988
		c0,1.59-1.284,2.136-3.186,2.136c-2.7,0-3.984-0.84-4.704-0.966c-0.486-0.072-0.69,4.41-0.408,4.704
		C15.018,38.346,16.998,39.06,20.316,39.06"/>
</g>
<g>
	<path fill-rule="evenodd" clip-rule="evenodd" fill="#C61932" d="M41.958,31.338H34.71c0,2.304,1.26,3.636,3.522,3.636
		c2.106,0,3.696-0.426,4.14-0.522c0.462-0.132,0.744,0.096,0.744,0.522v2.394c0,0.75-0.18,1.044-0.846,1.236
		c-0.39,0.132-2.982,0.456-4.5,0.456c-5.556,0-7.428-3.474-7.428-9.054c0-6.456,2.082-9.414,6.702-9.414
		c4.272,0,6.276,2.664,6.276,6.654v2.532C43.32,30.882,43.242,31.338,41.958,31.338 M36.948,24c-1.572,0-2.106,1.758-2.136,3.246
		c0,0.456-0.024,0.78,0.336,0.78h3.468c0.258,0,0.282-0.294,0.282-0.744C38.874,25.56,38.514,24,36.948,24"/>
</g>
<g>
	<path fill-rule="evenodd" clip-rule="evenodd" fill="#C61932" d="M49.512,18.75H46.74c-0.672,0-0.852-0.168-0.852-1.14v-1.722
		c0-0.876,0.21-1.038,0.876-1.038h2.748c0.774,0,0.75,0.618,0.75,1.332v1.524C50.262,18.42,50.106,18.75,49.512,18.75
		 M49.512,38.604H46.71c-0.744,0-0.822-0.486-0.822-1.332V22.218c0-0.654,0.18-1.068,0.696-1.068h2.754
		c0.87,0,0.924,0.354,0.924,1.068v15.054C50.262,38.118,50.262,38.604,49.512,38.604"/>
</g>
<g>
	<path fill-rule="evenodd" clip-rule="evenodd" fill="#C61932" d="M64.758,38.604c0.588,0,0.792-0.714,0.792-1.686V26.34
		c0-4.152-2.106-5.58-4.056-5.58c-1.878,0-3.036,0.804-3.96,2.142c0-1.494-0.408-1.752-0.954-1.752h-2.748
		c-0.516,0-0.69,0.516-0.69,1.164v14.898c0,0.84,0.228,1.392,1.026,1.392h2.592c0.75,0,0.75-0.684,0.75-1.524v-8.826
		c0-1.14,0.54-2.532,1.872-2.532c1.26,0,1.674,1.134,1.674,2.334v9.282c0,0.81,0.438,1.266,0.978,1.266H64.758"/>
</g>
<g>
	<path fill-rule="evenodd" clip-rule="evenodd" fill="#C61932" d="M79.716,31.338h-7.248c0,2.304,1.26,3.636,3.522,3.636
		c2.106,0,3.702-0.426,4.14-0.522c0.462-0.132,0.744,0.096,0.744,0.522v2.394c0,0.75-0.18,1.044-0.852,1.236
		c-0.384,0.132-2.982,0.456-4.494,0.456c-5.556,0-7.428-3.474-7.428-9.054c0-6.456,2.076-9.414,6.708-9.414
		c4.266,0,6.27,2.664,6.27,6.654v2.532C81.078,30.882,81,31.338,79.716,31.338 M74.706,24c-1.572,0-2.112,1.758-2.136,3.246
		c0,0.456-0.024,0.78,0.336,0.78h3.468c0.258,0,0.282-0.294,0.282-0.744C76.632,25.56,76.272,24,74.706,24"/>
</g>
<g>
	<path fill-rule="evenodd" clip-rule="evenodd" fill="#C61932" d="M87.96,31.266c0.924,0,1.104-0.258,1.104-1.23v-1.11
		c0-0.942-0.534-0.942-1.206-0.942h-2.976c-0.564,0-0.846,0.066-0.846,1.17v1.272c0,0.582,0.36,0.84,0.87,0.84H87.96"/>
</g>
<g>
	<path fill-rule="evenodd" clip-rule="evenodd" fill="#C61932" d="M109.47,38.604c0.648,0,0.773-0.228,0.773-0.846V15.99
		c0-0.75,0.024-1.14-0.642-1.14h-3.108c-0.414,0-0.876,0.132-1.11,0.684l-3.906,8.694c-0.102,0.198-0.258,0.198-0.36-0.03
		l-4.062-8.73c-0.306-0.648-0.642-0.618-1.074-0.618h-2.778c-0.696,0-1.002,0.198-1.002,1.038v21.648
		c0,1.134,0.642,1.068,1.08,1.068h3.006c0.744,0,0.768-0.294,0.768-0.846V24.714c0-0.324,0.234-0.42,0.414-0.06l2.7,6.81
		c0.306,0.816,0.282,0.912,0.822,0.912h0.414c0.384,0,0.408-0.132,0.714-0.882l2.91-7.002c0.15-0.324,0.354-0.426,0.354,0.03v13.014
		c0,0.84,0.282,1.068,1.08,1.068H109.47"/>
</g>
<g>
	<path fill-rule="evenodd" clip-rule="evenodd" fill="#C61932" d="M125.459,38.604h-2.621c-0.54,0-0.973-0.102-0.973-0.972v-1.038
		c-0.672,1.266-2.136,2.43-4.35,2.43c-2.334,0-4.368-2.532-4.368-8.988c0-6.486,1.8-9.444,4.524-9.444
		c2.285,0,3.443,0.816,4.193,2.4v-0.774c0-0.552,0.205-1.068,0.636-1.068h2.755c0.924,0,0.978,0.354,0.978,1.068V37.08
		C126.234,37.92,126.234,38.604,125.459,38.604 M121.428,27.282c0-1.14-0.366-3.054-1.854-3.054c-1.308,0-1.722,1.428-1.722,3.636
		v3.798c0,1.944,0.486,3.732,1.824,3.732c1.283,0,1.752-1.95,1.752-2.856V27.282"/>
</g>
<g>
	<path fill-rule="evenodd" clip-rule="evenodd" fill="#C61932" d="M137.928,24.456l0.048-3.18c0-0.456-0.307-0.456-0.517-0.456
		c-1.691,0-2.898,0.816-3.953,2.274V21.99c0-0.678-0.414-0.84-0.954-0.84h-2.748c-0.516,0-0.69,0.516-0.69,1.164v14.898
		c0,0.84,0.229,1.392,1.026,1.392h2.592c0.75,0,0.75-0.684,0.75-1.524v-8.664c0-0.978,0.799-2.046,1.927-2.724
		c0.588-0.39,1.338-0.588,2.027-0.588C137.772,25.104,137.898,24.846,137.928,24.456"/>
</g>
<g>
	<path fill-rule="evenodd" clip-rule="evenodd" fill="#C61932" d="M143.501,18.75h-2.771c-0.666,0-0.853-0.168-0.853-1.14v-1.722
		c0-0.876,0.211-1.038,0.877-1.038h2.747c0.774,0,0.75,0.618,0.75,1.332v1.524C144.251,18.42,144.09,18.75,143.501,18.75
		 M143.501,38.604h-2.801c-0.745,0-0.823-0.486-0.823-1.332V22.218c0-0.654,0.187-1.068,0.696-1.068h2.749
		c0.875,0,0.929,0.354,0.929,1.068v15.054C144.251,38.118,144.251,38.604,143.501,38.604"/>
</g>
<g>
	<path fill-rule="evenodd" clip-rule="evenodd" fill="#C61932" d="M154.321,25.14c0.647,0,0.672-0.36,0.672-1.038v-1.59
		c0-0.618-0.15-1.2-0.721-1.2h-2.004V18.03c0-0.81-0.078-1.2-0.876-1.038l-2.185,0.522c-0.51,0.096-1.002,0.39-1.002,1.104v2.694
		h-1.079c-0.612,0-0.769,0.252-0.769,1.002v1.722c0,0.618,0.102,1.038,0.589,1.038h1.055v9.444c0.024,2.04,0.979,4.506,3.727,4.506
		c1.104,0,2.49-0.324,2.88-0.522c0.258-0.156-0.054-3.66-0.39-3.6c-0.306,0.102-0.479,0.102-0.792,0.102
		c-0.618,0-1.032-0.426-1.032-1.266V25.14H154.321"/>
</g>
<g>
	<path fill-rule="evenodd" clip-rule="evenodd" fill="#C61932" d="M160.877,18.75h-2.771c-0.666,0-0.852-0.168-0.852-1.14v-1.722
		c0-0.876,0.203-1.038,0.876-1.038h2.747c0.769,0,0.745,0.618,0.745,1.332v1.524C161.622,18.42,161.472,18.75,160.877,18.75
		 M160.877,38.604h-2.796c-0.75,0-0.827-0.486-0.827-1.332V22.218c0-0.654,0.186-1.068,0.696-1.068h2.754
		c0.869,0,0.918,0.354,0.918,1.068v15.054C161.622,38.118,161.622,38.604,160.877,38.604"/>
</g>
<g>
	<path fill-rule="evenodd" clip-rule="evenodd" fill="#C61932" d="M183.678,38.604c0.618,0,0.822-0.714,0.822-1.686V26.34
		c0-4.152-2.082-5.58-4.039-5.58c-1.973,0-3.084,0.936-4.211,2.79c-0.744-2.046-2.137-2.79-3.576-2.79
		c-1.801,0-2.773,0.714-3.774,2.04c0-1.488-0.414-1.65-0.953-1.65h-2.749c-0.516,0-0.696,0.516-0.696,1.164v14.898
		c0,0.84,0.234,1.392,1.033,1.392h2.592c0.743,0,0.743-0.684,0.743-1.524v-8.826c0-1.14,0.439-2.562,1.8-2.562
		c1.236,0,1.519,1.164,1.519,2.364v9.282c0,0.81,0.312,1.266,0.847,1.266h2.855c0.594,0,0.798-0.714,0.798-1.686v-9.12
		c0.181-1.038,0.643-2.106,1.776-2.106c1.23,0,1.512,1.164,1.512,2.364v9.282c0,0.81,0.132,1.266,0.978,1.266H183.678"/>
</g>
<g>
	<path fill-rule="evenodd" clip-rule="evenodd" fill="#C61932" d="M198.636,31.338h-7.248c0,2.304,1.26,3.636,3.521,3.636
		c2.106,0,3.702-0.426,4.141-0.522c0.462-0.132,0.743,0.096,0.743,0.522v2.394c0,0.75-0.18,1.044-0.846,1.236
		c-0.384,0.132-2.988,0.456-4.5,0.456c-5.556,0-7.428-3.474-7.428-9.054c0-6.456,2.082-9.414,6.708-9.414
		c4.266,0,6.276,2.664,6.276,6.654v2.532C200.004,30.882,199.926,31.338,198.636,31.338 M193.626,24
		c-1.572,0-2.107,1.758-2.13,3.246c0,0.456-0.03,0.78,0.33,0.78h3.467c0.259,0,0.288-0.294,0.288-0.744
		C195.552,25.56,195.192,24,193.626,24"/>
</g>
<g>
	<path fill-rule="evenodd" clip-rule="evenodd" fill="#FFFFFF" d="M32.076,263.694c0.522,0,0.81-0.055,0.81-0.612v-2.43
		c0-0.366,0-0.605-0.546-0.605h-4.524c-0.354,0-0.51-0.084-0.51-0.505v-14.321c0-0.69-0.24-0.877-0.876-0.877h-2.634
		c-0.504,0-0.636,0.187-0.636,0.691v17.736c0,0.654,0,0.924,0.57,0.924H32.076"/>
	<path fill-rule="evenodd" clip-rule="evenodd" fill="#FFFFFF" d="M32.076,263.694c0.522,0,0.81-0.055,0.81-0.612v-2.43
		c0-0.366,0-0.605-0.546-0.605h-4.524c-0.354,0-0.51-0.084-0.51-0.505v-14.321c0-0.69-0.24-0.877-0.876-0.877h-2.634
		c-0.504,0-0.636,0.187-0.636,0.691v17.736c0,0.654,0,0.924,0.57,0.924H32.076"/>
	<path fill-rule="evenodd" clip-rule="evenodd" fill="#FFFFFF" d="M32.076,263.694c0.522,0,0.81-0.055,0.81-0.612v-2.43
		c0-0.366,0-0.605-0.546-0.605h-4.524c-0.354,0-0.51-0.084-0.51-0.505v-14.321c0-0.69-0.24-0.877-0.876-0.877h-2.634
		c-0.504,0-0.636,0.187-0.636,0.691v17.736c0,0.654,0,0.924,0.57,0.924H32.076"/>
</g>
<g>
	<path fill-rule="evenodd" clip-rule="evenodd" fill="#FFFFFF" d="M44.31,257.767h-6.192c0,1.884,1.074,2.964,3.006,2.964
		c1.8,0,3.162-0.342,3.534-0.421c0.396-0.107,0.636,0.079,0.636,0.421v1.955c0,0.607-0.15,0.847-0.72,1.009
		c-0.33,0.102-2.55,0.372-3.846,0.372c-4.746,0-6.348-2.832-6.348-7.374c0-5.263,1.782-7.668,5.736-7.668
		c3.642,0,5.352,2.166,5.352,5.418v2.063C45.468,257.4,45.408,257.767,44.31,257.767 M40.026,251.802
		c-1.338,0-1.8,1.429-1.824,2.641c0,0.372-0.024,0.636,0.288,0.636h2.964c0.216,0,0.24-0.239,0.24-0.611
		C41.67,253.068,41.364,251.802,40.026,251.802"/>
	<path fill-rule="evenodd" clip-rule="evenodd" fill="#FFFFFF" d="M44.31,257.767h-6.192c0,1.884,1.074,2.964,3.006,2.964
		c1.8,0,3.162-0.342,3.534-0.421c0.396-0.107,0.636,0.079,0.636,0.421v1.955c0,0.607-0.15,0.847-0.72,1.009
		c-0.33,0.102-2.55,0.372-3.846,0.372c-4.746,0-6.348-2.832-6.348-7.374c0-5.263,1.782-7.668,5.736-7.668
		c3.642,0,5.352,2.166,5.352,5.418v2.063C45.468,257.4,45.408,257.767,44.31,257.767 M40.026,251.802
		c-1.338,0-1.8,1.429-1.824,2.641c0,0.372-0.024,0.636,0.288,0.636h2.964c0.216,0,0.24-0.239,0.24-0.611
		C41.67,253.068,41.364,251.802,40.026,251.802"/>
	<path fill-rule="evenodd" clip-rule="evenodd" fill="#FFFFFF" d="M44.31,257.767h-6.192c0,1.884,1.074,2.964,3.006,2.964
		c1.8,0,3.162-0.342,3.534-0.421c0.396-0.107,0.636,0.079,0.636,0.421v1.955c0,0.607-0.15,0.847-0.72,1.009
		c-0.33,0.102-2.55,0.372-3.846,0.372c-4.746,0-6.348-2.832-6.348-7.374c0-5.263,1.782-7.668,5.736-7.668
		c3.642,0,5.352,2.166,5.352,5.418v2.063C45.468,257.4,45.408,257.767,44.31,257.767 M40.026,251.802
		c-1.338,0-1.8,1.429-1.824,2.641c0,0.372-0.024,0.636,0.288,0.636h2.964c0.216,0,0.24-0.239,0.24-0.611
		C41.67,253.068,41.364,251.802,40.026,251.802"/>
</g>
<g>
	<path fill-rule="evenodd" clip-rule="evenodd" fill="#FFFFFF" d="M60.45,263.694h-6.414c-0.33,0-0.768-0.318-0.768-0.954V245.43
		c0-0.558,0.084-1.086,0.594-1.086h5.028c3.36,0,6.762,1.11,6.762,6.427v6.924C65.652,262.926,61.986,263.694,60.45,263.694
		 M61.482,251.136c0-1.793-0.924-2.957-2.55-2.957h-0.99c-0.57,0-0.636,0.155-0.636,0.611v10.332c0,0.288,0.114,0.684,0.708,0.684
		h1.008c1.338,0,2.46-0.978,2.46-3.197V251.136"/>
	<path fill-rule="evenodd" clip-rule="evenodd" fill="#FFFFFF" d="M60.45,263.694h-6.414c-0.33,0-0.768-0.318-0.768-0.954V245.43
		c0-0.558,0.084-1.086,0.594-1.086h5.028c3.36,0,6.762,1.11,6.762,6.427v6.924C65.652,262.926,61.986,263.694,60.45,263.694
		 M61.482,251.136c0-1.793-0.924-2.957-2.55-2.957h-0.99c-0.57,0-0.636,0.155-0.636,0.611v10.332c0,0.288,0.114,0.684,0.708,0.684
		h1.008c1.338,0,2.46-0.978,2.46-3.197V251.136"/>
	<path fill-rule="evenodd" clip-rule="evenodd" fill="#FFFFFF" d="M60.45,263.694h-6.414c-0.33,0-0.768-0.318-0.768-0.954V245.43
		c0-0.558,0.084-1.086,0.594-1.086h5.028c3.36,0,6.762,1.11,6.762,6.427v6.924C65.652,262.926,61.986,263.694,60.45,263.694
		 M61.482,251.136c0-1.793-0.924-2.957-2.55-2.957h-0.99c-0.57,0-0.636,0.155-0.636,0.611v10.332c0,0.288,0.114,0.684,0.708,0.684
		h1.008c1.338,0,2.46-0.978,2.46-3.197V251.136"/>
</g>
<g>
	<path fill-rule="evenodd" clip-rule="evenodd" fill="#FFFFFF" d="M77.886,257.767h-6.192c0,1.884,1.074,2.964,3.006,2.964
		c1.8,0,3.162-0.342,3.534-0.421c0.396-0.107,0.636,0.079,0.636,0.421v1.955c0,0.607-0.15,0.847-0.72,1.009
		c-0.33,0.102-2.55,0.372-3.846,0.372c-4.74,0-6.348-2.832-6.348-7.374c0-5.263,1.782-7.668,5.736-7.668
		c3.642,0,5.358,2.166,5.358,5.418v2.063C79.05,257.4,78.984,257.767,77.886,257.767 M74.352,247.339
		c-0.204,0.233-0.486,0.575-0.858,0.575h-1.296c-0.462,0-0.552-0.317-0.264-0.792l1.89-3.197c0.216-0.396,0.372-0.637,0.744-0.637
		h2.262c0.66,0,0.708,0.372,0.312,0.847L74.352,247.339 M73.602,251.802c-1.338,0-1.8,1.429-1.824,2.641
		c0,0.372-0.018,0.636,0.288,0.636h2.964c0.222,0,0.24-0.239,0.24-0.611C75.252,253.068,74.94,251.802,73.602,251.802"/>
	<path fill-rule="evenodd" clip-rule="evenodd" fill="#FFFFFF" d="M77.886,257.767h-6.192c0,1.884,1.074,2.964,3.006,2.964
		c1.8,0,3.162-0.342,3.534-0.421c0.396-0.107,0.636,0.079,0.636,0.421v1.955c0,0.607-0.15,0.847-0.72,1.009
		c-0.33,0.102-2.55,0.372-3.846,0.372c-4.74,0-6.348-2.832-6.348-7.374c0-5.263,1.782-7.668,5.736-7.668
		c3.642,0,5.358,2.166,5.358,5.418v2.063C79.05,257.4,78.984,257.767,77.886,257.767 M74.352,247.339
		c-0.204,0.233-0.486,0.575-0.858,0.575h-1.296c-0.462,0-0.552-0.317-0.264-0.792l1.89-3.197c0.216-0.396,0.372-0.637,0.744-0.637
		h2.262c0.66,0,0.708,0.372,0.312,0.847L74.352,247.339 M73.602,251.802c-1.338,0-1.8,1.429-1.824,2.641
		c0,0.372-0.018,0.636,0.288,0.636h2.964c0.222,0,0.24-0.239,0.24-0.611C75.252,253.068,74.94,251.802,73.602,251.802"/>
	<path fill-rule="evenodd" clip-rule="evenodd" fill="#FFFFFF" d="M77.886,257.767h-6.192c0,1.884,1.074,2.964,3.006,2.964
		c1.8,0,3.162-0.342,3.534-0.421c0.396-0.107,0.636,0.079,0.636,0.421v1.955c0,0.607-0.15,0.847-0.72,1.009
		c-0.33,0.102-2.55,0.372-3.846,0.372c-4.74,0-6.348-2.832-6.348-7.374c0-5.263,1.782-7.668,5.736-7.668
		c3.642,0,5.358,2.166,5.358,5.418v2.063C79.05,257.4,78.984,257.767,77.886,257.767 M74.352,247.339
		c-0.204,0.233-0.486,0.575-0.858,0.575h-1.296c-0.462,0-0.552-0.317-0.264-0.792l1.89-3.197c0.216-0.396,0.372-0.637,0.744-0.637
		h2.262c0.66,0,0.708,0.372,0.312,0.847L74.352,247.339 M73.602,251.802c-1.338,0-1.8,1.429-1.824,2.641
		c0,0.372-0.018,0.636,0.288,0.636h2.964c0.222,0,0.24-0.239,0.24-0.611C75.252,253.068,74.94,251.802,73.602,251.802"/>
</g>
<g>
	<path fill-rule="evenodd" clip-rule="evenodd" fill="#FFFFFF" d="M88.56,264.036c-1.848,0-2.88-0.714-3.558-1.77v5.838
		c0,0.581-0.156,0.978-0.528,0.978h-2.37c-0.774,0-0.84-0.288-0.84-0.894v-17.503c0-0.63,0-1.211,0.684-1.211h2.22
		c0.48,0,0.834,0.18,0.834,0.714v0.762c0.966-1.104,1.908-1.926,3.756-1.926c2.148,0,3.69,2.46,3.69,7.368
		C92.448,262.026,90.774,264.036,88.56,264.036 M88.446,255.101c0-1.584-0.462-3.113-1.554-3.113c-1.212,0-1.518,1.608-1.518,2.616
		v4.386c0,0.731,0.462,2.058,1.56,2.058c1.14,0,1.512-1.296,1.512-2.85V255.101"/>
	<path fill-rule="evenodd" clip-rule="evenodd" fill="#FFFFFF" d="M88.56,264.036c-1.848,0-2.88-0.714-3.558-1.77v5.838
		c0,0.581-0.156,0.978-0.528,0.978h-2.37c-0.774,0-0.84-0.288-0.84-0.894v-17.503c0-0.63,0-1.211,0.684-1.211h2.22
		c0.48,0,0.834,0.18,0.834,0.714v0.762c0.966-1.104,1.908-1.926,3.756-1.926c2.148,0,3.69,2.46,3.69,7.368
		C92.448,262.026,90.774,264.036,88.56,264.036 M88.446,255.101c0-1.584-0.462-3.113-1.554-3.113c-1.212,0-1.518,1.608-1.518,2.616
		v4.386c0,0.731,0.462,2.058,1.56,2.058c1.14,0,1.512-1.296,1.512-2.85V255.101"/>
	<path fill-rule="evenodd" clip-rule="evenodd" fill="#FFFFFF" d="M88.56,264.036c-1.848,0-2.88-0.714-3.558-1.77v5.838
		c0,0.581-0.156,0.978-0.528,0.978h-2.37c-0.774,0-0.84-0.288-0.84-0.894v-17.503c0-0.63,0-1.211,0.684-1.211h2.22
		c0.48,0,0.834,0.18,0.834,0.714v0.762c0.966-1.104,1.908-1.926,3.756-1.926c2.148,0,3.69,2.46,3.69,7.368
		C92.448,262.026,90.774,264.036,88.56,264.036 M88.446,255.101c0-1.584-0.462-3.113-1.554-3.113c-1.212,0-1.518,1.608-1.518,2.616
		v4.386c0,0.731,0.462,2.058,1.56,2.058c1.14,0,1.512-1.296,1.512-2.85V255.101"/>
</g>
<g>
	<path fill-rule="evenodd" clip-rule="evenodd" fill="#FFFFFF" d="M104.808,263.694h-2.238c-0.462,0-0.84-0.078-0.84-0.792v-0.852
		c-0.564,1.031-1.818,1.985-3.708,1.985c-1.998,0-3.732-2.064-3.732-7.319c0-5.287,1.536-7.692,3.864-7.692
		c1.956,0,2.946,0.66,3.576,1.956v-0.63c0-0.457,0.18-0.876,0.552-0.876h2.352c0.792,0,0.834,0.288,0.834,0.876v12.096
		C105.468,263.136,105.468,263.694,104.808,263.694 M101.364,254.467c0-0.925-0.312-2.479-1.584-2.479
		c-1.122,0-1.47,1.158-1.47,2.958v3.09c0,1.584,0.414,3.042,1.56,3.042c1.092,0,1.494-1.584,1.494-2.328V254.467"/>
	<path fill-rule="evenodd" clip-rule="evenodd" fill="#FFFFFF" d="M104.808,263.694h-2.238c-0.462,0-0.84-0.078-0.84-0.792v-0.852
		c-0.564,1.031-1.818,1.985-3.708,1.985c-1.998,0-3.732-2.064-3.732-7.319c0-5.287,1.536-7.692,3.864-7.692
		c1.956,0,2.946,0.66,3.576,1.956v-0.63c0-0.457,0.18-0.876,0.552-0.876h2.352c0.792,0,0.834,0.288,0.834,0.876v12.096
		C105.468,263.136,105.468,263.694,104.808,263.694 M101.364,254.467c0-0.925-0.312-2.479-1.584-2.479
		c-1.122,0-1.47,1.158-1.47,2.958v3.09c0,1.584,0.414,3.042,1.56,3.042c1.092,0,1.494-1.584,1.494-2.328V254.467"/>
	<path fill-rule="evenodd" clip-rule="evenodd" fill="#FFFFFF" d="M104.808,263.694h-2.238c-0.462,0-0.84-0.078-0.84-0.792v-0.852
		c-0.564,1.031-1.818,1.985-3.708,1.985c-1.998,0-3.732-2.064-3.732-7.319c0-5.287,1.536-7.692,3.864-7.692
		c1.956,0,2.946,0.66,3.576,1.956v-0.63c0-0.457,0.18-0.876,0.552-0.876h2.352c0.792,0,0.834,0.288,0.834,0.876v12.096
		C105.468,263.136,105.468,263.694,104.808,263.694 M101.364,254.467c0-0.925-0.312-2.479-1.584-2.479
		c-1.122,0-1.47,1.158-1.47,2.958v3.09c0,1.584,0.414,3.042,1.56,3.042c1.092,0,1.494-1.584,1.494-2.328V254.467"/>
</g>
<g>
	<path fill-rule="evenodd" clip-rule="evenodd" fill="#FFFFFF" d="M115.457,252.168l0.049-2.592c0-0.366-0.264-0.366-0.438-0.366
		c-1.452,0-2.483,0.66-3.384,1.849v-0.9c0-0.552-0.354-0.684-0.811-0.684h-2.352c-0.438,0-0.594,0.419-0.594,0.947v12.133
		c0,0.684,0.198,1.14,0.876,1.14h2.22c0.636,0,0.636-0.559,0.636-1.248v-7.05c0-0.792,0.685-1.669,1.65-2.221
		c0.504-0.317,1.141-0.48,1.733-0.48C115.327,252.696,115.44,252.486,115.457,252.168"/>
	<path fill-rule="evenodd" clip-rule="evenodd" fill="#FFFFFF" d="M115.457,252.168l0.049-2.592c0-0.366-0.264-0.366-0.438-0.366
		c-1.452,0-2.483,0.66-3.384,1.849v-0.9c0-0.552-0.354-0.684-0.811-0.684h-2.352c-0.438,0-0.594,0.419-0.594,0.947v12.133
		c0,0.684,0.198,1.14,0.876,1.14h2.22c0.636,0,0.636-0.559,0.636-1.248v-7.05c0-0.792,0.685-1.669,1.65-2.221
		c0.504-0.317,1.141-0.48,1.733-0.48C115.327,252.696,115.44,252.486,115.457,252.168"/>
	<path fill-rule="evenodd" clip-rule="evenodd" fill="#FFFFFF" d="M115.457,252.168l0.049-2.592c0-0.366-0.264-0.366-0.438-0.366
		c-1.452,0-2.483,0.66-3.384,1.849v-0.9c0-0.552-0.354-0.684-0.811-0.684h-2.352c-0.438,0-0.594,0.419-0.594,0.947v12.133
		c0,0.684,0.198,1.14,0.876,1.14h2.22c0.636,0,0.636-0.559,0.636-1.248v-7.05c0-0.792,0.685-1.669,1.65-2.221
		c0.504-0.317,1.141-0.48,1.733-0.48C115.327,252.696,115.44,252.486,115.457,252.168"/>
</g>
<g>
	<path fill-rule="evenodd" clip-rule="evenodd" fill="#FFFFFF" d="M123.276,252.726c0.552,0,0.576-0.293,0.576-0.846v-1.296
		c0-0.504-0.138-0.978-0.618-0.978h-1.716v-2.671c0-0.659-0.061-0.977-0.744-0.846l-1.865,0.427
		c-0.438,0.077-0.858,0.317-0.858,0.899v2.19h-0.918c-0.528,0-0.66,0.21-0.66,0.815v1.404c0,0.504,0.084,0.846,0.504,0.846h0.9
		v7.692c0.023,1.662,0.833,3.672,3.186,3.672c0.942,0,2.13-0.264,2.46-0.42c0.217-0.139-0.048-2.994-0.33-2.935
		c-0.264,0.078-0.42,0.078-0.684,0.078c-0.528,0-0.876-0.348-0.876-1.038v-6.996H123.276"/>
	<path fill-rule="evenodd" clip-rule="evenodd" fill="#FFFFFF" d="M123.276,252.726c0.552,0,0.576-0.293,0.576-0.846v-1.296
		c0-0.504-0.138-0.978-0.618-0.978h-1.716v-2.671c0-0.659-0.061-0.977-0.744-0.846l-1.865,0.427
		c-0.438,0.077-0.858,0.317-0.858,0.899v2.19h-0.918c-0.528,0-0.66,0.21-0.66,0.815v1.404c0,0.504,0.084,0.846,0.504,0.846h0.9
		v7.692c0.023,1.662,0.833,3.672,3.186,3.672c0.942,0,2.13-0.264,2.46-0.42c0.217-0.139-0.048-2.994-0.33-2.935
		c-0.264,0.078-0.42,0.078-0.684,0.078c-0.528,0-0.876-0.348-0.876-1.038v-6.996H123.276"/>
	<path fill-rule="evenodd" clip-rule="evenodd" fill="#FFFFFF" d="M123.276,252.726c0.552,0,0.576-0.293,0.576-0.846v-1.296
		c0-0.504-0.138-0.978-0.618-0.978h-1.716v-2.671c0-0.659-0.061-0.977-0.744-0.846l-1.865,0.427
		c-0.438,0.077-0.858,0.317-0.858,0.899v2.19h-0.918c-0.528,0-0.66,0.21-0.66,0.815v1.404c0,0.504,0.084,0.846,0.504,0.846h0.9
		v7.692c0.023,1.662,0.833,3.672,3.186,3.672c0.942,0,2.13-0.264,2.46-0.42c0.217-0.139-0.048-2.994-0.33-2.935
		c-0.264,0.078-0.42,0.078-0.684,0.078c-0.528,0-0.876-0.348-0.876-1.038v-6.996H123.276"/>
</g>
<g>
	<path fill-rule="evenodd" clip-rule="evenodd" fill="#FFFFFF" d="M135.402,257.767h-6.192c0,1.884,1.075,2.964,3.007,2.964
		c1.8,0,3.161-0.342,3.534-0.421c0.395-0.107,0.642,0.079,0.642,0.421v1.955c0,0.607-0.156,0.847-0.726,1.009
		c-0.331,0.102-2.551,0.372-3.846,0.372c-4.74,0-6.349-2.832-6.349-7.374c0-5.263,1.782-7.668,5.735-7.668
		c3.643,0,5.358,2.166,5.358,5.418v2.063C136.566,257.4,136.501,257.767,135.402,257.767 M131.119,251.802
		c-1.338,0-1.801,1.429-1.825,2.641c0,0.372-0.018,0.636,0.288,0.636h2.958c0.229,0,0.246-0.239,0.246-0.611
		C132.768,253.068,132.456,251.802,131.119,251.802"/>
	<path fill-rule="evenodd" clip-rule="evenodd" fill="#FFFFFF" d="M135.402,257.767h-6.192c0,1.884,1.075,2.964,3.007,2.964
		c1.8,0,3.161-0.342,3.534-0.421c0.395-0.107,0.642,0.079,0.642,0.421v1.955c0,0.607-0.156,0.847-0.726,1.009
		c-0.331,0.102-2.551,0.372-3.846,0.372c-4.74,0-6.349-2.832-6.349-7.374c0-5.263,1.782-7.668,5.735-7.668
		c3.643,0,5.358,2.166,5.358,5.418v2.063C136.566,257.4,136.501,257.767,135.402,257.767 M131.119,251.802
		c-1.338,0-1.801,1.429-1.825,2.641c0,0.372-0.018,0.636,0.288,0.636h2.958c0.229,0,0.246-0.239,0.246-0.611
		C132.768,253.068,132.456,251.802,131.119,251.802"/>
	<path fill-rule="evenodd" clip-rule="evenodd" fill="#FFFFFF" d="M135.402,257.767h-6.192c0,1.884,1.075,2.964,3.007,2.964
		c1.8,0,3.161-0.342,3.534-0.421c0.395-0.107,0.642,0.079,0.642,0.421v1.955c0,0.607-0.156,0.847-0.726,1.009
		c-0.331,0.102-2.551,0.372-3.846,0.372c-4.74,0-6.349-2.832-6.349-7.374c0-5.263,1.782-7.668,5.735-7.668
		c3.643,0,5.358,2.166,5.358,5.418v2.063C136.566,257.4,136.501,257.767,135.402,257.767 M131.119,251.802
		c-1.338,0-1.801,1.429-1.825,2.641c0,0.372-0.018,0.636,0.288,0.636h2.958c0.229,0,0.246-0.239,0.246-0.611
		C132.768,253.068,132.456,251.802,131.119,251.802"/>
</g>
<g>
	<path fill-rule="evenodd" clip-rule="evenodd" fill="#FFFFFF" d="M155.142,263.694c0.527,0,0.708-0.582,0.708-1.38v-8.61
		c0-3.384-1.782-4.548-3.45-4.548c-1.692,0-2.64,0.769-3.607,2.273c-0.635-1.667-1.817-2.273-3.047-2.273
		c-1.542,0-2.377,0.582-3.229,1.668c0-1.218-0.355-1.35-0.816-1.35h-2.346c-0.443,0-0.594,0.419-0.594,0.947v12.133
		c0,0.684,0.197,1.14,0.876,1.14h2.22c0.636,0,0.636-0.559,0.636-1.248v-7.183c0-0.93,0.372-2.088,1.537-2.088
		c1.055,0,1.296,0.948,1.296,1.926v7.561c0,0.66,0.264,1.032,0.726,1.032h2.437c0.504,0,0.684-0.582,0.684-1.38v-7.422
		c0.15-0.846,0.546-1.717,1.512-1.717c1.056,0,1.296,0.948,1.296,1.926v7.561c0,0.66,0.108,1.032,0.834,1.032H155.142"/>
	<path fill-rule="evenodd" clip-rule="evenodd" fill="#FFFFFF" d="M155.142,263.694c0.527,0,0.708-0.582,0.708-1.38v-8.61
		c0-3.384-1.782-4.548-3.45-4.548c-1.692,0-2.64,0.769-3.607,2.273c-0.635-1.667-1.817-2.273-3.047-2.273
		c-1.542,0-2.377,0.582-3.229,1.668c0-1.218-0.355-1.35-0.816-1.35h-2.346c-0.443,0-0.594,0.419-0.594,0.947v12.133
		c0,0.684,0.197,1.14,0.876,1.14h2.22c0.636,0,0.636-0.559,0.636-1.248v-7.183c0-0.93,0.372-2.088,1.537-2.088
		c1.055,0,1.296,0.948,1.296,1.926v7.561c0,0.66,0.264,1.032,0.726,1.032h2.437c0.504,0,0.684-0.582,0.684-1.38v-7.422
		c0.15-0.846,0.546-1.717,1.512-1.717c1.056,0,1.296,0.948,1.296,1.926v7.561c0,0.66,0.108,1.032,0.834,1.032H155.142"/>
	<path fill-rule="evenodd" clip-rule="evenodd" fill="#FFFFFF" d="M155.142,263.694c0.527,0,0.708-0.582,0.708-1.38v-8.61
		c0-3.384-1.782-4.548-3.45-4.548c-1.692,0-2.64,0.769-3.607,2.273c-0.635-1.667-1.817-2.273-3.047-2.273
		c-1.542,0-2.377,0.582-3.229,1.668c0-1.218-0.355-1.35-0.816-1.35h-2.346c-0.443,0-0.594,0.419-0.594,0.947v12.133
		c0,0.684,0.197,1.14,0.876,1.14h2.22c0.636,0,0.636-0.559,0.636-1.248v-7.183c0-0.93,0.372-2.088,1.537-2.088
		c1.055,0,1.296,0.948,1.296,1.926v7.561c0,0.66,0.264,1.032,0.726,1.032h2.437c0.504,0,0.684-0.582,0.684-1.38v-7.422
		c0.15-0.846,0.546-1.717,1.512-1.717c1.056,0,1.296,0.948,1.296,1.926v7.561c0,0.66,0.108,1.032,0.834,1.032H155.142"/>
</g>
<g>
	<path fill-rule="evenodd" clip-rule="evenodd" fill="#FFFFFF" d="M167.928,257.767h-6.198c0,1.884,1.08,2.964,3.013,2.964
		c1.8,0,3.162-0.342,3.533-0.421c0.396-0.107,0.637,0.079,0.637,0.421v1.955c0,0.607-0.15,0.847-0.721,1.009
		c-0.33,0.102-2.556,0.372-3.846,0.372c-4.746,0-6.349-2.832-6.349-7.374c0-5.263,1.783-7.668,5.736-7.668
		c3.643,0,5.351,2.166,5.351,5.418v2.063C169.085,257.4,169.02,257.767,167.928,257.767 M163.644,251.802
		c-1.344,0-1.8,1.429-1.823,2.641c0,0.372-0.024,0.636,0.287,0.636h2.965c0.216,0,0.239-0.239,0.239-0.611
		C165.289,253.068,164.982,251.802,163.644,251.802"/>
	<path fill-rule="evenodd" clip-rule="evenodd" fill="#FFFFFF" d="M167.928,257.767h-6.198c0,1.884,1.08,2.964,3.013,2.964
		c1.8,0,3.162-0.342,3.533-0.421c0.396-0.107,0.637,0.079,0.637,0.421v1.955c0,0.607-0.15,0.847-0.721,1.009
		c-0.33,0.102-2.556,0.372-3.846,0.372c-4.746,0-6.349-2.832-6.349-7.374c0-5.263,1.783-7.668,5.736-7.668
		c3.643,0,5.351,2.166,5.351,5.418v2.063C169.085,257.4,169.02,257.767,167.928,257.767 M163.644,251.802
		c-1.344,0-1.8,1.429-1.823,2.641c0,0.372-0.024,0.636,0.287,0.636h2.965c0.216,0,0.239-0.239,0.239-0.611
		C165.289,253.068,164.982,251.802,163.644,251.802"/>
	<path fill-rule="evenodd" clip-rule="evenodd" fill="#FFFFFF" d="M167.928,257.767h-6.198c0,1.884,1.08,2.964,3.013,2.964
		c1.8,0,3.162-0.342,3.533-0.421c0.396-0.107,0.637,0.079,0.637,0.421v1.955c0,0.607-0.15,0.847-0.721,1.009
		c-0.33,0.102-2.556,0.372-3.846,0.372c-4.746,0-6.349-2.832-6.349-7.374c0-5.263,1.783-7.668,5.736-7.668
		c3.643,0,5.351,2.166,5.351,5.418v2.063C169.085,257.4,169.02,257.767,167.928,257.767 M163.644,251.802
		c-1.344,0-1.8,1.429-1.823,2.641c0,0.372-0.024,0.636,0.287,0.636h2.965c0.216,0,0.239-0.239,0.239-0.611
		C165.289,253.068,164.982,251.802,163.644,251.802"/>
</g>
<g>
	<path fill-rule="evenodd" clip-rule="evenodd" fill="#FFFFFF" d="M181.211,263.694c0.505,0,0.679-0.582,0.679-1.38v-8.61
		c0-3.384-1.8-4.548-3.468-4.548c-1.602,0-2.592,0.66-3.384,1.746c0-1.218-0.354-1.428-0.811-1.428h-2.352
		c-0.439,0-0.595,0.419-0.595,0.947v12.133c0,0.684,0.198,1.14,0.882,1.14h2.221c0.636,0,0.636-0.559,0.636-1.248v-7.183
		c0-0.93,0.462-2.063,1.603-2.063c1.074,0,1.428,0.924,1.428,1.901v7.561c0,0.66,0.372,1.032,0.834,1.032H181.211"/>
	<path fill-rule="evenodd" clip-rule="evenodd" fill="#FFFFFF" d="M181.211,263.694c0.505,0,0.679-0.582,0.679-1.38v-8.61
		c0-3.384-1.8-4.548-3.468-4.548c-1.602,0-2.592,0.66-3.384,1.746c0-1.218-0.354-1.428-0.811-1.428h-2.352
		c-0.439,0-0.595,0.419-0.595,0.947v12.133c0,0.684,0.198,1.14,0.882,1.14h2.221c0.636,0,0.636-0.559,0.636-1.248v-7.183
		c0-0.93,0.462-2.063,1.603-2.063c1.074,0,1.428,0.924,1.428,1.901v7.561c0,0.66,0.372,1.032,0.834,1.032H181.211"/>
	<path fill-rule="evenodd" clip-rule="evenodd" fill="#FFFFFF" d="M181.211,263.694c0.505,0,0.679-0.582,0.679-1.38v-8.61
		c0-3.384-1.8-4.548-3.468-4.548c-1.602,0-2.592,0.66-3.384,1.746c0-1.218-0.354-1.428-0.811-1.428h-2.352
		c-0.439,0-0.595,0.419-0.595,0.947v12.133c0,0.684,0.198,1.14,0.882,1.14h2.221c0.636,0,0.636-0.559,0.636-1.248v-7.183
		c0-0.93,0.462-2.063,1.603-2.063c1.074,0,1.428,0.924,1.428,1.901v7.561c0,0.66,0.372,1.032,0.834,1.032H181.211"/>
</g>
<g>
	<path fill-rule="evenodd" clip-rule="evenodd" fill="#FFFFFF" d="M190.524,252.726c0.553,0,0.57-0.293,0.57-0.846v-1.296
		c0-0.504-0.133-0.978-0.618-0.978h-1.71v-2.671c0-0.659-0.065-0.977-0.744-0.846l-1.872,0.427
		c-0.439,0.077-0.857,0.317-0.857,0.899v2.19h-0.919c-0.527,0-0.659,0.21-0.659,0.815v1.404c0,0.504,0.084,0.846,0.504,0.846h0.905
		v7.692c0.019,1.662,0.834,3.672,3.181,3.672c0.942,0,2.13-0.264,2.454-0.42c0.227-0.139-0.036-2.994-0.324-2.935
		c-0.265,0.078-0.414,0.078-0.684,0.078c-0.522,0-0.877-0.348-0.877-1.038v-6.996H190.524"/>
	<path fill-rule="evenodd" clip-rule="evenodd" fill="#FFFFFF" d="M190.524,252.726c0.553,0,0.57-0.293,0.57-0.846v-1.296
		c0-0.504-0.133-0.978-0.618-0.978h-1.71v-2.671c0-0.659-0.065-0.977-0.744-0.846l-1.872,0.427
		c-0.439,0.077-0.857,0.317-0.857,0.899v2.19h-0.919c-0.527,0-0.659,0.21-0.659,0.815v1.404c0,0.504,0.084,0.846,0.504,0.846h0.905
		v7.692c0.019,1.662,0.834,3.672,3.181,3.672c0.942,0,2.13-0.264,2.454-0.42c0.227-0.139-0.036-2.994-0.324-2.935
		c-0.265,0.078-0.414,0.078-0.684,0.078c-0.522,0-0.877-0.348-0.877-1.038v-6.996H190.524"/>
	<path fill-rule="evenodd" clip-rule="evenodd" fill="#FFFFFF" d="M190.524,252.726c0.553,0,0.57-0.293,0.57-0.846v-1.296
		c0-0.504-0.133-0.978-0.618-0.978h-1.71v-2.671c0-0.659-0.065-0.977-0.744-0.846l-1.872,0.427
		c-0.439,0.077-0.857,0.317-0.857,0.899v2.19h-0.919c-0.527,0-0.659,0.21-0.659,0.815v1.404c0,0.504,0.084,0.846,0.504,0.846h0.905
		v7.692c0.019,1.662,0.834,3.672,3.181,3.672c0.942,0,2.13-0.264,2.454-0.42c0.227-0.139-0.036-2.994-0.324-2.935
		c-0.265,0.078-0.414,0.078-0.684,0.078c-0.522,0-0.877-0.348-0.877-1.038v-6.996H190.524"/>
</g>
<g>
	<path fill-rule="evenodd" clip-rule="evenodd" fill="#EF7D00" d="M110.394,207.006v11.377c0.078,0.018,0.149,0.047,0.233,0.071
		c0.661,0.181,1.32,0.348,1.986,0.498c0.055,0.012,0.114,0.019,0.175,0.036c0.348,0.071,0.701,0.145,1.056,0.21
		c0.078,0.012,0.156,0.023,0.24,0.042c0.342,0.054,0.689,0.107,1.043,0.156c3.354,0.432,6.48,0.69,9.612,0.72h1.045
		c6.611-0.054,13.367-1.152,22.458-3.811c10.212-3,15.186-3.593,18.186-3.611h0.323c0.738,0,1.356,0.042,1.908,0.09
		c6.45,0.498,20.389,5.826,31.35,2.328V52.806c0-3.234-2.646-5.88-5.88-5.88h-77.862c-3.229,0-5.874,2.646-5.874,5.88v81.162
		c0.138-0.078,0.282-0.15,0.427-0.222c0.143-0.078,0.293-0.162,0.449-0.234c1.128-0.576,2.304-1.104,3.534-1.584
		c0.108,0.426,0.155,0.876,0.144,1.332c-0.006,0.096-0.018,0.192-0.023,0.294c-0.006,0.054-0.012,0.114-0.019,0.18
		c-0.018,0.12-0.042,0.24-0.06,0.366c-0.006,0.024-0.012,0.048-0.012,0.078c-0.036,0.15-0.072,0.306-0.114,0.468
		c-0.042,0.144-0.09,0.294-0.139,0.444c-0.005,0.006-0.011,0.024-0.011,0.036c-0.055,0.132-0.109,0.27-0.162,0.408
		c-0.013,0.024-0.024,0.054-0.031,0.084c-0.065,0.138-0.131,0.282-0.197,0.432c-0.012,0.012-0.018,0.024-0.024,0.042
		c-0.474,0.96-1.128,1.956-1.932,2.958c-0.019,0.018-0.042,0.036-0.055,0.06c-0.096,0.114-0.191,0.228-0.287,0.348
		c-0.048,0.054-0.097,0.108-0.143,0.168c-0.229,0.264-0.469,0.528-0.708,0.798c-0.091,0.096-0.181,0.192-0.271,0.288
		c-0.084,0.084-0.168,0.168-0.252,0.258c-0.042,0.036-0.078,0.078-0.114,0.12v50.274c0.006,0.006,0.012,0.019,0.024,0.029
		c0.018,0.024,0.048,0.055,0.071,0.084c0.318,0.385,0.643,0.75,0.961,1.099c0.521,0.576,1.038,1.116,1.547,1.649
		c0.192,0.199,0.385,0.403,0.576,0.606c0.546,0.589,1.081,1.189,1.603,1.854c0.09,0.115,0.18,0.229,0.271,0.349
		c0.239,0.317,0.479,0.654,0.719,1.014c0.157,0.24,0.312,0.492,0.475,0.762c0.107,0.181,0.216,0.366,0.33,0.564
		c0.174,0.318,0.348,0.66,0.527,1.02c0.097,0.193,0.192,0.396,0.288,0.607c0.282,0.624,0.564,1.314,0.847,2.07
		c0.276,0.75,0.546,1.572,0.815,2.472c-0.636,0.594-1.218,1.021-1.775,1.32c-0.042,0.018-0.084,0.042-0.12,0.066
		c-0.048,0.018-0.102,0.042-0.144,0.065c-0.078,0.03-0.15,0.061-0.223,0.097c-0.036,0.011-0.072,0.023-0.102,0.042
		c-0.084,0.029-0.162,0.06-0.24,0.089c-0.108,0.03-0.21,0.061-0.312,0.091l-0.018,0.006c-0.21,0.048-0.42,0.084-0.63,0.114
		c-0.03,0-0.061,0.006-0.084,0.012c-0.21,0.019-0.42,0.03-0.631,0.036h-0.197c-0.21-0.006-0.414-0.018-0.624-0.03
		c-0.24-0.024-0.479-0.054-0.726-0.078c-0.223-0.029-0.45-0.054-0.685-0.084c-0.174-0.024-0.348-0.048-0.522-0.066
		c-0.149-0.023-0.293-0.042-0.443-0.06c-0.042-0.006-0.084-0.019-0.12-0.019c-0.438-0.053-0.9-0.102-1.393-0.131
		C110.436,207.006,110.413,207.006,110.394,207.006"/>
</g>
<g>
	<path fill-rule="evenodd" clip-rule="evenodd" fill="#FFFFFF" d="M140.064,117.834l0.3,0.6c0.408-0.126,0.786-0.192,1.134-0.21
		h0.337c1.182,0.036,1.913,0.624,2.231,0.996c0.186,0.228,0.348,0.474,0.474,0.75c0.925,1.89,0.427,4.752-0.779,6.564
		c-0.996,1.494-2.412,2.298-3.96,2.298c-0.469-0.006-0.942-0.078-1.423-0.222c-1.338-0.42-2.514-2.034-3.119-3.282
		c-0.39-0.822-0.966-2.388-0.45-3.69C135.198,120.636,136.961,119.358,140.064,117.834 M122.19,128.592
		c4.434-0.036,8.592,1.746,10.974,2.328c2.022,0.486,3.811,0.924,6.444,0.948h0.673c0.228-0.006,0.467-0.018,0.713-0.024
		c3.36-0.144,6.925-4.2,10.194-7.188c3.612-3.3,6.684-5.208,10.41-7.416l0.811,0.012c0,0,0.053,0.45,0.149,1.872
		c-1.194,2.382-4.561,6.522-7.458,9.21c-2.903,2.688-6.486,5.004-7.08,7.83c-0.312,1.482,0.162,3.114,1.44,4.992
		c0.361,0.462,2.719,2.118,4.434,3.324c2.388,1.68,4.649,3.264,5.508,4.199c2.467,2.664,4.734,3.936,6.402,4.86
		c1.536,0.858,2.748,1.536,2.994,2.874c0.245,1.278-0.54,2.556-1.794,4.092l-0.612,0.738l-0.857-0.407
		c-9.738-4.62-12.949-8.077-16.338-11.736c-1.44-1.542-3.042-3.18-5.083-4.957c-1.158,2.382-2.37,4.945-3.09,7.404l-0.294,1.008
		c-1.38,4.711-2.688,9.157-2.479,14.323l-0.023,0.797l-1.89,1.003c-1.338,0.762-2.599,1.476-4.884,0.576l-0.703-0.277l-0.066-0.75
		c-0.396-4.145,0.354-6.018,1.135-7.991c0.599-1.5,1.218-3.054,1.409-5.988c0.204-3.048,1.488-5.826,2.616-8.28
		c1.266-2.742,2.334-5.118,1.728-7.169l-0.042-0.036c-1.2-1.266-1.668-1.53-1.83-1.578l-1.74-0.318
		c-3.905-0.696-11.123-2.286-13.223-5.958l-0.643-2.31L122.19,128.592"/>
	<path fill-rule="evenodd" clip-rule="evenodd" fill="#FFFFFF" d="M140.064,117.834l0.3,0.6c0.408-0.126,0.786-0.192,1.134-0.21
		h0.337c1.182,0.036,1.913,0.624,2.231,0.996c0.186,0.228,0.348,0.474,0.474,0.75c0.925,1.89,0.427,4.752-0.779,6.564
		c-0.996,1.494-2.412,2.298-3.96,2.298c-0.469-0.006-0.942-0.078-1.423-0.222c-1.338-0.42-2.514-2.034-3.119-3.282
		c-0.39-0.822-0.966-2.388-0.45-3.69C135.198,120.636,136.961,119.358,140.064,117.834 M122.19,128.592
		c4.434-0.036,8.592,1.746,10.974,2.328c2.022,0.486,3.811,0.924,6.444,0.948h0.673c0.228-0.006,0.467-0.018,0.713-0.024
		c3.36-0.144,6.925-4.2,10.194-7.188c3.612-3.3,6.684-5.208,10.41-7.416l0.811,0.012c0,0,0.053,0.45,0.149,1.872
		c-1.194,2.382-4.561,6.522-7.458,9.21c-2.903,2.688-6.486,5.004-7.08,7.83c-0.312,1.482,0.162,3.114,1.44,4.992
		c0.361,0.462,2.719,2.118,4.434,3.324c2.388,1.68,4.649,3.264,5.508,4.199c2.467,2.664,4.734,3.936,6.402,4.86
		c1.536,0.858,2.748,1.536,2.994,2.874c0.245,1.278-0.54,2.556-1.794,4.092l-0.612,0.738l-0.857-0.407
		c-9.738-4.62-12.949-8.077-16.338-11.736c-1.44-1.542-3.042-3.18-5.083-4.957c-1.158,2.382-2.37,4.945-3.09,7.404l-0.294,1.008
		c-1.38,4.711-2.688,9.157-2.479,14.323l-0.023,0.797l-1.89,1.003c-1.338,0.762-2.599,1.476-4.884,0.576l-0.703-0.277l-0.066-0.75
		c-0.396-4.145,0.354-6.018,1.135-7.991c0.599-1.5,1.218-3.054,1.409-5.988c0.204-3.048,1.488-5.826,2.616-8.28
		c1.266-2.742,2.334-5.118,1.728-7.169l-0.042-0.036c-1.2-1.266-1.668-1.53-1.83-1.578l-1.74-0.318
		c-3.905-0.696-11.123-2.286-13.223-5.958l-0.643-2.31L122.19,128.592"/>
	<path fill-rule="evenodd" clip-rule="evenodd" fill="#FFFFFF" d="M140.064,117.834l0.3,0.6c0.408-0.126,0.786-0.192,1.134-0.21
		h0.337c1.182,0.036,1.913,0.624,2.231,0.996c0.186,0.228,0.348,0.474,0.474,0.75c0.925,1.89,0.427,4.752-0.779,6.564
		c-0.996,1.494-2.412,2.298-3.96,2.298c-0.469-0.006-0.942-0.078-1.423-0.222c-1.338-0.42-2.514-2.034-3.119-3.282
		c-0.39-0.822-0.966-2.388-0.45-3.69C135.198,120.636,136.961,119.358,140.064,117.834 M122.19,128.592
		c4.434-0.036,8.592,1.746,10.974,2.328c2.022,0.486,3.811,0.924,6.444,0.948h0.673c0.228-0.006,0.467-0.018,0.713-0.024
		c3.36-0.144,6.925-4.2,10.194-7.188c3.612-3.3,6.684-5.208,10.41-7.416l0.811,0.012c0,0,0.053,0.45,0.149,1.872
		c-1.194,2.382-4.561,6.522-7.458,9.21c-2.903,2.688-6.486,5.004-7.08,7.83c-0.312,1.482,0.162,3.114,1.44,4.992
		c0.361,0.462,2.719,2.118,4.434,3.324c2.388,1.68,4.649,3.264,5.508,4.199c2.467,2.664,4.734,3.936,6.402,4.86
		c1.536,0.858,2.748,1.536,2.994,2.874c0.245,1.278-0.54,2.556-1.794,4.092l-0.612,0.738l-0.857-0.407
		c-9.738-4.62-12.949-8.077-16.338-11.736c-1.44-1.542-3.042-3.18-5.083-4.957c-1.158,2.382-2.37,4.945-3.09,7.404l-0.294,1.008
		c-1.38,4.711-2.688,9.157-2.479,14.323l-0.023,0.797l-1.89,1.003c-1.338,0.762-2.599,1.476-4.884,0.576l-0.703-0.277l-0.066-0.75
		c-0.396-4.145,0.354-6.018,1.135-7.991c0.599-1.5,1.218-3.054,1.409-5.988c0.204-3.048,1.488-5.826,2.616-8.28
		c1.266-2.742,2.334-5.118,1.728-7.169l-0.042-0.036c-1.2-1.266-1.668-1.53-1.83-1.578l-1.74-0.318
		c-3.905-0.696-11.123-2.286-13.223-5.958l-0.643-2.31L122.19,128.592"/>
</g>
</svg>
