<!-- Generator: Adobe Illustrator 17.1.0, SVG Export Plug-In  -->
<svg version="1.1"
	 xmlns="http://www.w3.org/2000/svg" xmlns:xlink="http://www.w3.org/1999/xlink" xmlns:a="http://ns.adobe.com/AdobeSVGViewerExtensions/3.0/"
	 x="0px" y="0px" width="161.815px" height="373.34px" viewBox="0 0 161.815 373.34" enable-background="new 0 0 161.815 373.34"
	 xml:space="preserve">
<defs>
</defs>
<polygon fill="#FFFFFF" points="0,0 0,293.047 0,293.148 0,373.34 161.815,356.187 161.815,293.148 161.815,293.047 161.815,0 "/>
<rect x="6.945" y="5.632" fill="#004899" width="148.227" height="275.547"/>
<polygon fill="#BD1D1D" points="6.945,365.562 155.172,347.513 155.172,281.073 6.945,281.073 "/>
<g>
	<path fill="#FFFFFF" d="M55.716,255.578c-7.507,0-11.162,4.256-11.162,13.013c0,8.758,3.654,13.01,11.162,13.01
		c7.514,0,11.162-4.252,11.162-13.01C66.878,259.834,63.23,255.578,55.716,255.578z M55.716,279.369
		c-3.526,0-5.172-3.424-5.172-10.778c0-7.353,1.646-10.773,5.172-10.773c3.533,0,5.175,3.42,5.175,10.773
		C60.891,275.945,59.249,279.369,55.716,279.369z"/>
	<path fill="#FFFFFF" d="M92.326,255.581l-9.188,1.305v1.569h0.205c1.758,0,3.635,0.313,3.635,4.052v6.779
		c0,3.333-2.963,8.642-5.428,8.642c-2.604,0-3.689-1.108-3.689-7.952v-14.429l-9.419,1.339v1.569h0.204
		c1.758,0,3.636,0.313,3.636,4.052v11.792c0,3.793,0.852,7.302,7.015,7.302c4.346,0,6.591-3.752,7.682-5.857
		c0,1.037,0,5.286,0,5.286h9.419v-1.566h-0.203c-1.758,0-3.636-0.31-3.636-4.052v-19.864L92.326,255.581z"/>
	<path fill="#FFFFFF" d="M130.485,255.581l-9.187,1.305v1.569h0.203c1.758,0,3.637,0.313,3.637,4.052v12.539
		c0,3.519-0.746,4.428-3.637,4.428h-0.203v1.597h13.257v-1.597h-0.202c-2.892,0-3.637-0.909-3.637-4.428v-7.148
		c0-3.336,3.3-8.644,6.046-8.644c2.163,0,3.072,1.103,3.072,7.95v7.842c0,3.519-0.75,4.428-3.637,4.428h-0.203v1.597h13.256v-1.597
		h-0.199c-2.892,0-3.641-0.909-3.641-4.428v-12.162c0-3.795-0.771-7.306-6.396-7.306c-4.735,0-7.143,3.804-8.299,5.899
		c0-0.996,0-5.931,0-5.931L130.485,255.581z"/>
	<path fill="#FFFFFF" d="M118.184,267.468c0.343-8.186-2.691-11.89-9.572-11.89c-7.136,0-10.904,4.204-10.904,12.159
		c0,8.814,4.646,13.863,12.749,13.863c3.486,0,6.236-1.047,7.137-1.395l0.133-0.053v-2.374l-0.275,0.107
		c-1.565,0.603-3.081,0.895-4.637,0.895c-6.646,0-9.106-6.826-9.106-11.101c0.413,0,14.477,0,14.477,0V267.468z M103.707,265.07
		c0-2.696,0.312-7.253,4.702-7.253c4.025,0,4.141,3.355,4.192,7.253C112.204,265.07,104.107,265.07,103.707,265.07z"/>
	<path fill="#FFFFFF" d="M51.338,286.883c-7.464,0-12.702-12.167-12.702-12.167s-4.515-10.264-5.316-11.003
		c5.153-0.953,8.077-2.513,8.077-9.448c0-8.288-9.71-9.18-13.882-9.18H13.741h-0.216v1.754h0.216c3.676,0,4.326,0.712,4.326,4.758
		v22.958c0,4.046-0.65,4.753-4.326,4.753h-0.216v1.763h15.377v-1.763h-0.211c-3.68,0-4.328-0.707-4.328-4.753c0,0,0-9.632,0-10.04
		c0.355,0,2.578,0.017,2.569,0c1.195,0.828,4.314,9.601,8.137,16.357c3.856,6.853,9.235,8.555,11.757,8.555
		c3.552,0,5.055-1.399,5.055-1.399l-0.332-1.145H51.338z M27.41,261.635c0,0-2.675,0-3.047,0c0-0.404,0-10.038,0-10.038
		c0-2.992,0.272-3.637,3.152-3.637c5.028,0,7.372,2.226,7.372,6.998C34.887,259.449,32.439,261.635,27.41,261.635z"/>
</g>
<path fill="#F9B000" d="M73.625,68.562c1.037-0.306,2.928,0.062,2.805-1.463c-2.562-5.12-8.052-7.988-13.659-7.5
	c-0.429,0.061-1.159,0.61-0.978,1.157C63.318,66.002,68.925,67.831,73.625,68.562z M155.172,43.028V28.587
	c-5.458,8.741-39.851,54.297-39.851,54.297s5.725-2.153,8.49-1.995c-0.04-0.112-10.533,15.684-16.184,22.415
	c-11.959,17.252-25.55,34.031-37.692,51.04v0.017c-0.597,0.839-1.184,1.763-0.261,1.558c0,0,6.856-1.679,13.713-3.357
	c6.852-1.673,4.055-2.793-1.12-3.216c-5.177-0.415,16.225-25.179,20.004-30.494c3.775-5.314,8.258-8.903,15.147-12.199
	c4.14-1.98,21.812-3.741,37.753-4.953v-4.308c-7.079,0.256-12.388,0.443-13.873,0.48c-5.739,0.14-17.35,1.678-25.181,1.678
	l-1.81,0.059c6.848-8.938,13.438-18.029,14.692-19.723c9.587-2.844,18.15-1.363,26.171,0.72v-4.702
	c-8.846-2.059-17.714-3.46-29.268-0.313c0.019-0.008,4.289-4.63,4.328-4.63c1.764-1.404,10.279-1.143,10.279-1.143
	s3.507-6.072,3.609-6.072c-1.003-2.904-6.795-1.562-6.795-1.562s2.946-5.891,6.192-6.372c2.044-0.122,6.512,0.021,6.512,0.021
	l3.59-6.754c0,0-1.384-2.766-5.176-1.743c0.082-0.12,2.293-3.605,2.293-3.605C152.438,43.095,153.944,42.954,155.172,43.028z
	 M43.072,69.096c-7.002,17.319-9.998,62.743,16.341,85.207c0,0-8.809,2.236-9.319,2.39c-1.05,0.313-3.92,0.828-5.381,4.553
	c-1.462,3.725-3.921,10.131-4.132,10.968c-0.208,0.844-3.146,8.193,0.211,8.193c0,0,5.642-13.789,6.331-15.145
	c0.756-1.49,2.691-4.167,5.419-5.006c0,0,3.729-1.186,7.581-2.406c0,0,5.679-7.227,6.446-8.672
	c-24.163-14.339-31.83-57.172-16.056-82.996v-0.729c-6.261,0.365-9.084-5.181-10.426-8.169c1.707-1.528,9.274-5.169,14.511-0.185
	c7.511-19.738,27.62-12.801,30.426-10.485c6.219,4.204,7.581,11.95,6.973,19.448c0,5.246,5.344,9.637,3.819,15.185
	c-1.147,3.385-5.465,10.519-16.229,8.863c-9.207-2.562-15.535-9.534-21.208-17.768c0,0-0.306-0.37-0.737-0.122
	c-0.431,0.249-0.349,0.988-0.24,1.465c7.27,20.853,30.047,30.496,43.93,29.555c1.13-1.498,2.298-3.105,2.784-3.878
	c-0.807-0.065-14.175,1.672-18.53-5.065c-1.342-2.136,2.656-0.251,6.757-2.2c7.984-4.011,8.913-13.111,7.496-16.707
	c-1.06-2.689-4.325-9.022-3.535-14.452c5.83-2.749,7.864-8.653,5.854-10.42c-3.473-1.223-7.561-0.917-10.548-3.36
	c-6.033-9.213-31.778-11.342-40.669,3.659c-2.867-0.978-12.009-1.522-16.217,5.125C35.264,62.429,39.838,66.987,43.072,69.096z
	 M92.753,170.604c6.421-2.5,14.079-8.459,15.381-21.912c-4.553,7.806-6.526,14.431-16.18,15.482
	c-9.653,1.05-26.739,0.594-29.208,0.671c-2.471,0.076-8.068,0.766-10.202,2.125c-2.134,1.359-5.247,7.766-5.247,7.766
	c0.422,1.467,0.839,3.567,1.679,2.518c0.841-1.051,5.035-5.668,5.035-5.668c1.262-0.422,2.936-0.21,1.889,1.258
	c-1.048,1.472-18.671,24.758-18.671,24.758c-2.37,2.896-1.469,5.461-1.469,5.461c3.985-4.202,14.813-16.995,14.813-16.995
	c2.937,3.99,8.701,11.485,9.33,12.738c0.632,1.256,1.667,2.502,0.405,3.763c-0.616,0.617-2.671,2.716-3.315,3.643
	c-0.159,0.23-7.006-11.811-7.157-11.582c-0.474,0.726-1.103,2.153,0.13,3.646c1.237,1.493,5.235,9.947,5.738,14.582
	c3.523-2.182,9.292-8.842,9.867-12.356c-2.196-1.398-8.362-13.467-9.162-15.259c-1.03-2.305-0.086-5.051,0.749-6.31
	c0.844-1.258,6.714-9.439,6.714-9.439c5.667,1.671,16.38,2.638,20.696,2.768c0.453,0.014,1.057-0.009,1.763-0.079
	c3.47,7.245,15.418,31.874,20.006,37.227C100.824,192.383,94.636,175.642,92.753,170.604z M103.435,166.779
	c0,0,2.939,16.56,2.939,22.854c0,6.292,3.356,12.38,3.989,13.217c0.629,0.844,3.535,12.763,3.535,15.701
	c0,2.938-1.35,8.86-2.186,10.12c-0.422,0.63-2.258,1.624-3.909,2.725c-1.71,1.075-0.461-7.939-0.87-7.605
	c-0.997,0.807-3.042,8.126-1.938,11.795c0.633,2.097,0.633,2.518,3.779,1.05c3.146-1.468,8.181-5.247,8.181-5.247
	c-0.838-3.359-0.838-6.505,0.421-7.76c1.263-1.264,2.52-5.461,0.628-9.446c-1.887-3.986-3.357-10.488-3.984-14.061
	c-0.629-3.564-3.365-17.193-2.875-27.015c7.051-1.215,12.468-1.819,16.093-1.52c2.266,0.19,16.406,1.008,27.934,0.368v-7.597
	C135.139,167.839,112.427,163.755,103.435,166.779z"/>
</svg>
