<!-- Generator: Adobe Illustrator 19.0.0, SVG Export Plug-In  -->
<svg version="1.1"
	 xmlns="http://www.w3.org/2000/svg" xmlns:xlink="http://www.w3.org/1999/xlink" xmlns:a="http://ns.adobe.com/AdobeSVGViewerExtensions/3.0/"
	 x="0px" y="0px" width="304.2px" height="287.5px" viewBox="0 0 304.2 287.5" style="enable-background:new 0 0 304.2 287.5;"
	 xml:space="preserve">
<style type="text/css">
	.st0{fill:#FFFFFF;}
	.st1{fill:#D20A28;}
	.st2{fill:#720918;}
	.st3{fill:#FFDC00;}
</style>
<defs>
</defs>
<g>
	<rect class="st0" width="304.2" height="287.5"/>
	<g>
		<path d="M75.3,206.5c0-1.7-0.6-5.7-6.1-5.7c0,0,0,0,0,0l-6.8,0l0,17.5l1.5,0l0-5.8l4.7,0c0.5,0,0.9,0,1.4-0.1l4.3,5.9l1.8,0
			l-4.6-6.2C73.9,211.4,75.3,209.4,75.3,206.5z M63.8,211.2l0-8.9l5.3,0c0,0,0,0,0,0c1.6,0,2.9,0.4,3.6,1.3c0.7,0.7,1,1.8,1,3
			c0,3.8-2.9,4.6-5.3,4.6L63.8,211.2z"/>
		<polygon points="82.3,216.9 82.2,210.5 91,210.5 91,209.1 82.2,209.1 82.2,202.3 92.5,202.2 92.5,200.8 80.8,200.8 80.8,218.3 
			93,218.3 93,216.9 		"/>
		<polygon points="91.8,196 90,195.8 85.7,200.1 87.4,200.1 		"/>
		<path d="M105.8,209.9l0,1.4l6.8,0l0,3.8c-1.7,1.3-3.8,1.9-6.1,1.9c0,0,0,0,0,0c-4.2,0-7.7-3.3-7.7-7.4c0-2,0.8-3.8,2.2-5.2
			c1.5-1.4,3.4-2.2,5.4-2.2c0,0,0,0,0,0c2.3,0,4.4,0.7,5.9,2.1l0.2,0.2l1-1.1l-0.2-0.2c-1.8-1.6-4.1-2.5-6.8-2.5c0,0,0,0,0,0
			c-2.4,0-4.7,0.9-6.5,2.6c-1.7,1.7-2.7,3.9-2.7,6.2c0,4.9,4.1,8.8,9.2,8.8c0,0,0,0,0,0c2.8,0,5.5-0.9,7.5-2.6l0.1-0.1l0-5.9
			L105.8,209.9z"/>
		<rect x="111.9" y="208.8" transform="matrix(-2.594354e-03 -1 1 -2.594354e-03 -88.5514 330.6511)" width="17.5" height="1.5"/>
		<path d="M136.1,200.6C136,200.6,136,200.6,136.1,200.6c-2.5,0-4.8,0.9-6.5,2.6c-1.7,1.7-2.7,3.9-2.7,6.2c0,4.9,4.1,8.8,9.2,8.8
			c0,0,0,0,0,0c5.1,0,9.1-4,9.1-8.8c0-2.4-1-4.6-2.7-6.2C140.8,201.5,138.5,200.6,136.1,200.6z M136.1,202.1c4.2,0,7.7,3.3,7.7,7.4
			c0,4.1-3.4,7.4-7.7,7.4c0,0,0,0,0,0c-4.2,0-7.7-3.3-7.7-7.3c0-2,0.8-3.8,2.2-5.2C132.1,202.9,134,202.1,136.1,202.1
			C136,202.1,136.1,202.1,136.1,202.1z"/>
		<polygon points="165.1,200.6 163.7,200.6 163.7,215.3 151.7,200.7 150.7,200.7 150.8,218.1 152.2,218.1 152.2,203.5 164.1,218 
			164.2,218.1 165.2,218.1 		"/>
	</g>
	<g>
		<polygon points="39.5,226.7 39.6,248.8 21.6,226.8 18.5,226.8 18.6,257 22.9,257 22.8,235 40.9,257 43.9,257 43.8,226.7 		"/>
		<path d="M66.7,226.5C66.7,226.5,66.6,226.5,66.7,226.5c-4.3,0-8.2,1.6-11.2,4.5c-3,2.9-4.6,6.7-4.6,10.8c0,8.4,7.1,15.2,15.8,15.2
			c0,0,0,0,0,0c4.2,0,8.2-1.6,11.1-4.5c3-2.9,4.6-6.7,4.6-10.8C82.4,233.4,75.4,226.5,66.7,226.5z M66.7,252.8
			c-3.1,0-5.9-1.1-8.1-3.2c-2.2-2.1-3.4-4.8-3.4-7.7c0-6.1,5.1-11,11.5-11c0,0,0,0,0,0c6.3,0,11.4,4.9,11.5,11
			c0,2.9-1.2,5.7-3.3,7.7C72.7,251.6,69.8,252.8,66.7,252.8C66.7,252.8,66.7,252.8,66.7,252.8z"/>
		<path d="M112.3,236.7c0-2.8-0.9-5.3-2.5-7c-1.9-2.1-4.7-3.1-8.4-3.1c0,0,0,0-0.1,0l-11.9,0l0.1,30.2l4.3,0l0-9.4l6.6,0
			c0.6,0,1.2,0,1.8-0.1l7,9.5l5.3,0l-7.9-10.5C110.4,244.6,112.4,241.3,112.3,236.7z M93.8,243.2l0-12.4l7.6,0c0,0,0,0,0,0
			c2.3,0,4.1,0.6,5.2,1.8c1.2,1.3,1.4,3,1.4,4.2c0,2.2-0.6,3.8-2,4.9c-1.3,1-3.2,1.5-5.6,1.5L93.8,243.2z"/>
		<polygon points="145.5,226.5 134,245.3 122.5,226.5 119.3,226.5 119.4,256.8 123.7,256.7 123.6,236.4 134.1,253.4 144.4,236.3 
			144.4,256.7 148.7,256.7 148.7,226.5 		"/>
		<path d="M167.2,226.4l-13.6,30.3l4.7,0l3.5-7.9l13.8,0l3.6,7.9l4.6,0l-13.7-30.2L167.2,226.4z M163.6,244.6l5-11.5l5.2,11.5
			L163.6,244.6z"/>
		<polygon points="209.6,226.3 209.7,248.3 191.7,226.3 188.6,226.3 188.7,256.6 193,256.6 192.9,234.5 211,256.5 214,256.5 
			213.9,226.3 		"/>
		<path d="M232.2,226.2C232.2,226.2,232.2,226.2,232.2,226.2l-9.9,0l0.1,30.2l10.7,0l0.1,0c8-0.5,14.2-7.2,14.2-15.1
			C247.4,233,240.6,226.2,232.2,226.2z M226.7,252.3l-0.1-21.8l5.6,0c0,0,0,0,0,0c2.9,0,5.6,1.1,7.7,3.2c2.1,2.1,3.2,4.8,3.2,7.7
			c0,5.6-4.4,10.4-10.1,10.9L226.7,252.3z"/>
		<rect x="241.5" y="239.1" transform="matrix(-2.593485e-03 -1 1 -2.593485e-03 15.9664 498.5013)" width="30.2" height="4.3"/>
		<polygon points="288.9,252.1 271.5,252.1 271.5,243.7 285.6,243.7 285.6,239.5 271.5,239.6 271.4,230.3 288,230.3 288,226.1 
			267.1,226.1 267.2,256.4 288.9,256.3 		"/>
	</g>
	<g>
		<g>
			<path class="st1" d="M254.4,197.1c-64.9-6.5-129.8-13-194.7-19.5c-14.1-40.8-8.9-88.8,16.1-131c54.2-5.4,108.4-10.8,162.6-16.3
				C218.9,82.4,224.1,143.6,254.4,197.1z"/>
		</g>
		<g>
			<g>
				<g>
					<g>
						<path class="st2" d="M195.4,80.2c6.5,0.4,12.3-2,14.8-6.1c1.8-2.9,1.7-6.2-0.1-9.3c-2.2-3.7-6.1-6.3-11.3-7.5
							c-4.7-1.1-10.2-0.5-15.3,0.8c-2.3,0.6-4.7,1.3-7.5,2.2c-4.6,1.6-9.6,3.3-15.9,4.7c-2.8,0.6-5.3-0.1-6.2-0.6
							c-0.1-0.1-0.6-0.7-0.5-1c0.1-0.3,1-1,3.9-1c12.8-0.1,16.4-6.7,16.8-7.5c0.2-0.4,0.1-0.8-0.2-1.1c-0.3-0.2-0.8-0.3-1.1-0.1
							c-2.6,1.7-7.4,2.4-8.3,2c-0.5-0.3-0.9-0.6-1.3-1.1c-0.8-0.9-1.7-2-4.3-2.3c-0.4,0-1,0-1.1,0.2c-0.1,0.2,0.2,1,0.5,1.3
							c1.4,1.3,1.3,2.2,1.1,2.4c-0.1,0.1-0.1,1.2-0.9-0.2c-1.6-2.6-4.2-2.3-5.7-1.9c-0.3,0.1-0.4,0.1-0.4,0.5c0,0.3,0.2,0.9,0.4,1
							c-1.5-0.3-3.2,0.5-3.9,1.2c-0.2,0.3,0,0.8,0.2,1.1c0.1,0.2,0.2,0.3,0.4,0.3c-1.9,1.5-3,3.3-2.7,5.3c0.9,4.9,5.9,7.2,13.8,6.3
							c4.7-0.5,9-2,14.1-3.8c2.9-1,6.3-2.2,10.1-3.3c6.2-1.8,12.4-1.4,16.6,1c2.1,1.2,3.5,2.8,4,4.7c0.3,1.2,0,2.5-0.9,3.6
							c-0.9,1.1-3.3,3.6-8.7,3.3c-4.9-0.2-7.5-0.7-11.3-1.3c-2.8-0.5-6.4-1.1-12-1.8c-4.8-0.6-9-0.3-12.4-0.2
							c-1,0.1-1.9,0.1-2.8,0.1c-3.7,0.1-4.9,0.1-7.3-0.2c-5-0.8-8.3-2.5-8.5-3.1c0-0.4,1.3-1.1,2.7-1.3c0.4-0.1,0.7-0.4,0.7-0.8
							c0-0.4-0.3-0.7-0.7-0.8c-0.7-0.1-2.6-0.8-2.7-1.8c-0.1-1.3-0.3-2.8-0.9-4c0,0,0-0.1,0-0.1c0.8-1.5,0.6-3,0.3-3.7
							c-0.1-0.4-0.4-1.2-0.9-1.5c-0.6-0.3-2.6-0.1-4,1c-2.2-0.9-4.2-1-4.8-1c0,0-0.1,0-0.1,0l-0.1,0c0,0,0,0-0.1,0c0,0-0.1,0-0.1,0
							c-0.6,0-2.8,0.1-5,1.1c-1.4-1.2-3.5-1.4-4.1-1.1c-0.5,0.3-0.8,1.1-0.9,1.5c-0.2,0.7-0.5,2.2,0.3,3.7c0.1,0.1,0.2,0.3,0.2,0.4
							c-0.4,1-0.3,2.2-0.4,3.8c-0.1,0.8-2.1,1.5-3,1.7c-0.3,0.1-0.8,0.2-0.8,0.5c-0.1,0.4,0.4,1,0.8,1.1c1.5,0.4,2.7,1.1,2.7,1.4
							c-0.2,1.2-2.4,2.1-3.1,2.4c-0.4,0.1-0.6,0.3-0.6,0.7c0,0.4,0.5,0.9,0.9,0.9c0.9,0.1,2.7,0.5,2.9,1.3c0.1,0.2-0.2,1-0.7,1.5
							c-4.2,0.1-10.9-2.6-11.4-2.8c-2.1-1-5.6-2.9-6.2-3.4c-1.1-0.8-4.6-4-5.6-5.6c-0.4-0.9-0.8-1.5-1.2-2c-0.8-0.9-1.9-1.4-3.2-1.5
							c-0.3-0.4-0.5-0.7-0.6-0.9c-0.9-1.1-2.8-1.4-6-0.7c-0.1-0.1-0.3-0.2-0.4-0.3c-1.8-1.3-4.7,0.8-5,1.1c-0.3,0.2-0.2,0.6-0.1,1
							c0.1,0.3,0.5,0.5,0.9,0.5c0.5-0.1,1.2-0.1,1.4,0c0.1,0.1,0.8,1.1,0.8,1.3c-0.5,0.3-1.1,0.5-1.2,0.6c-0.3,0.2-0.2,0.6-0.1,1
							c0.1,0.3,0.4,0.6,0.8,0.6c0.8,0,1.8,0.1,2,0.3c0.1,0,1,1.1,1,1.1c0,0,0,0.1,0.1,0.1l0.3,0.4c-0.6,0.3-1.2,0.5-1.3,0.6
							c-0.3,0.2-0.2,0.7-0.1,1c0.1,0.3,0.5,0.6,0.8,0.6c0.8,0,1.8,0.1,2,0.3c0,0,0.5,0.9,0.6,1c0.4,0.9,0.9,1.7,1.4,2.2
							c0.8,0.8,1.8,1.1,2.7,1.4c0.9,0.3,1.8,0.5,2.6,1.2c0.1,0.1,0.3,0.2,0.5,0.4c0.2,0.2,0.5,0.4,0.9,0.7c0.5,0.4,0.7,0.8,0.7,0.9
							c0,0.2-0.3,0.2-0.5,0.4c-0.3,0.2-0.3,0.8-0.1,1.2c0.2,0.3,0.5,0.5,0.9,0.5c2.1-0.4,3.5,0,3.6,0.4c0.1,0.3-0.4,0.8-1.3,1.4
							c-0.3,0.2-0.4,0.8-0.2,1.2c0.2,0.4,0.6,0.5,1,0.4c2.4-0.9,4.3-0.7,4.6-0.1c0.1,0.3-0.4,1.1-1.8,2c-0.4,0.2-0.4,0.8-0.2,1.2
							c0.2,0.4,0.7,0.5,1.1,0.3c0,0,0.1,0,0.1,0c2.5-1.2,4.6-1,5-0.3c0.3,0.5-0.7,1.8-2.4,2.9c-0.2,0.1-0.1,0.3-0.2,0.6
							c0,0.2,0,0.5,0.2,0.7c0.3,0.3,0.7,0.4,1,0.2l0.2-0.1c2.2-1.2,4.2-1.2,5.2-0.7c0.3,0.1,0.9,0.6,0.9,0.6s0.3-0.2-0.5,0.5
							c-11.6,10-14.5,13-18.1,14.3c-0.2,0-0.3-0.1-0.5-0.1c-0.5-0.1-1-0.3-1.8-0.3c-0.6-0.1-1.6,0.1-2.4,1.2
							c-0.5-0.1-0.9-0.1-1.2-0.1c-1.4-0.1-2.8,0.6-3.8,2.9c-0.5,1.1-0.5,2.7-0.5,2.9c0,0.3,0.2,0.6,0.5,0.7c0.2,0.1,0.7,0.2,1.9,0.2
							c0.4,0,0.8-0.3,0.8-0.8c0-0.2,0.1-0.5,0.3-0.9c0,0.4,0,0.8,0,1c0.1,0.4,0.4,0.7,0.8,0.7c0.7,0,1.8,0,2.2,0
							c0.2,0,0.5-0.1,0.6-0.3c0.1-0.2,0.1-0.4,0.1-0.7c0-0.4,0.4-1.5,1.1-2.6c-0.3,1.2-0.4,2.3-0.5,2.7c0,0.5,0.3,0.9,0.8,0.9
							c0.2,0,5.7,0.5,8-0.2c2-0.6,2.4-1.2,2.9-2.2c0.1-0.2,0.2-0.4,0.3-0.6c0.4-0.7,0.7-1.1,1.3-1.5c0,0,0,0,0.1-0.1
							c1.1-1,2.3-1.3,2.8-1.2c0.2,0.1,0.4,0.4,0.4,0.6c0.1,0.4,0.5,0.6,0.8,0.6c0.4,0,0.7-0.3,0.8-0.6c0.5-1.8,1.4-2.9,2-2.8
							c0.4,0.1,0.9,0.7,1.1,1.7c0.1,0.4,0.5,0.7,0.9,0.7c0.4,0,0.7-0.4,0.8-0.8c0.1-2.4,1.2-3.8,1.9-3.8c0,0,0,0,0,0
							c0.5,0,1.1,0.8,1.4,2.3c0.1,0.4,0.5,0.7,0.9,0.7c0.4-0.1,0.8-0.4,0.7-0.9c0,0,0-0.1,0-0.1c0-1.6,0.4-3.1,1.1-3.8
							c0.3-0.3,0.5-0.4,0.8-0.4c0.7,0,1.7,1.1,2,3.1c0.1,0.4,0.5,0.7,0.9,0.7c0.4-0.1,0.8-0.5,0.7-0.9l0-0.2
							c-0.1-1.7,0.3-3.3,1.1-4.2c0.3-0.4,0.7-0.6,1.1-0.6c0.9-0.1,1.8,0.8,2.3,2.3c0.1,0.4,0.5,0.6,0.9,0.5c0.4-0.1,0.7-0.4,0.7-0.8
							c0-1,1.7-2.2,4.1-2.4c0.3,0,0.6,0,0.9,0c1.9-0.1,3.3-0.2,4.1-0.7c1.2-0.8,2.1-1.8,3-2.8c1.5-1.7,3.2-3.6,7.1-5.6
							c0.9-0.5,5-1.7,7.4-2.3c-0.8,0.4-1.4,0.8-1.8,1.4c-1.6,2.9-1.3,5.8,1.1,8.9l0.3,0.5c1.7,2.2,1.8,2.5,1.4,3
							c-0.9,0.8-1.8,1.6-2.6,2.2c-0.5,0.4-0.9,0.7-1.1,0.9c-0.3,0.2-0.5,0.5-0.7,0.7c-0.5,0.6-1.1,1.4-1.4,1.4
							c-0.2,0-0.3-0.1-0.5-0.1c-0.5-0.1-1-0.3-1.7-0.3c-0.6,0-1.5,0.1-2.3,1.1c-0.3,0-0.6-0.1-0.8-0.1c-1.4-0.1-2.6,0.5-3.7,2.7
							c-0.6,1.1-0.5,2.6-0.5,2.7c0,0.3,0.2,0.6,0.5,0.7c0.2,0.1,0.7,0.2,1.9,0.2c0.4,0,0.7-0.3,0.8-0.6c0.1,0.4,0.4,0.6,0.8,0.6
							c0.7,0,1.7,0,2.1,0c0.2,0,0.5-0.1,0.6-0.3c0.1-0.2,0.1-0.4,0.1-0.7c0-0.4,0.3-1.2,0.8-2.1c-0.2,1-0.3,1.9-0.4,2.2
							c0,0.5,0.3,0.9,0.8,0.9c0.1,0,1.9,0.2,3.9,0.2c1.4,0,2.8-0.1,3.7-0.3c2.2-0.6,2.6-1.3,3-2.6c0-0.1,0-0.1,0-0.2
							c0-0.5,0.2-0.9,0.6-1.4c1.9-2.3,4-3.1,4.8-2.6c0.1,0.1,0.2,0.2,0.4,0.2c0.3,0.2,0.7,0.2,1-0.1c0.3-0.3,0.3-0.7,0.1-1
							c-0.5-0.9-0.6-1.6-0.4-1.9c0.3-0.4,1.5-0.4,3,0.2c0.2,0.1,0.4,0.1,0.6,0c0,0,0.1,0,0.1,0c0.3-0.1,0.5-0.5,0.5-0.8
							c0-0.3-0.2-0.6-0.5-0.7c-1.7-0.7-2.9-1.8-2.7-2.6c0.2-0.8,1.5-1.4,3.3-1.5c0.4,0,0.7-0.3,0.8-0.7c0-0.4-0.2-0.8-0.6-0.9
							c-0.3-0.1-0.6-0.2-0.9-0.2c0,0,0,0-0.1,0c-2.7-0.6-4.3-1.7-4.4-2.1c0-0.3,1.1-1.3,3.6-1.9c0.3-0.1,2.5,1.2,3.1,1.6
							c2,1.2,4.2,2.3,6.8,3.1c2.8,0.9,11.7,1.6,12.3,1.7c0,0,0,0,0,0c1.9,1.1,2.8,4.3,2,5.9c-0.4,0.7-1.1,2.1-1.7,2.2
							c-0.2,0-0.4-0.1-0.5-0.1c-0.6-0.1-1.1-0.3-1.9-0.3c-0.6,0-1.6,0.1-2.5,1.1c-0.4,0-0.7-0.1-0.9-0.1c-1.5-0.1-2.7,0.5-3.9,2.7
							c-0.6,1.1-0.5,2.7-0.5,2.8c0,0.3,0.2,0.6,0.5,0.7c0.2,0.1,0.7,0.2,2,0.2c0.4,0,0.7-0.2,0.8-0.6c0.1,0.3,0.4,0.6,0.7,0.6
							c0.8,0,1.9,0,2.3,0c0.2,0,0.5-0.1,0.6-0.3c0.1-0.1,0.1-0.4,0.1-0.7c0-0.4,0.4-1.5,1.3-2.6c-0.4,1.2-0.5,2.4-0.5,2.8
							c0,0.2,0.1,0.4,0.2,0.6c0.1,0.2,0.4,0.3,0.6,0.3c0.2,0,2.4,0.2,4.6,0.2c1.6,0,3.2-0.1,4.1-0.3c1.8-0.5,3.1-2.4,3.7-5.7
							c0.1-0.4,0.1-0.9,0.2-1.4c0,0,0-0.1,0-0.1c-0.1-1.3-0.2-2.9-0.2-5.1c0-2.8,1.1-4.7,2.1-4.7l0.2,0c0.4,0,0.8-0.3,0.8-0.8
							c0-0.4-0.2-0.8-0.6-0.9c-2-0.5-2.8-1.2-2.8-1.6c0-0.2,0.4-0.7,1.5-1c0,0,0.1,0,0.1-0.1c0.1,0,0.1-0.1,0.2-0.1
							c0.4-0.2,0.6-0.6,0.4-1c-0.1-0.4-0.5-0.6-0.9-0.6c-1.7,0.3-3.2,0-3.6-0.7c-0.3-0.5,0-1.3,0.8-2.1c0.1-0.1,0.1-0.1,0.1-0.2
							l0-0.1c0.2-0.3,0.1-0.7-0.2-1c-0.3-0.2-0.7-0.3-1.1-0.2c-0.2,0.1-3.5,2.1-5.9,2.1c-0.3,0-0.6,0-0.8,0
							c-1.7-0.1-3.1-0.5-4.2-0.7c-2.6-0.7-4.1-2.4-5.5-4.1c-0.5-0.6-1-1.1-1.5-1.6c-0.2-0.2-0.5-0.4-0.7-0.6c0.4,0,0.8,0.1,1.3,0.1
							C188.3,79.7,190.7,79.9,195.4,80.2z M131.1,70.3c0.6,0.3,1.9,0.7,3.1,0.4c-0.1,0.3-0.2,0.6-0.4,0.8c-0.2,0.3-0.3,0.6-0.4,0.9
							c-0.6,1.3-1,2-2.3,2l0,0c0,0,0,0-0.1,0c-1.3,0-1.7-0.8-2.3-2.1c-0.1-0.3-0.3-0.6-0.4-0.9c-0.1-0.2-0.3-0.5-0.4-0.8
							C129.3,71,130.5,70.6,131.1,70.3z"/>
					</g>
				</g>
			</g>
			<g>
				<g>
					<g>
						<path class="st3" d="M204.8,90.6c0-0.7,0.9-1.4,2.1-1.8c0.1,0,0.1-0.1,0.2-0.1c-2.1,0.4-3.9,0-4.5-1.1c-0.5-0.9-0.1-2,0.9-3.1
							c0-0.1,0.1-0.1,0.1-0.1s-3.8,1.9-6.3,2c-0.3,0-0.6,0-0.8,0c-1.5-0.1-3.1-0.2-4.4-0.6c-3.8-1-5.4-4.1-7.3-6c-1.9-1.9-3-2-3-2
							s-0.1-0.3,2.2-0.1c2.3,0.2,4.1,0.5,10.9,0.9c10.9,0.7,18.3-6.6,13.9-14.2c-4.4-7.5-15.9-9.2-25.7-6.8
							c-5.9,1.5-13.3,4.9-23.6,7c-3.1,0.6-5.8-0.2-6.8-0.7c-1-0.5-2.4-3.2,3.9-3.3c12.3-0.1,15.6-6.2,16-7c-0.4,0.4-3.8,1.9-8.9,2.1
							c-0.2,0-0.4-0.1-0.5-0.1c-1.7-1-1.8-2.9-5.3-3.3c1.9,1.8,1.8,3.5,1,3.8c-0.5,0.2-1,0.2-1.5-0.4c-1.9-2.7-4.9-1.7-4.9-1.7
							s2.3,0.7,1.8,1.8c-0.1,0.2-0.4,0.2-0.6,0.2c-0.2,0-0.4,0-0.7-0.1c-2.3-1.3-3.9,0.7-3.9,0.7s1.6-0.3,1.9,0.4
							c-2.5,1.2-4.3,3.1-3.9,5.5c0.9,5.1,6.7,6.3,12.9,5.6c7.3-0.8,13.6-4,24.1-7c10.5-3,20,0.2,21.6,6.2c0.8,3.1-1.9,7.9-10.4,7.5
							c-8.8-0.4-10.6-1.6-23.3-3.1c-6.1-0.7-11.4-0.1-15.1,0c-3.7,0.1-5,0.1-7.5-0.2c-2.5-0.4-9.2-1.6-9.2-3.4
							c0-1.5,3.4-2.2,3.4-2.2s-3.2-0.6-3.4-2.6c-0.2-1.6-0.5-3.1-0.9-4.2c0.1-0.1,0.1-0.2,0.2-0.4c1.1-2,0-4-0.3-4.1
							c-0.2-0.1-2.2-0.1-3.5,1.3c-2-1-4.2-1.1-5-1.2l0,0c0,0,0,0-0.1,0c0,0,0,0-0.1,0l0,0c-0.9,0-3.2,0.2-5.3,1.3
							c-1.2-1.4-3.3-1.5-3.6-1.4c-0.3,0.1-1.3,2.1-0.3,4.1c0.2,0.3,0.3,0.5,0.5,0.7c-0.5,1.1-0.7,2.4-0.8,4
							c-0.1,1.7-3.3,2.5-3.3,2.5c0,0,3.6,0.8,3.3,2.3c-0.4,1.9-3.5,3-3.5,3s3.2,0.3,3.6,1.9c0.2,0.7-0.5,1.3-1.3,2.3
							c-4.5,0.3-12.1-2.8-12.1-2.8s-5.6-2.7-6.5-3.5c-1.4-1.2-4.6-4-5.6-5.6c-0.3-0.8-0.7-1.4-1.1-1.8c-0.9-0.9-1.9-1.3-3-1.2
							c-0.3-0.5-0.7-1-0.8-1.2c-0.8-1.1-3.6-0.8-5.6-0.3c-0.2-0.2-0.4-0.4-0.6-0.6c-1.3-1-3.7,1-3.7,1s1.8-0.2,2.2,0.3l1.6-0.6
							c0,0-1,0.6-0.9,1.6c0.1,0.2,0.2,0.3,0.3,0.5c0.7-0.2,3.7-1.1,5.8-0.4c-1,0.3-2,0.8-2.8,1.3c-0.1-0.1-0.1-0.1-0.2-0.2
							c-1.6-1-4.2,0.9-4.2,0.9s1.9,0,2.6,0.4c0.1,0.1,0.1,0.1,0.2,0.2l1.2-1c0,0-0.6,0.9-0.4,1.9c0.1,0.1,0.2,0.2,0.2,0.2l0.4,0.4
							c0,0,6-1.7,7.7-0.1c-1.6-0.3-3.4,0.4-4.6,1.1c0,0-0.1-0.1-0.1-0.1c-1.6-1-4.2,0.9-4.2,0.9s1.9,0,2.6,0.4
							c0.1,0.1,0.1,0.1,0.2,0.2l1-0.9c0,0-0.6,0.9-0.4,2c0.3,0.7,0.7,1.4,1.2,1.9c1.4,1.4,3.4,0.9,5.3,2.6c0.2,0.2,0.7,0.6,1.3,1.1
							c0.6,0.5,1,1,1,1.5c0,0.5-0.2,0.9-0.7,1.3c2.3-0.4,4.2-0.1,4.6,1c0.3,0.8-0.3,1.7-1.5,2.5c2.6-1,5.1-0.8,5.6,0.3
							c0.4,0.9-0.4,2.1-2,3.1c0,0,0.1,0,0.1-0.1c2.7-1.3,5.4-1.2,6.1,0.1c0.6,1.1-0.5,2.7-2.4,4l0,0c0.1,0,0.1-0.1,0.2-0.1
							c2.3-1.2,4.6-1.4,5.9-0.7c2.5-1.6,4.9-3.4,6-4.8c-0.6,1.7-2.5,4.4-5.4,7.2c-0.7,0.7-5.7,4.8-6.5,5.5c-4.2,3.3-8.5,6.9-8.9,7
							c-1,0.4-2.4,1.5-3.3,1.4c-0.8-0.2-1.3-0.4-2.3-0.5c-0.8-0.1-1.5,0.5-2,1.3c-0.5-0.1-1.4-0.1-1.6-0.2c-1.2-0.1-2.3,1.3-3,2.9
							c-0.5,1-0.4,2.5-0.4,2.5s0.4,0.2,1.6,0.1c0.1-1,1.3-3.4,3.2-4.9c-0.9,1.7-1.3,4.2-1.2,4.9c0.7,0,1.7,0,2.1,0
							c0-1.4,1.9-5.4,3.9-5.2c0.1,0,0.3,0,0.5,0.1c-1.8,0.6-2.1,5.2-2.1,5.2s5.5,0.5,7.7-0.2c2.2-0.6,2-1.2,2.7-2.4
							c0.4-0.7,0.7-1.2,1.5-1.8c1.2-1.1,2.7-1.7,3.6-1.4c0.5,0.2,0.8,0.6,1,1.2c0.5-2.1,1.7-3.6,2.9-3.4c0.9,0.1,1.5,1,1.8,2.3
							c0.2-2.6,1.4-4.6,2.7-4.6c1,0,1.9,1.3,2.2,3c0,0,0-0.1,0-0.1c-0.1-2.8,1.1-5,2.7-5.1c1.3,0,2.5,1.6,2.9,3.8c0-0.1,0-0.1,0-0.2
							c-0.2-3,1.1-5.6,2.9-5.7c1.3-0.1,2.5,1.1,3.2,2.8c0-1.5,2.2-3,4.9-3.2c0.3,0,0.7,0,1,0c1.6-0.1,3.1-0.1,3.7-0.5
							c3-2,3.7-5.2,10.1-8.4c1.2-0.6,6.2-2.1,8.4-2.5c4.5-1.1,7.1-1.3,8.1-1.1c0.1,0,0.1,0,0.2,0.1c0.6,0.2,1.3,0.5,1.9,1
							c0,0,0,0,0,0c2,1.7,3.9,4.6,4.1,5c0.6,1,0.2,0.5,2.2,1.9c1.8,1.1,3.9,2.1,6.6,3c2.8,0.9,11.6,1.6,12.3,1.7
							c0.1,0,0.2,0,0.2,0.1c2.3,1.3,3.4,5,2.4,7c-0.5,1-1.3,2.1-2.4,2.1c-0.9-0.2-1.4-0.4-2.4-0.5c-0.8-0.1-1.5,0.5-2.1,1.2
							c-0.5-0.1-1-0.1-1.3-0.1c-1.3-0.1-2.4,1.3-3.2,2.8c-0.5,1-0.4,2.4-0.4,2.4s0.4,0.2,1.7,0.1c0.1-0.9,1-3.1,2.8-4.6
							c-0.9,1.7-1.4,3.9-1.2,4.6c0.7,0,1.8,0,2.2,0c0-1.2,2-5.2,4.1-5c0.1,0,0.3,0,0.5,0.1c-1.9,0.6-2.3,5-2.3,5s6.3,0.5,8.5-0.1
							c2.2-0.6,2.9-3.9,3.1-5c0.1-0.5,0.1-0.9,0.1-1.3c-0.1-1.4-0.2-3.2-0.2-5.1c0-3,1.2-5.5,2.9-5.5c0.1,0,0.1,0,0.2,0
							C206.2,92.5,204.8,91.6,204.8,90.6z M134.2,61.9c1.5-0.1,3.3,0.3,3.3,0.3c-0.1,0.3-0.2,0.5-0.8,1c-0.8,0.8-1.3,0.8-2.2,0.9
							c-1.5,0.1-2.3-0.8-2.4-1.7C132.1,62.4,132.7,62.1,134.2,61.9z M130.4,66.3c0.6,0,2.2-0.2,2.2-0.2c0.1,0,0.2,0.1,0.2,0.1
							c0,0.1,0,0.2-0.1,0.2l-2.2,1.2c0,0-0.1,0-0.1,0c0,0-0.1,0-0.1,0l-2.3-1.2c-0.1,0-0.1-0.1-0.1-0.2c0-0.1,0.1-0.1,0.2-0.1
							C128.1,66,129.8,66.3,130.4,66.3z M124.1,63.3c-0.6-0.5-0.7-0.7-0.8-1c0-0.1,1.8-0.5,3.3-0.3c1.5,0.1,2.1,0.5,2.1,0.6
							c-0.1,0.9-0.9,1.8-2.4,1.7C125.3,64.1,124.9,64,124.1,63.3z M130.4,74.6l-0.1,0v0c-2.3,0-2.7-2-3.4-3.4c-0.5-1-1-2.8-0.7-2.5
							c1.7,1.2,4.2-0.1,4.2-0.1s2.4,1.3,4.2,0.1c0.3-0.2-0.1,1.5-0.7,2.5C133.1,72.7,132.8,74.7,130.4,74.6z M139.9,78.1
							c-0.7,0.8,0.2,2.8,1.2,4.3c-3.1-0.3-6.4,0.7-6.7,2.5c0,0.1,0,0.2,0,0.3c-0.3-0.4-0.6-0.9-0.5-1.3c0.2-1.6,2.4-2.8,5.1-2.5
							c-0.9-1-1-3-0.4-3.9c0.4-0.8,1.3-1.7,3.5-1.3c-1.8-1.1-2.3-2.7-2.1-3.8c0.1-0.8,1.6-1,1.8-1c-0.3,0.2-0.5,0.5-0.6,0.8
							c-0.3,1.2,1.3,3.4,3.5,5C142.1,77,140.6,77.3,139.9,78.1z"/>
						<path class="st3" d="M174.2,94.5c-0.3-0.1-0.6-0.2-0.9-0.3c-2.7-0.6-5-1.8-5-2.9c0-1,1.8-2.1,4.2-2.7c-0.3-0.5-0.3-0.5-0.6-1
							c-1.8-2.7-3.6-3.9-4.6-4.1c-0.3-0.1-1-0.1-2.3,0.1c-3,0.6-6.2,1.2-6.9,2.5c-1.5,2.8-1,5.3,1,8c1.9,2.4,2.7,3.4,1.7,4.6
							c-1.4,1.3-3.2,2.6-3.8,3.1c-1,0.9-1.6,1.9-2.6,1.9c-0.8-0.2-1.2-0.4-2.2-0.4c-0.7-0.1-1.4,0.4-1.9,1.2c-0.4-0.1-1-0.1-1.2-0.1
							c-1.2-0.1-2.3,1.2-3.1,2.7c-0.5,0.9-0.4,2.3-0.4,2.3s0.4,0.2,1.6,0.1c0.1-0.9,0.9-3,2.7-4.4c-0.8,1.6-1.2,3.8-1.1,4.4
							c0.6,0,1.6,0,1.9,0c0-1.1,1.8-5,3.7-4.8c0.1,0,0.3,0,0.4,0.1c-1.7,0.6-2,4.9-2,4.9s5.2,0.4,7.2-0.1c1.9-0.6,2.1-1,2.5-2
							c0.1-0.6,0.3-1.2,0.8-1.8c2-2.4,4.5-3.7,5.9-2.8c0.1,0.1,0.2,0.1,0.4,0.2c-0.7-1.2-0.8-2.3-0.3-2.9c0.7-0.7,2.2-0.7,4,0
							c0,0,0,0,0,0c-2.1-0.9-3.5-2.3-3.2-3.6C170.4,95.4,172.1,94.6,174.2,94.5z"/>
					</g>
					<g>
						<path class="st2" d="M195.4,142.7c6.5,0.4,12.3-2,14.8-6.1c1.8-2.9,1.7-6.2-0.1-9.3c-2.2-3.7-6.1-6.3-11.3-7.5
							c-4.7-1.1-10.2-0.5-15.3,0.8c-2.3,0.6-4.7,1.3-7.5,2.2c-4.6,1.6-9.6,3.3-15.9,4.7c-2.8,0.6-5.3-0.1-6.2-0.6
							c-0.1-0.1-0.6-0.7-0.5-1c0.1-0.3,1-1,3.9-1c12.8-0.1,16.4-6.7,16.8-7.5c0.2-0.4,0.1-0.8-0.2-1.1c-0.3-0.2-0.8-0.3-1.1-0.1
							c-2.6,1.7-7.4,2.4-8.3,2c-0.5-0.3-0.9-0.6-1.3-1.1c-0.8-0.9-1.7-2-4.3-2.3c-0.4,0-1,0-1.1,0.2c-0.1,0.2,0.2,1,0.5,1.3
							c1.4,1.3,1.3,2.2,1.1,2.4c-0.1,0.1-0.1,1.2-0.9-0.2c-1.6-2.6-4.2-2.3-5.7-1.9c-0.3,0.1-0.4,0.1-0.4,0.5c0,0.3,0.2,0.9,0.4,1
							c-1.5-0.3-3.2,0.5-3.9,1.2c-0.2,0.3,0,0.8,0.2,1.1c0.1,0.2,0.2,0.3,0.4,0.3c-1.9,1.5-3,3.3-2.7,5.3c0.9,4.9,5.9,7.2,13.8,6.3
							c4.7-0.5,9-2,14.1-3.8c2.9-1,6.3-2.2,10.1-3.3c6.2-1.8,12.4-1.4,16.6,1c2.1,1.2,3.5,2.8,4,4.7c0.3,1.2,0,2.5-0.9,3.6
							c-0.9,1.1-3.3,3.6-8.7,3.3c-4.9-0.2-7.5-0.7-11.3-1.3c-2.8-0.5-6.4-1.1-12-1.8c-4.8-0.6-9-0.3-12.4-0.2
							c-1,0.1-1.9,0.1-2.8,0.1c-3.7,0.1-4.9,0.1-7.3-0.2c-5-0.8-8.3-2.5-8.5-3.1c0-0.4,1.3-1.1,2.7-1.3c0.4-0.1,0.7-0.4,0.7-0.8
							c0-0.4-0.3-0.7-0.7-0.8c-0.7-0.1-2.6-0.8-2.7-1.8c-0.1-1.3-0.3-2.8-0.9-4c0,0,0-0.1,0-0.1c0.8-1.5,0.6-3,0.3-3.7
							c-0.1-0.4-0.4-1.2-0.9-1.5c-0.6-0.3-2.6-0.1-4,1c-2.2-0.9-4.2-1-4.8-1c0,0-0.1,0-0.1,0l-0.1,0c0,0,0,0-0.1,0c0,0-0.1,0-0.1,0
							c-0.6,0-2.8,0.1-5,1.1c-1.4-1.2-3.5-1.4-4.1-1.1c-0.5,0.3-0.8,1.1-0.9,1.5c-0.2,0.7-0.5,2.2,0.3,3.7c0.1,0.1,0.2,0.3,0.2,0.4
							c-0.4,1-0.3,2.2-0.4,3.8c-0.1,0.8-2.1,1.5-3,1.7c-0.3,0.1-0.8,0.2-0.8,0.5c-0.1,0.4,0.4,1,0.8,1.1c1.5,0.4,2.7,1.1,2.7,1.4
							c-0.2,1.2-2.4,2.1-3.1,2.4c-0.4,0.1-0.6,0.3-0.6,0.7c0,0.4,0.5,0.9,0.9,0.9c0.9,0.1,2.7,0.5,2.9,1.3c0.1,0.2-0.2,1-0.7,1.5
							c-4.2,0.1-10.9-2.6-11.4-2.8c-2.1-1-5.6-2.9-6.2-3.4c-1.1-0.8-4.6-4-5.6-5.6c-0.4-0.9-0.8-1.5-1.2-2c-0.8-0.9-1.9-1.4-3.2-1.5
							c-0.3-0.4-0.5-0.7-0.6-0.9c-0.9-1.1-2.8-1.4-6-0.7c-0.1-0.1-0.3-0.2-0.4-0.3c-1.8-1.3-4.7,0.8-5,1.1c-0.3,0.2-0.2,0.6-0.1,1
							c0.1,0.3,0.5,0.5,0.9,0.5c0.5-0.1,1.2-0.1,1.4,0c0.1,0.1,0.8,1.1,0.8,1.3c-0.5,0.3-1.1,0.5-1.2,0.6c-0.3,0.2-0.2,0.6-0.1,1
							c0.1,0.3,0.4,0.6,0.8,0.6c0.8,0,1.8,0.1,2,0.3c0.1,0,1,1.1,1,1.1c0,0,0,0.1,0.1,0.1l0.3,0.4c-0.6,0.3-1.2,0.5-1.3,0.6
							c-0.3,0.2-0.2,0.7-0.1,1c0.1,0.3,0.5,0.6,0.8,0.6c0.8,0,1.8,0.1,2,0.3c0,0,0.5,0.9,0.6,1c0.4,0.9,0.9,1.7,1.4,2.2
							c0.8,0.8,1.8,1.1,2.7,1.4c0.9,0.3,1.8,0.5,2.6,1.2c0.1,0.1,0.3,0.2,0.5,0.4c0.2,0.2,0.5,0.4,0.9,0.7c0.5,0.4,0.7,0.8,0.7,0.9
							c0,0.2-0.3,0.2-0.5,0.4c-0.3,0.2-0.3,0.8-0.1,1.2c0.2,0.3,0.5,0.5,0.9,0.5c2.1-0.4,3.5,0,3.6,0.4c0.1,0.3-0.4,0.8-1.3,1.4
							c-0.3,0.2-0.4,0.8-0.2,1.2c0.2,0.4,0.6,0.5,1,0.4c2.4-0.9,4.3-0.7,4.6-0.1c0.1,0.3-0.4,1.1-1.8,2c-0.4,0.2-0.4,0.8-0.2,1.2
							c0.2,0.4,0.7,0.5,1.1,0.3c0,0,0.1,0,0.1,0c2.5-1.2,4.6-1,5-0.3c0.3,0.5-0.7,1.8-2.4,2.9c-0.2,0.1-0.1,0.3-0.2,0.6
							c0,0.2,0,0.5,0.2,0.7c0.3,0.3,0.7,0.4,1,0.2l0.2-0.1c2.2-1.2,4.2-1.2,5.2-0.7c0.3,0.1,0.9,0.6,0.9,0.6s0.3-0.2-0.5,0.5
							c-11.6,10-14.5,13-18.1,14.3c-0.2,0-0.3-0.1-0.5-0.1c-0.5-0.1-1-0.3-1.8-0.3c-0.6-0.1-1.6,0.1-2.4,1.2
							c-0.5-0.1-0.9-0.1-1.2-0.1c-1.4-0.1-2.8,0.6-3.8,2.9c-0.5,1.1-0.5,2.7-0.5,2.9c0,0.3,0.2,0.6,0.5,0.7c0.2,0.1,0.7,0.2,1.9,0.2
							c0.4,0,0.8-0.3,0.8-0.8c0-0.2,0.1-0.5,0.3-0.9c0,0.4,0,0.8,0,1c0.1,0.4,0.4,0.7,0.8,0.7c0.7,0,1.8,0,2.2,0
							c0.2,0,0.5-0.1,0.6-0.3c0.1-0.2,0.1-0.4,0.1-0.7c0-0.4,0.4-1.5,1.1-2.6c-0.3,1.2-0.4,2.3-0.5,2.7c0,0.5,0.3,0.9,0.8,0.9
							c0.2,0,5.7,0.5,8-0.2c2-0.6,2.4-1.2,2.9-2.2c0.1-0.2,0.2-0.4,0.3-0.6c0.4-0.7,0.7-1.1,1.3-1.5c0,0,0,0,0.1-0.1
							c1.1-1,2.3-1.3,2.8-1.2c0.2,0.1,0.4,0.4,0.4,0.6c0.1,0.4,0.5,0.6,0.8,0.6c0.4,0,0.7-0.3,0.8-0.6c0.5-1.8,1.4-2.9,2-2.8
							c0.4,0.1,0.9,0.7,1.1,1.7c0.1,0.4,0.5,0.7,0.9,0.7c0.4,0,0.7-0.4,0.8-0.8c0.1-2.4,1.2-3.8,1.9-3.8c0,0,0,0,0,0
							c0.5,0,1.1,0.8,1.4,2.3c0.1,0.4,0.5,0.7,0.9,0.7c0.4-0.1,0.8-0.4,0.7-0.9c0,0,0-0.1,0-0.1c0-1.6,0.4-3.1,1.1-3.8
							c0.3-0.3,0.5-0.4,0.8-0.4c0.7,0,1.7,1.1,2,3.1c0.1,0.4,0.5,0.7,0.9,0.7c0.4-0.1,0.8-0.5,0.7-0.9l0-0.2
							c-0.1-1.7,0.3-3.3,1.1-4.2c0.3-0.4,0.7-0.6,1.1-0.6c0.9-0.1,1.8,0.8,2.3,2.3c0.1,0.4,0.5,0.6,0.9,0.5c0.4-0.1,0.7-0.4,0.7-0.8
							c0-1,1.7-2.2,4.1-2.4c0.3,0,0.6,0,0.9,0c1.9-0.1,3.3-0.2,4.1-0.7c1.2-0.8,2.1-1.8,3-2.8c1.5-1.7,3.2-3.6,7.1-5.6
							c0.9-0.5,5-1.7,7.4-2.3c-0.8,0.4-1.4,0.8-1.8,1.4c-1.6,2.9-1.3,5.8,1.1,8.9l0.3,0.5c1.7,2.2,1.8,2.5,1.4,3
							c-0.9,0.8-1.8,1.6-2.6,2.2c-0.5,0.4-0.9,0.7-1.1,0.9c-0.3,0.2-0.5,0.5-0.7,0.7c-0.5,0.6-1.1,1.4-1.4,1.4
							c-0.2,0-0.3-0.1-0.5-0.1c-0.5-0.1-1-0.3-1.7-0.3c-0.6,0-1.5,0.1-2.3,1.1c-0.3,0-0.6-0.1-0.8-0.1c-1.4-0.1-2.6,0.5-3.7,2.7
							c-0.6,1.1-0.5,2.6-0.5,2.7c0,0.3,0.2,0.6,0.5,0.7c0.2,0.1,0.7,0.2,1.9,0.2c0.4,0,0.7-0.3,0.8-0.6c0.1,0.4,0.4,0.6,0.8,0.6
							c0.7,0,1.7,0,2.1,0c0.2,0,0.5-0.1,0.6-0.3c0.1-0.2,0.1-0.4,0.1-0.7c0-0.4,0.3-1.2,0.8-2.1c-0.2,1-0.3,1.9-0.4,2.2
							c0,0.5,0.3,0.9,0.8,0.9c0.1,0,1.9,0.2,3.9,0.2c1.4,0,2.8-0.1,3.7-0.3c2.2-0.6,2.6-1.3,3-2.6c0-0.1,0-0.1,0-0.2
							c0-0.5,0.2-0.9,0.6-1.4c1.9-2.3,4-3.1,4.8-2.6c0.1,0.1,0.2,0.2,0.4,0.2c0.3,0.2,0.7,0.2,1-0.1c0.3-0.3,0.3-0.7,0.1-1
							c-0.5-0.9-0.6-1.6-0.4-1.9c0.3-0.4,1.5-0.4,3,0.2c0.2,0.1,0.4,0.1,0.6,0c0,0,0.1,0,0.1,0c0.3-0.1,0.5-0.5,0.5-0.8
							c0-0.3-0.2-0.6-0.5-0.7c-1.7-0.7-2.9-1.8-2.7-2.6c0.2-0.8,1.5-1.4,3.3-1.5c0.4,0,0.7-0.3,0.8-0.7c0-0.4-0.2-0.8-0.6-0.9
							c-0.3-0.1-0.6-0.2-0.9-0.2c0,0,0,0-0.1,0c-2.7-0.6-4.3-1.7-4.4-2.1c0-0.3,1.1-1.3,3.6-1.9c0.3-0.1,2.5,1.2,3.1,1.6
							c2,1.2,4.2,2.3,6.8,3.1c2.8,0.9,11.7,1.6,12.3,1.7c0,0,0,0,0,0c1.9,1.1,2.8,4.3,2,5.9c-0.4,0.7-1.1,2.1-1.7,2.2
							c-0.2,0-0.4-0.1-0.5-0.1c-0.6-0.1-1.1-0.3-1.9-0.3c-0.6,0-1.6,0.1-2.5,1.1c-0.4,0-0.7-0.1-0.9-0.1c-1.5-0.1-2.7,0.5-3.9,2.7
							c-0.6,1.1-0.5,2.7-0.5,2.8c0,0.3,0.2,0.6,0.5,0.7c0.2,0.1,0.7,0.2,2,0.2c0.4,0,0.7-0.2,0.8-0.6c0.1,0.3,0.4,0.6,0.7,0.6
							c0.8,0,1.9,0,2.3,0c0.2,0,0.5-0.1,0.6-0.3c0.1-0.1,0.1-0.4,0.1-0.7c0-0.4,0.4-1.5,1.3-2.6c-0.4,1.2-0.5,2.4-0.5,2.8
							c0,0.2,0.1,0.4,0.2,0.6c0.1,0.2,0.4,0.3,0.6,0.3c0.2,0,2.4,0.2,4.6,0.2c1.6,0,3.2-0.1,4.1-0.3c1.8-0.5,3.1-2.4,3.7-5.7
							c0.1-0.4,0.1-0.9,0.2-1.4c0,0,0-0.1,0-0.1c-0.1-1.3-0.2-2.9-0.2-5.1c0-2.8,1.1-4.7,2.1-4.7l0.2,0c0.4,0,0.8-0.3,0.8-0.8
							c0-0.4-0.2-0.8-0.6-0.9c-2-0.5-2.8-1.2-2.8-1.6c0-0.2,0.4-0.7,1.5-1c0,0,0.1,0,0.1-0.1c0.1,0,0.1-0.1,0.2-0.1
							c0.4-0.2,0.6-0.6,0.4-1c-0.1-0.4-0.5-0.6-0.9-0.6c-1.7,0.3-3.2,0-3.6-0.7c-0.3-0.5,0-1.3,0.8-2.1c0.1-0.1,0.1-0.1,0.1-0.2
							l0-0.1c0.2-0.3,0.1-0.7-0.2-1c-0.3-0.2-0.7-0.3-1.1-0.2c-0.2,0.1-3.5,2.1-5.9,2.1c-0.3,0-0.6,0-0.8,0
							c-1.7-0.1-3.1-0.5-4.2-0.7c-2.6-0.7-4.1-2.4-5.5-4.1c-0.5-0.6-1-1.1-1.5-1.6c-0.2-0.2-0.5-0.4-0.7-0.6c0.4,0,0.8,0.1,1.3,0.1
							C188.3,142.2,190.7,142.4,195.4,142.7z M131.1,132.8c0.6,0.3,1.9,0.7,3.1,0.4c-0.1,0.3-0.2,0.6-0.4,0.8
							c-0.2,0.3-0.3,0.6-0.4,0.9c-0.6,1.3-1,2-2.3,2l0,0c0,0,0,0-0.1,0c-1.3,0-1.7-0.8-2.3-2.1c-0.1-0.3-0.3-0.6-0.4-0.9
							c-0.1-0.2-0.3-0.5-0.4-0.8C129.3,133.5,130.5,133.1,131.1,132.8z"/>
					</g>
					<g>
						<path class="st3" d="M204.8,153.1c0-0.7,0.9-1.4,2.1-1.8c0.1,0,0.1-0.1,0.2-0.1c-2.1,0.4-3.9,0-4.5-1.1
							c-0.5-0.9-0.1-2,0.9-3.1c0-0.1,0.1-0.1,0.1-0.1s-3.8,1.9-6.3,2c-0.3,0-0.6,0-0.8,0c-1.5-0.1-3.1-0.2-4.4-0.6
							c-3.8-1-5.4-4.1-7.3-6c-1.9-1.9-3-2-3-2s-0.1-0.3,2.2-0.1c2.3,0.2,4.1,0.5,10.9,0.9c10.9,0.7,18.3-6.6,13.9-14.2
							c-4.4-7.5-15.9-9.2-25.7-6.8c-5.9,1.5-13.3,4.9-23.6,7c-3.1,0.6-5.8-0.2-6.8-0.7c-1-0.5-2.4-3.2,3.9-3.3
							c12.3-0.1,15.6-6.2,16-7c-0.4,0.4-3.8,1.9-8.9,2.1c-0.2,0-0.4-0.1-0.5-0.1c-1.7-1-1.8-2.9-5.3-3.3c1.9,1.8,1.8,3.5,1,3.8
							c-0.5,0.2-1,0.2-1.5-0.4c-1.9-2.7-4.9-1.7-4.9-1.7s2.3,0.7,1.8,1.8c-0.1,0.2-0.4,0.2-0.6,0.2c-0.2,0-0.4,0-0.7-0.1
							c-2.3-1.3-3.9,0.7-3.9,0.7s1.6-0.3,1.9,0.4c-2.5,1.2-4.3,3.1-3.9,5.5c0.9,5.1,6.7,6.3,12.9,5.6c7.3-0.8,13.6-4,24.1-7
							c10.5-3,20,0.2,21.6,6.2c0.8,3.1-1.9,7.9-10.4,7.5c-8.8-0.4-10.6-1.6-23.3-3.1c-6.1-0.7-11.4-0.1-15.1,0
							c-3.7,0.1-5,0.1-7.5-0.2c-2.5-0.4-9.2-1.6-9.2-3.4c0-1.5,3.4-2.2,3.4-2.2s-3.2-0.6-3.4-2.6c-0.2-1.6-0.5-3.1-0.9-4.2
							c0.1-0.1,0.1-0.2,0.2-0.4c1.1-2,0-4-0.3-4.1c-0.2-0.1-2.2-0.1-3.5,1.3c-2-1-4.2-1.1-5-1.2l0,0c0,0,0,0-0.1,0c0,0,0,0-0.1,0
							l0,0c-0.9,0-3.2,0.2-5.3,1.3c-1.2-1.4-3.3-1.5-3.6-1.4c-0.3,0.1-1.3,2.1-0.3,4.1c0.2,0.3,0.3,0.5,0.5,0.7
							c-0.5,1.1-0.7,2.4-0.8,4c-0.1,1.7-3.3,2.5-3.3,2.5c0,0,3.6,0.8,3.3,2.3c-0.4,1.9-3.5,3-3.5,3s3.2,0.3,3.6,1.9
							c0.2,0.7-0.5,1.3-1.3,2.3c-4.5,0.3-12.1-2.8-12.1-2.8s-5.6-2.7-6.5-3.5c-1.4-1.2-4.6-4-5.6-5.6c-0.3-0.8-0.7-1.4-1.1-1.8
							c-0.9-0.9-1.9-1.3-3-1.2c-0.3-0.5-0.7-1-0.8-1.2c-0.8-1.1-3.6-0.8-5.6-0.3c-0.2-0.2-0.4-0.4-0.6-0.6c-1.3-1-3.7,1-3.7,1
							s1.8-0.2,2.2,0.3l1.6-0.6c0,0-1,0.6-0.9,1.6c0.1,0.2,0.2,0.3,0.3,0.5c0.7-0.2,3.7-1.1,5.8-0.4c-1,0.3-2,0.8-2.8,1.3
							c-0.1-0.1-0.1-0.1-0.2-0.2c-1.6-1-4.2,0.9-4.2,0.9s1.9,0,2.6,0.4c0.1,0.1,0.1,0.1,0.2,0.2l1.2-1c0,0-0.6,0.9-0.4,1.9
							c0.1,0.1,0.2,0.2,0.2,0.2l0.4,0.4c0,0,6-1.7,7.7-0.1c-1.6-0.3-3.4,0.4-4.6,1.1c0,0-0.1-0.1-0.1-0.1c-1.6-1-4.2,0.9-4.2,0.9
							s1.9,0,2.6,0.4c0.1,0.1,0.1,0.1,0.2,0.2l1-0.9c0,0-0.6,0.9-0.4,2c0.3,0.7,0.7,1.4,1.2,1.9c1.4,1.4,3.4,0.9,5.3,2.6
							c0.2,0.2,0.7,0.6,1.3,1.1c0.6,0.5,1,1,1,1.5c0,0.5-0.2,0.9-0.7,1.3c2.3-0.4,4.2-0.1,4.6,1c0.3,0.8-0.3,1.7-1.5,2.5
							c2.6-1,5.1-0.8,5.6,0.3c0.4,0.9-0.4,2.1-2,3.1c0,0,0.1,0,0.1-0.1c2.7-1.3,5.4-1.2,6.1,0.1c0.6,1.1-0.5,2.7-2.4,4l0,0
							c0.1,0,0.1-0.1,0.2-0.1c2.3-1.2,4.6-1.4,5.9-0.7c2.5-1.6,4.9-3.4,6-4.8c-0.6,1.7-2.5,4.4-5.4,7.2c-0.7,0.7-5.7,4.8-6.5,5.5
							c-4.2,3.3-8.5,6.9-8.9,7c-1,0.4-2.4,1.5-3.3,1.4c-0.8-0.2-1.3-0.4-2.3-0.5c-0.8-0.1-1.5,0.5-2,1.3c-0.5-0.1-1.4-0.1-1.6-0.2
							c-1.2-0.1-2.3,1.3-3,2.9c-0.5,1-0.4,2.5-0.4,2.5s0.4,0.2,1.6,0.1c0.1-1,1.3-3.4,3.2-4.9c-0.9,1.7-1.3,4.2-1.2,4.9
							c0.7,0,1.7,0,2.1,0c0-1.4,1.9-5.4,3.9-5.2c0.1,0,0.3,0,0.5,0.1c-1.8,0.6-2.1,5.2-2.1,5.2s5.5,0.5,7.7-0.2
							c2.2-0.6,2-1.2,2.7-2.4c0.4-0.7,0.7-1.2,1.5-1.8c1.2-1.1,2.7-1.7,3.6-1.4c0.5,0.2,0.8,0.6,1,1.2c0.5-2.1,1.7-3.6,2.9-3.4
							c0.9,0.1,1.5,1,1.8,2.3c0.2-2.6,1.4-4.6,2.7-4.6c1,0,1.9,1.3,2.2,3c0,0,0-0.1,0-0.1c-0.1-2.8,1.1-5,2.7-5.1
							c1.3,0,2.5,1.6,2.9,3.8c0-0.1,0-0.1,0-0.2c-0.2-3,1.1-5.6,2.9-5.7c1.3-0.1,2.5,1.1,3.2,2.8c0-1.5,2.2-3,4.9-3.2
							c0.3,0,0.7,0,1,0c1.6-0.1,3.1-0.1,3.7-0.5c3-2,3.7-5.2,10.1-8.4c1.2-0.6,6.2-2.1,8.4-2.5c4.5-1.1,7.1-1.3,8.1-1.1
							c0.1,0,0.1,0,0.2,0.1c0.6,0.2,1.3,0.5,1.9,1c0,0,0,0,0,0c2,1.7,3.9,4.6,4.1,5c0.6,1,0.2,0.5,2.2,1.9c1.8,1.1,3.9,2.1,6.6,3
							c2.8,0.9,11.6,1.6,12.3,1.7c0.1,0,0.2,0,0.2,0.1c2.3,1.3,3.4,5,2.4,7c-0.5,1-1.3,2.1-2.4,2.1c-0.9-0.2-1.4-0.4-2.4-0.5
							c-0.8-0.1-1.5,0.5-2.1,1.2c-0.5-0.1-1-0.1-1.3-0.1c-1.3-0.1-2.4,1.3-3.2,2.8c-0.5,1-0.4,2.4-0.4,2.4s0.4,0.2,1.7,0.1
							c0.1-0.9,1-3.1,2.8-4.6c-0.9,1.7-1.4,3.9-1.2,4.6c0.7,0,1.8,0,2.2,0c0-1.2,2-5.2,4.1-5c0.1,0,0.3,0,0.5,0.1
							c-1.9,0.6-2.3,5-2.3,5s6.3,0.5,8.5-0.1c2.2-0.6,2.9-3.9,3.1-5c0.1-0.5,0.1-0.9,0.1-1.3c-0.1-1.4-0.2-3.2-0.2-5.1
							c0-3,1.2-5.5,2.9-5.5c0.1,0,0.1,0,0.2,0C206.2,155,204.8,154.1,204.8,153.1z M134.2,124.4c1.5-0.1,3.3,0.3,3.3,0.3
							c-0.1,0.3-0.2,0.5-0.8,1c-0.8,0.8-1.3,0.8-2.2,0.9c-1.5,0.1-2.3-0.8-2.4-1.7C132.1,124.9,132.7,124.6,134.2,124.4z
							 M130.4,128.8c0.6,0,2.2-0.2,2.2-0.2c0.1,0,0.2,0.1,0.2,0.1c0,0.1,0,0.2-0.1,0.2l-2.2,1.2c0,0-0.1,0-0.1,0c0,0-0.1,0-0.1,0
							l-2.3-1.2c-0.1,0-0.1-0.1-0.1-0.2c0-0.1,0.1-0.1,0.2-0.1C128.1,128.5,129.8,128.8,130.4,128.8z M124.1,125.8
							c-0.6-0.5-0.7-0.7-0.8-1c0-0.1,1.8-0.5,3.3-0.3c1.5,0.1,2.1,0.5,2.1,0.6c-0.1,0.9-0.9,1.8-2.4,1.7
							C125.3,126.6,124.9,126.5,124.1,125.8z M130.4,137.2l-0.1,0v0c-2.3,0-2.7-2-3.4-3.4c-0.5-1-1-2.8-0.7-2.5
							c1.7,1.2,4.2-0.1,4.2-0.1s2.4,1.3,4.2,0.1c0.3-0.2-0.1,1.5-0.7,2.5C133.1,135.2,132.8,137.2,130.4,137.2z M139.9,140.7
							c-0.7,0.8,0.2,2.8,1.2,4.3c-3.1-0.3-6.4,0.7-6.7,2.5c0,0.1,0,0.2,0,0.3c-0.3-0.4-0.6-0.9-0.5-1.3c0.2-1.6,2.4-2.8,5.1-2.5
							c-0.9-1-1-3-0.4-3.9c0.4-0.8,1.3-1.7,3.5-1.3c-1.8-1.1-2.3-2.7-2.1-3.8c0.1-0.8,1.6-1,1.8-1c-0.3,0.2-0.5,0.5-0.6,0.8
							c-0.3,1.2,1.3,3.4,3.5,5C142.1,139.5,140.6,139.8,139.9,140.7z"/>
						<path class="st3" d="M174.2,157c-0.3-0.1-0.6-0.2-0.9-0.3c-2.7-0.6-5-1.8-5-2.9c0-1,1.8-2.1,4.2-2.7c-0.3-0.5-0.3-0.5-0.6-1
							c-1.8-2.7-3.6-3.9-4.6-4.1c-0.3-0.1-1-0.1-2.3,0.1c-3,0.6-6.2,1.2-6.9,2.5c-1.5,2.8-1,5.3,1,8c1.9,2.4,2.7,3.4,1.7,4.6
							c-1.4,1.3-3.2,2.6-3.8,3.1c-1,0.9-1.6,1.9-2.6,1.9c-0.8-0.2-1.2-0.4-2.2-0.4c-0.7-0.1-1.4,0.4-1.9,1.2c-0.4-0.1-1-0.1-1.2-0.1
							c-1.2-0.1-2.3,1.2-3.1,2.7c-0.5,0.9-0.4,2.3-0.4,2.3s0.4,0.2,1.6,0.1c0.1-0.9,0.9-3,2.7-4.4c-0.8,1.6-1.2,3.8-1.1,4.4
							c0.6,0,1.6,0,1.9,0c0-1.1,1.8-5,3.7-4.8c0.1,0,0.3,0,0.4,0.1c-1.7,0.6-2,4.9-2,4.9s5.2,0.4,7.2-0.1c1.9-0.6,2.1-1,2.5-2
							c0.1-0.6,0.3-1.2,0.8-1.8c2-2.4,4.5-3.7,5.9-2.8c0.1,0.1,0.2,0.1,0.4,0.2c-0.7-1.2-0.8-2.3-0.3-2.9c0.7-0.7,2.2-0.7,4,0
							c0,0,0,0,0,0c-2.1-0.9-3.5-2.3-3.2-3.6C170.4,157.9,172.1,157.1,174.2,157z"/>
					</g>
				</g>
			</g>
		</g>
	</g>
</g>
</svg>
