<!-- Generator: Adobe Illustrator 17.1.0, SVG Export Plug-In  -->
<svg version="1.1"
	 xmlns="http://www.w3.org/2000/svg" xmlns:xlink="http://www.w3.org/1999/xlink" xmlns:a="http://ns.adobe.com/AdobeSVGViewerExtensions/3.0/"
	 x="0px" y="0px" width="50px" height="50px" viewBox="0 0 50 50" enable-background="new 0 0 50 50" xml:space="preserve">
<defs>
</defs>
<g>
	<circle fill="#FEED00" cx="25" cy="25" r="25"/>
	<g>
		<polygon points="11.138,19.778 9.013,18.864 8.912,20.834 11.008,21.736 		"/>
		<polygon points="39.062,28.264 38.932,30.222 41.056,31.136 41.157,29.166 		"/>
		<polygon points="39.949,24.879 39.151,25.464 39.551,18.264 37.155,17.306 35.668,18.013 35.668,18 33.455,19.063 33.341,22.006 
			33.348,22.002 33.161,27.118 33.186,27.125 32.719,27.401 31.597,25.509 31.561,24.018 30.215,19.994 29.194,20.469 
			28.132,21.022 28.115,21.04 28.153,19.092 26.16,20.335 25.823,31.393 23.482,32.402 23.226,35.114 25.757,33.572 25.71,35.114 
			27.861,34.191 27.892,32.578 27.389,32.578 27.898,32.268 27.898,32.268 28.181,32.095 28.309,32.017 28.309,32.017 
			28.901,31.656 28.953,30.042 27.932,30.482 28.076,23.067 29.44,22.203 29.44,22.203 29.698,24.018 29.194,25.162 31.623,29.252 
			33.696,29.049 35.303,28.058 35.348,25.851 35.348,25.851 35.55,20.896 34.987,20.896 35.784,20.41 37.359,19.38 36.883,27.127 
			39.008,28.041 40.919,26.742 		"/>
		<polygon points="24.36,14.886 22.209,15.809 22.178,17.422 22.681,17.422 22.172,17.732 22.172,17.732 22.156,17.743 
			21.761,17.983 21.761,17.983 21.169,18.344 21.117,19.958 22.138,19.518 21.994,26.933 20.63,27.797 20.372,25.982 20.876,24.838 
			18.447,20.748 16.374,20.952 14.767,21.943 14.722,24.149 14.722,24.149 14.52,29.104 15.083,29.104 14.286,29.591 12.711,30.62 
			13.187,22.873 11.062,21.959 9.151,23.258 10.121,25.121 10.919,24.536 10.518,31.737 12.915,32.694 14.402,31.987 14.401,32 
			16.615,30.937 16.729,27.994 16.722,27.999 16.909,22.882 16.884,22.875 17.351,22.599 18.473,24.491 18.509,25.982 
			19.855,30.006 20.876,29.531 21.938,28.978 21.955,28.961 21.917,30.908 23.909,29.666 24.247,18.608 26.587,17.598 
			26.844,14.886 24.313,16.428 		"/>
	</g>
</g>
</svg>
