<!-- Generator: Adobe Illustrator 17.1.0, SVG Export Plug-In  -->
<svg version="1.1"
	 xmlns="http://www.w3.org/2000/svg" xmlns:xlink="http://www.w3.org/1999/xlink" xmlns:a="http://ns.adobe.com/AdobeSVGViewerExtensions/3.0/"
	 x="0px" y="0px" width="52.548px" height="52.443px" viewBox="0 0 52.548 52.443" enable-background="new 0 0 52.548 52.443"
	 xml:space="preserve">
<defs>
</defs>
<g>
	<defs>
		<circle id="SVGID_1_" cx="23.808" cy="23.808" r="23.808"/>
	</defs>
	<use xlink:href="#SVGID_1_"  overflow="visible" fill="#1D1D1B"/>
	<clipPath id="SVGID_2_">
		<use xlink:href="#SVGID_1_"  overflow="visible"/>
	</clipPath>
	<g clip-path="url(#SVGID_2_)">
		<g>
			<defs>
				<circle id="SVGID_3_" cx="23.808" cy="23.808" r="23.808"/>
			</defs>
			<use xlink:href="#SVGID_3_"  overflow="visible" fill="#1D1D1B"/>
			<clipPath id="SVGID_4_">
				<use xlink:href="#SVGID_3_"  overflow="visible"/>
			</clipPath>
			<g clip-path="url(#SVGID_4_)">
				<path fill="#1D1D1B" d="M7.861,34.914l2.363-5.956l-2.309-1.533l-0.169-5.873l3.455-0.655l2.429,1.613l0.92-2.319l3.486,2.315
					l-0.083-2.88l0.659-0.125l-1.823-1.211l-0.177-5.871l1.446-0.275l3.929,2.609l1.469-3.703l9.72,6.455l0.409-0.851l1.443-0.273
					l12.663,8.362c0.066,0.666,5.747,13.454,0.544,20.424c-5.291,7.087-20.511,2.271-21.298,2.396L7.861,34.914z"/>
				<path fill="#FFFFFF" d="M23.517,11.249l9.46,6.282l0.25,0.166l0.13-0.271l0.315-0.656l1.326-0.251l12.566,8.298
					c0.037,0.412,5.357,8.436,4.962,10.559c-0.433,2.322-1.547,5.892-4.398,9.712c-2.842,3.807-7.042,6.021-10.065,7.209
					c-2.934,1.152-10.592-4.955-11.098-4.872L8.022,34.863l2.285-5.759l0.078-0.197l-0.177-0.117l-2.164-1.437L7.88,21.659
					l3.293-0.624l2.25,1.494l0.269,0.179l0.119-0.3l0.801-2.018l3.141,2.086l0.421,0.28l-0.015-0.505l-0.072-2.516l0.234-0.044
					l0.631-0.12l-0.535-0.355l-1.499-0.996l-0.172-5.692l1.284-0.244l3.75,2.49l0.269,0.179l0.119-0.3L23.517,11.249 M23.393,10.853
					l-1.469,3.703l-3.839-2.549l-1.608,0.305l0.183,6.051l1.612,1.071l-0.453,0.086l0.079,2.739l-3.41-2.264l-0.92,2.319
					l-2.339-1.553l-3.617,0.685l0.174,6.053l2.277,1.512l-2.363,5.956l19.205,12.737c0,0,15.854,5.018,21.433-2.455
					c5.578-7.473-0.525-20.578-0.525-20.578l-12.758-8.425l-1.56,0.295l-0.372,0.775L23.393,10.853L23.393,10.853z"/>
			</g>
			<polygon clip-path="url(#SVGID_4_)" fill="#FFFFFF" points="11.229,20.758 11.271,22.219 9.262,22.6 9.284,23.352 11.293,22.971 
				11.335,24.432 9.326,24.813 9.394,27.191 7.787,27.496 7.612,21.443 9.22,21.139 			"/>
			<polygon clip-path="url(#SVGID_4_)" fill="#FFFFFF" points="14.078,25.026 15.147,24.823 15.153,24.835 14.648,26.083 
				14.071,25.044 			"/>
			<polygon clip-path="url(#SVGID_4_)" fill="#FFFFFF" points="18.086,12.006 18.218,16.598 20.629,16.141 20.672,17.602 
				18.26,18.059 16.66,18.362 16.478,12.311 			"/>
			<polygon clip-path="url(#SVGID_4_)" fill="#FFFFFF" points="9.964,33.258 11.034,33.055 11.039,33.067 10.535,34.314 
				9.958,33.275 			"/>
			<polygon clip-path="url(#SVGID_4_)" fill="#FFFFFF" points="14.488,19.993 17.52,25.651 15.667,26.003 15.153,24.835 
				14.574,23.524 14.078,25.026 14.071,25.044 13.627,26.389 11.814,26.733 			"/>
			<polygon clip-path="url(#SVGID_4_)" fill="#FFFFFF" points="10.375,28.224 13.406,33.883 11.554,34.234 11.039,33.067 
				10.461,31.755 9.964,33.258 9.513,34.621 7.701,34.964 			"/>
			<polygon clip-path="url(#SVGID_4_)" fill="#FFFFFF" points="22.983,15.887 24.053,15.684 24.058,15.695 23.553,16.943 
				22.976,15.905 			"/>
			<polygon clip-path="url(#SVGID_4_)" fill="#FFFFFF" points="23.393,10.853 26.425,16.512 24.572,16.863 24.058,15.695 
				23.479,14.383 22.983,15.887 22.532,17.249 20.719,17.593 			"/>
			<path clip-path="url(#SVGID_4_)" fill="#FFFFFF" d="M20.412,21.983c0.179-0.028,1.616-0.212,1.657,1.207
				c0.046,1.591-1.519,1.887-1.602,1.903l-2.475,0.469l-0.174-6.043l2.301-0.436c0,0,0.006-0.001,0.018-0.003
				c0.175-0.028,1.553-0.203,1.592,1.141c0.043,1.504-1.432,1.784-1.51,1.798l0.174-0.033C20.394,21.986,20.4,21.985,20.412,21.983z
				 M20.227,23.887c0.019-0.003,0.386-0.056,0.373-0.505c-0.012-0.403-0.335-0.369-0.39-0.361c-0.005,0.001-0.008,0.001-0.008,0.001
				l-0.828,0.157l0.025,0.865L20.227,23.887 M19.295,20.421l0.024,0.821l0.741-0.14c0,0,0.001,0,0.004-0.001
				c0.039-0.006,0.359-0.07,0.347-0.492c-0.011-0.37-0.313-0.339-0.366-0.33c-0.005,0.001-0.008,0.001-0.008,0.001L19.295,20.421"/>
			<path clip-path="url(#SVGID_4_)" fill="#FFFFFF" d="M17.674,26.903c1.323-0.21,1.752,0.99,1.775,1.054l-1.056,0.747
				c-0.015-0.025-0.309-0.502-0.734-0.434c-0.268,0.042-0.429,0.237-0.429,0.524c0.008,0.294,0.263,0.341,0.463,0.382
				c0.574,0.117,1.799,0.294,1.839,1.677c0.039,1.366-0.882,2.115-1.742,2.277c-0.02,0.004-0.04,0.007-0.06,0.011
				c-1.222,0.193-1.834-0.826-1.866-0.88l0.99-0.848c0.192,0.236,0.558,0.389,0.861,0.341c0.007-0.001,0.013-0.002,0.02-0.003
				c0.245-0.047,0.42-0.271,0.414-0.505c-0.009-0.328-0.359-0.375-0.655-0.432c-0.486-0.091-1.522-0.294-1.565-1.782
				c-0.028-0.959,0.737-1.939,1.682-2.118C17.632,26.91,17.653,26.907,17.674,26.903z"/>
			<path clip-path="url(#SVGID_4_)" fill="#FFFFFF" d="M26.222,21.568l1.189,2.209l-1.719,0.326l-1.08-2.013l-0.284,0.055
				l0.064,2.205l-1.607,0.304l-0.174-6.053l1.592-0.301l1.135-0.216c0.157-0.025,1.627-0.212,1.679,1.621
				C27.045,20.691,26.633,21.255,26.222,21.568z M25.059,20.537c0.018-0.003,0.355-0.067,0.342-0.543
				c-0.012-0.43-0.338-0.388-0.366-0.383l-0.774,0.147l0.027,0.925L25.059,20.537"/>
			<path clip-path="url(#SVGID_4_)" fill="#FFFFFF" d="M22.714,25.939c1.531-0.243,2.796,0.898,2.845,2.589
				c0.049,1.712-1.18,3.353-2.748,3.651c-0.027,0.005-0.054,0.01-0.081,0.014c-1.533,0.243-2.797-0.907-2.846-2.589
				c-0.05-1.72,1.179-3.353,2.748-3.651C22.659,25.948,22.687,25.944,22.714,25.939z M22.763,30.485
				c0.646-0.123,1.205-0.802,1.181-1.649c-0.023-0.792-0.598-1.301-1.232-1.201c-0.01,0.002-0.02,0.003-0.031,0.005
				c-0.647,0.123-1.204,0.854-1.181,1.658c0.024,0.833,0.595,1.293,1.229,1.193C22.74,30.489,22.752,30.487,22.763,30.485"/>
			<polygon clip-path="url(#SVGID_4_)" fill="#FFFFFF" points="29.609,17.275 29.784,23.328 28.175,23.632 28.001,17.58 			"/>
			<polygon clip-path="url(#SVGID_4_)" fill="#FFFFFF" points="35.054,16.244 33.493,19.504 35.489,22.246 33.882,22.551 
				32.264,20.336 32.337,22.844 30.729,23.149 30.555,17.096 32.162,16.792 32.231,19.169 33.494,16.539 			"/>
			<polygon clip-path="url(#SVGID_4_)" fill="#FFFFFF" points="31.06,24.461 31.236,30.583 27.679,28.406 27.758,31.164 
				26.324,31.435 26.145,25.245 29.598,27.364 29.515,24.754 			"/>
			<path clip-path="url(#SVGID_4_)" fill="#FFFFFF" d="M33.68,23.869c1.324-0.21,1.753,0.991,1.775,1.054l-1.056,0.748
				c-0.015-0.025-0.308-0.501-0.734-0.434c-0.269,0.043-0.429,0.238-0.429,0.524c0.009,0.294,0.263,0.341,0.463,0.382
				c0.574,0.117,1.799,0.293,1.839,1.678c0.039,1.365-0.882,2.114-1.741,2.277c-0.02,0.004-0.04,0.007-0.06,0.011
				c-1.222,0.194-1.835-0.826-1.867-0.88l0.99-0.848c0.193,0.235,0.558,0.388,0.862,0.34c0.007-0.001,0.013-0.002,0.02-0.003
				c0.244-0.046,0.42-0.27,0.413-0.504c-0.009-0.328-0.359-0.375-0.654-0.433c-0.486-0.09-1.523-0.293-1.565-1.781
				c-0.028-0.959,0.737-1.939,1.683-2.119C33.639,23.876,33.66,23.873,33.68,23.869z"/>
		</g>
		<path fill="#1D1D1B" d="M7.861,34.914l2.363-5.956l-2.309-1.533l-0.169-5.873l3.455-0.655l2.429,1.613l0.92-2.319l3.486,2.315
			l-0.083-2.88l0.659-0.125l-1.823-1.211l-0.177-5.871l1.446-0.275l3.929,2.609l1.469-3.703l9.72,6.455l0.409-0.851l1.443-0.273
			l12.663,8.362c0.066,0.666,5.747,13.454,0.544,20.424c-5.291,7.087-20.511,2.271-21.298,2.396L7.861,34.914z"/>
		<path fill="#FFFFFF" d="M23.517,11.249l9.46,6.282l0.25,0.166l0.13-0.271l0.315-0.656l1.326-0.251l12.566,8.298
			c0.037,0.412,5.357,8.436,4.962,10.559c-0.433,2.322-1.547,5.892-4.398,9.712c-2.842,3.807-7.042,6.021-10.065,7.209
			c-2.934,1.152-10.592-4.955-11.098-4.872L8.022,34.863l2.285-5.759l0.078-0.197l-0.177-0.117l-2.164-1.437L7.88,21.659
			l3.293-0.624l2.25,1.494l0.269,0.179l0.119-0.3l0.801-2.018l3.141,2.086l0.421,0.28l-0.015-0.505l-0.072-2.516l0.234-0.044
			l0.631-0.12l-0.535-0.355l-1.499-0.996l-0.172-5.692l1.284-0.244l3.75,2.49l0.269,0.179l0.119-0.3L23.517,11.249 M23.393,10.853
			l-1.469,3.703l-3.839-2.549l-1.608,0.305l0.183,6.051l1.612,1.071l-0.453,0.086l0.079,2.739l-3.41-2.264l-0.92,2.319l-2.339-1.553
			l-3.617,0.685l0.174,6.053l2.277,1.512l-2.363,5.956l19.205,12.737c0,0,15.854,5.018,21.433-2.455
			c5.578-7.473-0.525-20.578-0.525-20.578l-12.758-8.425l-1.56,0.295l-0.372,0.775L23.393,10.853L23.393,10.853z"/>
	</g>
	<polygon clip-path="url(#SVGID_2_)" fill="#FFFFFF" points="11.229,20.758 11.271,22.219 9.262,22.6 9.284,23.352 11.293,22.971 
		11.335,24.432 9.326,24.813 9.394,27.191 7.787,27.496 7.612,21.443 9.22,21.139 	"/>
	<polygon clip-path="url(#SVGID_2_)" fill="#FFFFFF" points="14.078,25.026 15.147,24.823 15.153,24.835 14.648,26.083 
		14.071,25.044 	"/>
	<polygon clip-path="url(#SVGID_2_)" fill="#FFFFFF" points="18.086,12.006 18.218,16.598 20.629,16.141 20.672,17.602 
		18.26,18.059 16.66,18.362 16.478,12.311 	"/>
	<polygon clip-path="url(#SVGID_2_)" fill="#FFFFFF" points="9.964,33.258 11.034,33.055 11.039,33.067 10.535,34.314 9.958,33.275 
			"/>
	<polygon clip-path="url(#SVGID_2_)" fill="#FFFFFF" points="14.488,19.993 17.52,25.651 15.667,26.003 15.153,24.835 
		14.574,23.524 14.078,25.026 14.071,25.044 13.627,26.389 11.814,26.733 	"/>
	<polygon clip-path="url(#SVGID_2_)" fill="#FFFFFF" points="10.375,28.224 13.406,33.883 11.554,34.234 11.039,33.067 
		10.461,31.755 9.964,33.258 9.513,34.621 7.701,34.964 	"/>
	<polygon clip-path="url(#SVGID_2_)" fill="#FFFFFF" points="22.983,15.887 24.053,15.684 24.058,15.695 23.553,16.943 
		22.976,15.905 	"/>
	<polygon clip-path="url(#SVGID_2_)" fill="#FFFFFF" points="23.393,10.853 26.425,16.512 24.572,16.863 24.058,15.695 
		23.479,14.383 22.983,15.887 22.532,17.249 20.719,17.593 	"/>
	<path clip-path="url(#SVGID_2_)" fill="#FFFFFF" d="M20.412,21.983c0.179-0.028,1.616-0.212,1.657,1.207
		c0.046,1.591-1.519,1.887-1.602,1.903l-2.475,0.469l-0.174-6.043l2.301-0.436c0,0,0.006-0.001,0.018-0.003
		c0.175-0.028,1.553-0.203,1.592,1.141c0.043,1.504-1.432,1.784-1.51,1.798l0.174-0.033C20.394,21.986,20.4,21.985,20.412,21.983z
		 M20.227,23.887c0.019-0.003,0.386-0.056,0.373-0.505c-0.012-0.403-0.335-0.369-0.39-0.361c-0.005,0.001-0.008,0.001-0.008,0.001
		l-0.828,0.157l0.025,0.865L20.227,23.887 M19.295,20.421l0.024,0.821l0.741-0.14c0,0,0.001,0,0.004-0.001
		c0.039-0.006,0.359-0.07,0.347-0.492c-0.011-0.37-0.313-0.339-0.366-0.33c-0.005,0.001-0.008,0.001-0.008,0.001L19.295,20.421"/>
	<path clip-path="url(#SVGID_2_)" fill="#FFFFFF" d="M17.674,26.903c1.323-0.21,1.752,0.99,1.775,1.054l-1.056,0.747
		c-0.015-0.025-0.309-0.502-0.734-0.434c-0.268,0.042-0.429,0.237-0.429,0.524c0.008,0.294,0.263,0.341,0.463,0.382
		c0.574,0.117,1.799,0.294,1.839,1.677c0.039,1.366-0.882,2.115-1.742,2.277c-0.02,0.004-0.04,0.007-0.06,0.011
		c-1.222,0.193-1.834-0.826-1.866-0.88l0.99-0.848c0.192,0.236,0.558,0.389,0.861,0.341c0.007-0.001,0.013-0.002,0.02-0.003
		c0.245-0.047,0.42-0.271,0.414-0.505c-0.009-0.328-0.359-0.375-0.655-0.432c-0.486-0.091-1.522-0.294-1.565-1.782
		c-0.028-0.959,0.737-1.939,1.682-2.118C17.632,26.91,17.653,26.907,17.674,26.903z"/>
	<path clip-path="url(#SVGID_2_)" fill="#FFFFFF" d="M26.222,21.568l1.189,2.209l-1.719,0.326l-1.08-2.013l-0.284,0.055l0.064,2.205
		l-1.607,0.304l-0.174-6.053l1.592-0.301l1.135-0.216c0.157-0.025,1.627-0.212,1.679,1.621
		C27.045,20.691,26.633,21.255,26.222,21.568z M25.059,20.537c0.018-0.003,0.355-0.067,0.342-0.543
		c-0.012-0.43-0.338-0.388-0.366-0.383l-0.774,0.147l0.027,0.925L25.059,20.537"/>
	<path clip-path="url(#SVGID_2_)" fill="#FFFFFF" d="M22.714,25.939c1.531-0.243,2.796,0.898,2.845,2.589
		c0.049,1.712-1.18,3.353-2.748,3.651c-0.027,0.005-0.054,0.01-0.081,0.014c-1.533,0.243-2.797-0.907-2.846-2.589
		c-0.05-1.72,1.179-3.353,2.748-3.651C22.659,25.948,22.687,25.944,22.714,25.939z M22.763,30.485
		c0.646-0.123,1.205-0.802,1.181-1.649c-0.023-0.792-0.598-1.301-1.232-1.201c-0.01,0.002-0.02,0.003-0.031,0.005
		c-0.647,0.123-1.204,0.854-1.181,1.658c0.024,0.833,0.595,1.293,1.229,1.193C22.74,30.489,22.752,30.487,22.763,30.485"/>
	<polygon clip-path="url(#SVGID_2_)" fill="#FFFFFF" points="29.609,17.275 29.784,23.328 28.175,23.632 28.001,17.58 	"/>
	<polygon clip-path="url(#SVGID_2_)" fill="#FFFFFF" points="35.054,16.244 33.493,19.504 35.489,22.246 33.882,22.551 
		32.264,20.336 32.337,22.844 30.729,23.149 30.555,17.096 32.162,16.792 32.231,19.169 33.494,16.539 	"/>
	<polygon clip-path="url(#SVGID_2_)" fill="#FFFFFF" points="31.06,24.461 31.236,30.583 27.679,28.406 27.758,31.164 
		26.324,31.435 26.145,25.245 29.598,27.364 29.515,24.754 	"/>
	<path clip-path="url(#SVGID_2_)" fill="#FFFFFF" d="M33.68,23.869c1.324-0.21,1.753,0.991,1.775,1.054l-1.056,0.748
		c-0.015-0.025-0.308-0.501-0.734-0.434c-0.269,0.043-0.429,0.238-0.429,0.524c0.009,0.294,0.263,0.341,0.463,0.382
		c0.574,0.117,1.799,0.293,1.839,1.678c0.039,1.365-0.882,2.114-1.741,2.277c-0.02,0.004-0.04,0.007-0.06,0.011
		c-1.222,0.194-1.835-0.826-1.867-0.88l0.99-0.848c0.193,0.235,0.558,0.388,0.862,0.34c0.007-0.001,0.013-0.002,0.02-0.003
		c0.244-0.046,0.42-0.27,0.413-0.504c-0.009-0.328-0.359-0.375-0.654-0.433c-0.486-0.09-1.523-0.293-1.565-1.781
		c-0.028-0.959,0.737-1.939,1.683-2.119C33.639,23.876,33.66,23.873,33.68,23.869z"/>
</g>
</svg>
