<!-- Generator: Adobe Illustrator 17.1.0, SVG Export Plug-In  -->
<svg version="1.1"
	 xmlns="http://www.w3.org/2000/svg" xmlns:xlink="http://www.w3.org/1999/xlink" xmlns:a="http://ns.adobe.com/AdobeSVGViewerExtensions/3.0/"
	 x="0px" y="0px" width="150px" height="39.914px" viewBox="0 0 150 39.914" enable-background="new 0 0 150 39.914"
	 xml:space="preserve">
<defs>
</defs>
<g>
	<g>
		<g>
			<path fill="#FF445D" d="M49.893,39.843h-0.567v-8.278h0.811l2.84,6.989v-6.989h0.567v8.278h-0.689l-2.961-7.379L49.893,39.843
				L49.893,39.843z"/>
			<path fill="#FF445D" d="M55.247,33.587c0-1.206,0.636-2.093,2.068-2.093c1.46,0,2.096,0.887,2.096,2.093v4.233
				c0,1.206-0.636,2.094-2.096,2.094c-1.433,0-2.068-0.888-2.068-2.094V33.587z M55.869,37.857c0,0.898,0.405,1.561,1.446,1.561
				c1.055,0,1.474-0.662,1.474-1.561v-4.305c0-0.898-0.419-1.562-1.474-1.562c-1.041,0-1.446,0.663-1.446,1.562V37.857z"/>
			<path fill="#FF445D" d="M63.089,31.565c1.446,0,2.028,0.698,2.028,1.869v0.721c0,0.97-0.434,1.526-1.366,1.715
				c0.974,0.189,1.366,0.793,1.366,1.691v1.289c0,0.343,0.026,0.721,0.229,0.993h-0.649c-0.162-0.248-0.202-0.544-0.202-0.993
				v-1.301c0-1.1-0.689-1.407-1.771-1.407h-0.986v3.701h-0.622v-8.278H63.089z M62.737,35.645c1.108,0,1.758-0.271,1.758-1.384
				v-0.78c0-0.887-0.393-1.419-1.42-1.419h-1.338v3.583H62.737z"/>
			<path fill="#FF445D" d="M70.187,39.831h-0.622l-2.001-7.32v7.332H67.01v-8.278h0.892l1.987,7.32l1.975-7.32h0.892v8.278h-0.595
				v-7.355L70.187,39.831z"/>
			<path fill="#FF445D" d="M75.419,38.01l-0.473,1.833h-0.568l2.068-8.29h0.906l2.109,8.29h-0.622l-0.474-1.833H75.419z
				 M75.514,37.537h2.758l-1.393-5.357L75.514,37.537z"/>
			<path fill="#FF445D" d="M81.652,39.843h-0.567v-8.278h0.811l2.84,6.989v-6.989h0.567v8.278h-0.689l-2.961-7.379L81.652,39.843
				L81.652,39.843z"/>
			<path fill="#FF445D" d="M89.13,31.565c1.46,0,2.095,0.84,2.095,2.058v4.163c0,1.218-0.635,2.058-2.095,2.058h-2.082v-8.278
				L89.13,31.565L89.13,31.565z M89.116,39.346c1.055,0,1.487-0.626,1.487-1.537v-4.21c0-0.91-0.446-1.537-1.487-1.537H87.67v7.284
				C87.67,39.346,89.116,39.346,89.116,39.346z"/>
			<path fill="#FF445D" d="M93.552,31.565v8.278H92.93v-8.278H93.552z"/>
			<path fill="#FF445D" d="M98.513,35.397v0.496h-2.582v3.453h3.109v0.497h-3.731v-8.278h3.731v0.497h-3.109v3.335
				C95.931,35.397,98.513,35.397,98.513,35.397z"/>
		</g>
		<g>
			<g>
				<path fill="#FF445D" d="M11.235,20.302c0,0.999-0.351,1.851-1.052,2.552c-0.702,0.701-1.544,1.053-2.526,1.053H4.159
					c-0.859,0-1.619-0.272-2.276-0.816c-0.657-0.543-1.074-1.227-1.249-2.051c-0.035-0.158,0.026-0.254,0.184-0.29l1.394-0.263
					c0.158-0.035,0.255,0.026,0.29,0.184c0.175,0.895,0.728,1.342,1.657,1.342h3.498c0.456,0,0.851-0.166,1.184-0.499
					c0.333-0.334,0.501-0.738,0.501-1.211c0-0.403-0.127-0.763-0.382-1.078C8.705,18.909,8.385,18.717,8,18.646l-4.736-0.842
					c-0.824-0.141-1.508-0.548-2.051-1.224c-0.544-0.674-0.816-1.435-0.816-2.274c0-1.001,0.351-1.851,1.053-2.553
					C2.151,11.052,2.993,10.7,3.975,10.7h3.499c0.858,0,1.617,0.272,2.275,0.816c0.657,0.544,1.074,1.228,1.25,2.052
					c0.034,0.158-0.026,0.255-0.185,0.289L9.42,14.121c-0.175,0-0.272-0.062-0.289-0.186c-0.07-0.385-0.264-0.705-0.579-0.96
					c-0.316-0.255-0.675-0.382-1.078-0.382H3.975c-0.456,0-0.852,0.168-1.184,0.5c-0.334,0.333-0.5,0.736-0.5,1.211
					c0,0.402,0.127,0.762,0.381,1.077s0.574,0.51,0.961,0.58l4.734,0.841c0.825,0.141,1.509,0.549,2.053,1.223
					C10.963,18.702,11.235,19.46,11.235,20.302z"/>
			</g>
			<g>
				<path fill="#FF445D" d="M26.697,19.67c0,1.176-0.412,2.176-1.235,3.001c-0.826,0.823-1.825,1.235-2.999,1.235h-2.369
					c-1.175,0-2.174-0.412-2.998-1.235c-0.824-0.825-1.236-1.825-1.236-3.001V4.455c0-1.174,0.412-2.173,1.236-2.999
					c0.824-0.823,1.823-1.235,2.998-1.235h2.369c1.174,0,2.173,0.412,2.999,1.235c0.823,0.826,1.235,1.825,1.235,2.999V19.67z
					 M24.804,19.67V4.455c0-0.648-0.228-1.201-0.684-1.657c-0.458-0.456-1.009-0.684-1.657-0.684h-2.369
					c-0.648,0-1.2,0.228-1.656,0.684c-0.457,0.456-0.685,1.009-0.685,1.657V19.67c0,0.649,0.228,1.201,0.685,1.658
					c0.456,0.455,1.008,0.684,1.656,0.684h2.369c0.648,0,1.199-0.229,1.657-0.684C24.576,20.871,24.804,20.32,24.804,19.67z"/>
			</g>
			<g>
				<path fill="#FF445D" d="M42.042,23.668c0,0.159-0.079,0.238-0.237,0.238h-1.42c-0.158,0-0.236-0.079-0.236-0.238V12.492
					c0-0.632-0.229-1.18-0.685-1.645c-0.456-0.464-0.999-0.697-1.632-0.697c-0.14,0-0.271,0.01-0.395,0.027l-2.235,0.393
					c-0.544,0.088-0.991,0.355-1.342,0.804c-0.351,0.446-0.526,0.951-0.526,1.512v10.781c0,0.159-0.079,0.238-0.236,0.238h-1.42
					c-0.159,0-0.237-0.079-0.237-0.238V8.731c0-0.158,0.078-0.237,0.237-0.237h0.972c0.142,0,0.22,0.062,0.237,0.186l0.211,1.209
					c0.561-0.684,1.21-1.087,1.947-1.209l2.104-0.369c0.228-0.034,0.455-0.053,0.683-0.053c1.141,0,2.127,0.416,2.96,1.249
					c0.834,0.834,1.25,1.828,1.25,2.986V23.668z"/>
			</g>
			<g>
				<path fill="#FF445D" d="M57.622,19.67c0,1.176-0.411,2.176-1.235,3.001c-0.825,0.823-1.825,1.235-3,1.235h-2.368
					c-1.175,0-2.174-0.412-2.997-1.235c-0.825-0.825-1.237-1.825-1.237-3.001v-3.079c0-1.177,0.412-2.175,1.237-3
					c0.823-0.824,1.822-1.236,2.997-1.236h2.368c1.175,0,2.175,0.412,3,1.236c0.824,0.825,1.235,1.823,1.235,3
					C57.622,16.591,57.622,19.67,57.622,19.67z M55.729,19.67v-3.079c0-0.649-0.229-1.202-0.685-1.658
					c-0.456-0.455-1.009-0.685-1.657-0.685h-2.368c-0.648,0-1.2,0.229-1.657,0.685c-0.456,0.456-0.684,1.009-0.684,1.658v3.079
					c0,0.649,0.228,1.201,0.684,1.658c0.457,0.455,1.009,0.684,1.657,0.684h2.368c0.648,0,1.201-0.229,1.657-0.684
					C55.5,20.871,55.729,20.32,55.729,19.67z"/>
			</g>
			<g>
				<path fill="#FF445D" d="M70.41,23.668c0,0.159-0.079,0.238-0.236,0.238h-2.578c-0.912,0-1.692-0.324-2.341-0.974
					c-0.649-0.648-0.974-1.429-0.974-2.342v-7.997h-2.578c-0.158,0-0.238-0.078-0.238-0.236v-1.421c0-0.158,0.08-0.237,0.238-0.237
					h2.578V6.701c0-0.158,0.079-0.236,0.236-0.236h1.42c0.159,0,0.237,0.078,0.237,0.236v3.998h3.999
					c0.157,0,0.236,0.079,0.236,0.237v1.421c0,0.158-0.079,0.236-0.236,0.236h-3.999v7.997c0,0.387,0.14,0.721,0.421,1
					c0.28,0.28,0.614,0.421,1,0.421h2.578c0.157,0,0.236,0.079,0.236,0.237v1.42H70.41z"/>
			</g>
			<g>
				<path fill="#FF445D" d="M86.701,23.668c0,0.159-0.078,0.238-0.237,0.238h-1.42c-0.158,0-0.236-0.079-0.236-0.238v-6.212
					c0-0.631-0.229-1.18-0.685-1.644c-0.456-0.465-0.999-0.697-1.63-0.697c-0.141,0-0.272,0.009-0.396,0.025l-2.236,0.395
					c-0.543,0.089-0.991,0.356-1.342,0.804c-0.351,0.448-0.526,0.95-0.526,1.512v5.817c0,0.159-0.078,0.238-0.236,0.238h-1.421
					c-0.157,0-0.235-0.079-0.235-0.238V8.038c0-0.157,0.078-0.236,0.235-0.236h1.421c0.158,0,0.236,0.079,0.236,0.236v6.552
					c0.491-0.526,1.062-0.844,1.711-0.948l2.104-0.368c0.229-0.034,0.456-0.054,0.685-0.054c1.14,0,2.125,0.418,2.958,1.251
					c0.834,0.833,1.25,1.828,1.25,2.985V23.668z"/>
			</g>
			<g>
				<path fill="#FF445D" d="M102.282,13.365c0,0.157-0.079,0.236-0.237,0.236h-8.707v6.069c0,0.649,0.228,1.201,0.684,1.658
					c0.455,0.455,1.009,0.684,1.657,0.684h2.368c1.122,0,1.857-0.516,2.21-1.552c0.069-0.122,0.157-0.176,0.263-0.158l1.42,0.263
					c0.158,0.036,0.22,0.132,0.184,0.291c-0.264,0.893-0.77,1.626-1.524,2.195c-0.754,0.57-1.605,0.855-2.553,0.855h-2.368
					c-1.176,0-2.175-0.412-2.999-1.235c-0.823-0.825-1.236-1.825-1.236-3.001v-9.147c0-1.175,0.413-2.175,1.236-2.999
					c0.824-0.824,1.823-1.236,2.999-1.236h2.368c1.175,0,2.174,0.412,2.998,1.236s1.237,1.824,1.237,2.999L102.282,13.365
					L102.282,13.365z M97.415,4.13c0.105,0.106,0.097,0.211-0.026,0.316l-0.368,0.368c-0.07,0.07-0.167,0.079-0.289,0.026
					l-3.604-2.395c-0.157-0.105-0.166-0.228-0.025-0.368l0.973-0.974c0.035-0.035,0.088-0.052,0.158-0.052
					c0.069,0,0.122,0.017,0.158,0.052L97.415,4.13z M100.388,11.707v-1.185c0-0.648-0.227-1.2-0.684-1.657
					c-0.456-0.455-1.009-0.684-1.657-0.684h-2.368c-0.648,0-1.202,0.229-1.657,0.684c-0.456,0.457-0.684,1.009-0.684,1.657v1.185
					H100.388z"/>
			</g>
			<g>
				<path fill="#FF445D" d="M117.744,29.325c0,0.159-0.078,0.238-0.236,0.238h-1.42c-0.159,0-0.238-0.079-0.238-0.238v-6.602
					c-0.49,0.509-1.06,0.824-1.709,0.945l-2.341,0.421c-0.229,0.036-0.466,0.054-0.71,0.054c-1.124,0-2.1-0.416-2.934-1.25
					c-0.834-0.832-1.25-1.828-1.25-2.986v-4.656c0-1.157,0.416-2.152,1.25-2.986c0.833-0.832,1.81-1.25,2.934-1.25
					c0.244,0,0.482,0.019,0.71,0.053l2.341,0.421c0.754,0.142,1.403,0.535,1.947,1.185l0.211-1.235
					c0.018-0.124,0.096-0.185,0.235-0.185h0.974c0.158,0,0.236,0.079,0.236,0.235V29.325z M115.85,19.487v-3.816
					c0-0.562-0.175-1.061-0.525-1.499c-0.351-0.439-0.789-0.701-1.314-0.79l-2.5-0.447c-0.122-0.018-0.255-0.026-0.394-0.026
					c-0.632,0-1.176,0.233-1.632,0.698c-0.456,0.464-0.684,1.013-0.684,1.644v4.656c0,0.633,0.228,1.181,0.684,1.646
					c0.456,0.465,1,0.697,1.632,0.697c0.139,0,0.271-0.01,0.394-0.026l2.5-0.447c0.525-0.087,0.964-0.351,1.314-0.789
					C115.675,20.547,115.85,20.047,115.85,19.487z"/>
			</g>
			<g>
				<path fill="#FF445D" d="M133.089,23.668c0,0.159-0.079,0.238-0.236,0.238h-0.974c-0.142,0-0.221-0.062-0.236-0.184l-0.212-1.211
					c-0.561,0.684-1.209,1.088-1.945,1.211l-2.104,0.366c-0.229,0.036-0.456,0.054-0.685,0.054c-1.14,0-2.126-0.42-2.96-1.264
					c-0.833-0.841-1.25-1.84-1.25-2.997V8.731c0-0.158,0.08-0.237,0.237-0.237h1.421c0.158,0,0.236,0.079,0.236,0.237v11.151
					c0,0.648,0.227,1.205,0.684,1.67c0.455,0.465,1.001,0.697,1.632,0.697c0.14,0,0.272-0.01,0.393-0.026l2.236-0.396
					c0.544-0.087,0.992-0.354,1.343-0.801c0.351-0.448,0.526-0.952,0.526-1.515V8.731c0-0.158,0.078-0.237,0.235-0.237h1.422
					c0.157,0,0.236,0.079,0.236,0.237L133.089,23.668L133.089,23.668z"/>
			</g>
			<g>
				<path fill="#FF445D" d="M148.669,18.879c0,0.158-0.079,0.238-0.235,0.238h-8.709v0.553c0,0.649,0.229,1.201,0.686,1.658
					c0.455,0.455,1.007,0.684,1.656,0.684h2.368c1.121,0,1.858-0.516,2.209-1.552c0.069-0.122,0.158-0.176,0.263-0.158l1.422,0.263
					c0.157,0.036,0.219,0.132,0.185,0.291c-0.265,0.893-0.773,1.626-1.527,2.195c-0.754,0.57-1.605,0.855-2.551,0.855h-2.368
					c-1.175,0-2.175-0.412-3-1.235c-0.824-0.825-1.236-1.825-1.236-3.001v-1.977c0-1.175,0.412-2.175,1.236-2.999
					c0.825-0.824,1.825-1.235,3-1.235h2.368c1.174,0,2.173,0.411,2.998,1.235c0.824,0.824,1.236,1.824,1.236,2.999v1.186H148.669z
					 M146.775,17.223v0.471c0-0.649-0.228-1.201-0.684-1.658c-0.457-0.455-1.008-0.684-1.657-0.684h-2.368
					c-0.649,0-1.201,0.229-1.656,0.684c-0.457,0.457-0.686,1.009-0.686,1.658v-0.471H146.775z"/>
			</g>
			<g>
				<g>
					<path fill="#FF445D" d="M2.869,8.008c0,0.066-0.034,0.101-0.101,0.101H2.157c-0.068,0-0.102-0.034-0.102-0.101V0.815H0.947
						c-0.067,0-0.102-0.033-0.102-0.102V0.102C0.845,0.036,0.879,0,0.947,0h1.821c0.067,0,0.101,0.035,0.101,0.102
						C2.869,0.102,2.869,8.008,2.869,8.008z"/>
				</g>
				<g>
					<path fill="#FF445D" d="M8.941,8.008c0,0.066-0.033,0.101-0.102,0.101H8.42c-0.06,0-0.095-0.026-0.101-0.079L8.24,7.566
						C8.043,7.762,7.841,7.879,7.629,7.917L6.058,8.188C5.974,8.203,5.891,8.21,5.808,8.21c-0.406,0-0.763-0.152-1.067-0.458
						C4.435,7.446,4.283,7.082,4.283,6.66V6.106c0-0.422,0.152-0.785,0.458-1.092c0.305-0.305,0.661-0.458,1.067-0.458
						c0.083,0,0.166,0.009,0.25,0.023L7.629,4.85c0.188,0.031,0.354,0.113,0.497,0.249v-1.12c0-0.203-0.072-0.377-0.215-0.521
						C7.768,3.316,7.599,3.243,7.403,3.243H6c-0.173,0-0.329,0.055-0.464,0.166C5.401,3.517,5.318,3.654,5.288,3.82
						C5.28,3.872,5.239,3.899,5.163,3.899L4.564,3.787C4.497,3.771,4.47,3.729,4.485,3.662C4.561,3.308,4.74,3.014,5.022,2.78
						C5.305,2.546,5.631,2.429,6,2.429h1.403c0.422,0,0.783,0.15,1.084,0.453C8.79,3.183,8.94,3.547,8.94,3.978L8.941,8.008
						L8.941,8.008z M8.127,6.481V6.289c0-0.348-0.191-0.556-0.576-0.623L5.967,5.384C5.923,5.377,5.878,5.372,5.831,5.372
						c-0.203,0-0.377,0.07-0.52,0.21C5.167,5.721,5.096,5.895,5.096,6.107v0.554c0,0.212,0.071,0.388,0.215,0.526
						c0.143,0.14,0.316,0.21,0.52,0.21c0.047,0,0.092-0.005,0.136-0.012l1.584-0.282C7.936,7.035,8.127,6.827,8.127,6.481z"/>
				</g>
			</g>
		</g>
	</g>
	<rect y="31.711" fill="#FF445D" width="47" height="1"/>
	<rect x="103" y="31.711" fill="#FF445D" width="47" height="1"/>
</g>
</svg>
