<?xml version="1.0" encoding="utf-8"?>
<!-- Generator: Adobe Illustrator 17.0.0, SVG Export Plug-In . SVG Version: 6.00 Build 0)  -->
<!DOCTYPE svg PUBLIC "-//W3C//DTD SVG 1.1//EN" "http://www.w3.org/Graphics/SVG/1.1/DTD/svg11.dtd">
<svg version="1.1"
	 id="svg5194" sodipodi:docname="Eure (27) logo 2016.svg" inkscape:version="0.91 r13725" xmlns:svg="http://www.w3.org/2000/svg" xmlns:rdf="http://www.w3.org/1999/02/22-rdf-syntax-ns#" xmlns:cc="http://creativecommons.org/ns#" xmlns:sodipodi="http://sodipodi.sourceforge.net/DTD/sodipodi-0.dtd" xmlns:dc="http://purl.org/dc/elements/1.1/" xmlns:inkscape="http://www.inkscape.org/namespaces/inkscape"
	 xmlns="http://www.w3.org/2000/svg" xmlns:xlink="http://www.w3.org/1999/xlink" x="0px" y="0px" width="400px" height="150.5px"
	 viewBox="0 124.504 400 150.5" enable-background="new 0 124.504 400 150.5" xml:space="preserve">
<sodipodi:namedview  inkscape:window-maximized="1" inkscape:window-y="-8" inkscape:window-x="-8" inkscape:window-height="705" inkscape:window-width="1366" fit-margin-bottom="0" inkscape:current-layer="layer1" inkscape:pageshadow="2" inkscape:document-units="px" inkscape:pageopacity="0.0" fit-margin-right="0" fit-margin-left="0" borderopacity="1.0" inkscape:zoom="0.91067961" fit-margin-top="0" bordercolor="#666666" showgrid="false" pagecolor="#ffffff" inkscape:cy="242.85714" inkscape:cx="257.14286" id="base">
	</sodipodi:namedview>
<g id="layer1" transform="translate(-306.803,-539.83699)" inkscape:groupmode="layer" inkscape:label="Calque 1">
	<g id="g296" transform="matrix(8.6674641,0,0,-8.6674641,359.3166,806.70142)">
		<path id="path298" inkscape:connector-curvature="0" fill="#295173" d="M-1.212,6.158v6.819h1.874V7.87H3.57V6.158H-1.212z"/>
	</g>
	<g id="g300" transform="matrix(8.6674641,0,0,-8.6674641,393.61375,750.18248)">
		<path id="path302" inkscape:connector-curvature="0" fill="#F25C19" d="M-2.003,4.854v1.599h1.616v-2.89h-0.809v1.291H-2.003z"/>
	</g>
	<g id="g304" transform="matrix(8.6674641,0,0,-8.6674641,594.60268,806.68894)">
		<path id="path306" inkscape:connector-curvature="0" fill="#295173" d="M-6.641,6.158h-5.897v6.815h1.875V7.87h2.148v5.103h1.874
			V6.158z"/>
	</g>
	<g id="g308" transform="matrix(8.6674641,0,0,-8.6674641,676.84824,773.61736)">
		<path id="path310" inkscape:connector-curvature="0" fill="#295173" d="M-8.539,5.394h-1.874v2.05h-2.147V2.342h-1.874v6.815
			h5.896V5.394z"/>
	</g>
	<path id="path312" inkscape:connector-curvature="0" fill="#295173" d="M455.405,717.485h-17.647v-10.644h17.647V717.485z
		 M421.505,694.25v59.071h48.746v-14.846h-32.493v-8.39h32.493V694.25H421.505z"/>
	<path id="path314" inkscape:connector-curvature="0" fill="#295173" d="M651.408,717.485h-17.633v-10.644h17.633V717.485z
		 M617.535,694.25v59.071h48.711v-14.846h-32.472v-8.39h32.472V694.25H617.535z"/>
	<g id="g316" transform="matrix(8.6674641,0,0,-8.6674641,-915.65613,1428.4776)">
		<g>
			<defs>
				<polygon id="SVGID_1_" points="33.67,25.967 294.457,25.967 294.457,384.266 33.67,384.266 33.67,25.967 				"/>
			</defs>
			<clipPath id="SVGID_2_">
				<use xlink:href="#SVGID_1_"  overflow="visible"/>
			</clipPath>
			<g id="g318" clip-path="url(#SVGID_2_)">
				<g id="g324" transform="translate(158.512,82.3134)">
					<path id="path326" inkscape:connector-curvature="0" fill="#295173" d="M-3.494,4.043c0-0.426-0.088-0.482-0.198-0.482h-0.132
						v0.886h0.121C-3.585,4.447-3.494,4.4-3.494,4.043 M-3.059,4.029c0,0.314-0.078,0.526-0.251,0.646
						c-0.125,0.086-0.262,0.095-0.367,0.095h-0.543V3.234h0.558c0.208,0,0.331,0.068,0.428,0.185
						C-3.095,3.583-3.059,3.791-3.059,4.029"/>
				</g>
				<g id="g328" transform="translate(161.3981,83.5244)">
					<path id="path330" inkscape:connector-curvature="0" fill="#295173" d="M-4.072,3.8l-0.51-0.212l-0.121,0.194l0.481,0.266
						L-4.072,3.8z M-4.882,2.022V3.56h0.894l-0.028-0.325h-0.47V2.977h0.383V2.664h-0.383V2.35h0.526V2.022H-4.882z"/>
				</g>
				<g id="g332" transform="translate(163.6078,82.8179)">
					<path id="path334" inkscape:connector-curvature="0" fill="#295173" d="M-4.514,3.942c0.094,0,0.158-0.025,0.158-0.152
						c0-0.168-0.058-0.202-0.18-0.202h-0.116v0.354H-4.514z M-3.925,3.787c0,0.351-0.23,0.479-0.62,0.479h-0.501V2.729h0.394v0.546
						h0.124C-4.024,3.275-3.925,3.56-3.925,3.787"/>
				</g>
				<g id="g336" transform="translate(166.1953,82.0516)">
					<path id="path338" inkscape:connector-curvature="0" fill="#295173" d="M-5.031,4.095h-0.198l0.061,0.251
						c0.027,0.104,0.038,0.188,0.042,0.245l0.029-0.216L-5.031,4.095z M-4.445,3.495L-4.91,5.032h-0.41l-0.494-1.537H-5.4
						l0.083,0.295h0.365l0.079-0.295C-4.873,3.495-4.445,3.495-4.445,3.495z"/>
				</g>
				<g id="g340" transform="translate(168.782,82.8179)">
					<path id="path342" inkscape:connector-curvature="0" fill="#295173" d="M-5.548,3.942c0.124,0,0.184-0.035,0.184-0.146
						c0-0.103-0.047-0.168-0.182-0.168h-0.113v0.314H-5.548z M-4.86,2.728c-0.05,0.115-0.181,0.4-0.231,0.503
						c-0.037,0.08-0.102,0.15-0.155,0.165c0.182,0.032,0.321,0.166,0.321,0.431c0,0.256-0.146,0.438-0.598,0.438h-0.529V2.728h0.394
						v0.61c0.086,0,0.122-0.021,0.182-0.179l0.16-0.43C-5.317,2.728-4.86,2.728-4.86,2.728z"/>
				</g>
				<g id="g344" transform="translate(172.1316,82.8145)">
					<path id="path346" inkscape:connector-curvature="0" fill="#295173" d="M-6.218,3.942h-0.357v-1.21h-0.399v1.21h-0.357V4.27
						h1.159L-6.218,3.942z"/>
				</g>
				<g id="g348" transform="translate(173.4338,81.3013)">
					<path id="path350" inkscape:connector-curvature="0" fill="#295173" d="M-6.479,4.245v1.538h0.893l-0.028-0.324h-0.47V5.2H-5.7
						V4.887h-0.383V4.574h0.527V4.245H-6.479z"/>
				</g>
				<g id="g352" transform="translate(177.4899,81.3013)">
					<path id="path354" inkscape:connector-curvature="0" fill="#295173" d="M-7.29,4.245l-0.038,0.62
						c-0.006,0.097-0.01,0.176-0.01,0.308h-0.003c-0.018-0.13-0.029-0.207-0.053-0.289l-0.187-0.639h-0.335L-8.08,4.867
						c-0.022,0.086-0.039,0.172-0.05,0.308h-0.003c0-0.136,0-0.22-0.006-0.318l-0.032-0.613h-0.396l0.15,1.538h0.483l0.15-0.61
						c0.022-0.085,0.038-0.167,0.051-0.29h0.002C-7.719,5-7.7,5.075-7.672,5.196l0.156,0.586h0.469l0.141-1.538H-7.29z"/>
				</g>
				<g id="g356" transform="translate(179.392,81.3013)">
					<path id="path358" inkscape:connector-curvature="0" fill="#295173" d="M-7.67,4.245v1.538h0.893l-0.028-0.324h-0.469V5.2
						h0.383V4.887h-0.383V4.574h0.526l0-0.329H-7.67z"/>
				</g>
				<g id="g360" transform="translate(182.8305,81.3013)">
					<path id="path362" inkscape:connector-curvature="0" fill="#295173" d="M-8.358,4.245l-0.271,0.534
						c-0.04,0.078-0.086,0.19-0.119,0.289c0.009-0.061,0.022-0.201,0.022-0.391V4.245h-0.374v1.538h0.379l0.28-0.527
						c0.044-0.082,0.09-0.19,0.128-0.294c-0.011,0.09-0.013,0.242-0.013,0.344v0.477h0.374V4.245H-8.358z"/>
				</g>
				<g id="g364" transform="translate(186.0133,82.8145)">
					<path id="path366" inkscape:connector-curvature="0" fill="#295173" d="M-8.995,3.942h-0.358v-1.21h-0.399v1.21h-0.356V4.27
						h1.159L-8.995,3.942z"/>
				</g>
				<g id="g368" transform="translate(189.8749,82.3134)">
					<path id="path370" inkscape:connector-curvature="0" fill="#295173" d="M-9.767,4.043c0-0.426-0.088-0.482-0.198-0.482h-0.133
						v0.886h0.122C-9.857,4.447-9.767,4.4-9.767,4.043 M-9.333,4.029c0,0.314-0.077,0.526-0.251,0.646
						c-0.124,0.086-0.26,0.095-0.366,0.095h-0.542V3.234h0.558c0.207,0,0.33,0.068,0.427,0.185
						C-9.368,3.583-9.333,3.791-9.333,4.029"/>
				</g>
				<g id="g372" transform="translate(191.747,81.3013)">
					<path id="path374" inkscape:connector-curvature="0" fill="#295173" d="M-10.141,4.245v1.538h0.894l-0.03-0.324h-0.47V5.2
						h0.384V4.887h-0.384V4.574h0.527V4.245H-10.141z"/>
				</g>
				<g id="g376" transform="translate(164.0883,69.476)">
					<path id="path378" inkscape:connector-curvature="0" fill="#99D420" d="M-4.61,6.61l-0.046,0.102l-0.082,0.082l-0.079,0.031
						l-0.064,0.004l-0.076-0.004l-0.046,0.003l-0.073,0.003L-5.14,6.82l-0.116-0.029l-0.052-0.018l-0.054-0.026l-0.07-0.032
						l-0.058-0.03l-0.054-0.035l-0.05-0.043l-0.044-0.046L-5.68,6.521l-0.09-0.094l-0.038-0.051l-0.257-0.429l-0.024-0.068
						l-0.037-0.076l-0.035-0.086l-0.03-0.064l-0.054-0.116l-0.02-0.062l-0.014-0.065l-0.029-0.09l-0.032-0.079l-0.023-0.068
						l-0.032-0.08l-0.026-0.099l-0.01-0.044l-0.022-0.077l-0.017-0.056l-0.014-0.064l-0.021-0.062l-0.03-0.12l-0.021-0.062
						L-6.57,4.444l-0.016-0.081l-0.035-0.142l-0.022-0.078l-0.02-0.062l-0.05-0.218l-0.022-0.093l-0.014-0.05l-0.018-0.071
						L-6.78,3.586L-6.8,3.524l-0.022-0.078l-0.01-0.043L-6.844,3.34l-0.025-0.074l-0.014-0.074l-0.012-0.054l-0.021,0.06
						L-6.93,3.252l-0.042,0.126l-0.014,0.057l-0.042,0.127L-7.05,3.654L-7.07,3.739l-0.022,0.062l-0.013,0.064l-0.015,0.056
						l-0.02,0.064l-0.014,0.063l-0.021,0.056l-0.022,0.063l-0.014,0.063l-0.035,0.12l-0.014,0.064L-7.282,4.47l-0.014,0.064
						l-0.021,0.057l-0.022,0.062L-7.366,4.78l-0.021,0.085l-0.07,0.246l-0.05,0.148l-0.014,0.063l-0.014,0.057L-7.55,5.441
						L-7.57,5.505l-0.014,0.056l-0.021,0.064l-0.022,0.056l-0.042,0.127l-0.014,0.055l-0.034,0.131L-7.744,6.08l-0.022,0.077
						L-7.79,6.242l-0.025,0.093l-0.008,0.042L-7.85,6.484l-0.05,0.148l-0.017,0.055l-0.008,0.017L-7.942,6.76l-0.056,0.042
						l-0.026,0.012l-0.025,0.015l-0.027,0.006l-0.056,0.017l-0.064,0.006h-0.07l-0.07-0.014l-0.057-0.035L-8.442,6.76L-8.47,6.703
						L-8.51,6.548l-0.011-0.067l-0.035-0.099l-0.05-0.131l-0.018-0.067l-0.022-0.079l-0.007-0.042l-0.021-0.057L-8.702,5.88
						l-0.014-0.056l-0.042-0.128L-8.78,5.64l-0.021-0.063L-8.815,5.52l-0.021-0.062L-8.85,5.393l-0.014-0.056l-0.014-0.063
						l-0.05-0.148L-8.998,4.88l-0.021-0.085l-0.027-0.126l-0.022-0.064L-9.09,4.549l-0.014-0.064l-0.022-0.056l-0.014-0.063
						l-0.034-0.119l-0.014-0.064L-9.209,4.12L-9.23,4.063L-9.244,4l-0.022-0.063L-9.279,3.88l-0.014-0.063l-0.022-0.064
						l-0.021-0.084l-0.022-0.092l-0.042-0.126l-0.014-0.056l-0.042-0.126L-9.47,3.212L-9.49,3.148l-0.021-0.091L-9.54,2.958
						l-0.028-0.077L-9.586,2.82V2.82l-0.025-0.06l-0.032-0.058L-9.674,2.65l-0.032-0.058l-0.038-0.05l-0.044-0.05l-0.05-0.042
						l-0.11-0.052l-0.062-0.031l-0.068-0.053l-0.038-0.094l0.01-0.109l0.046-0.108l0.078-0.078l0.106-0.048h0.086l0.065,0.008
						l0.062,0.018l0.052,0.014l0.066,0.024l0.057,0.038c0,0,0.221,0.054,0.366,0.439l0.005,0.004l0.05,0.17l0.014,0.063l0.022,0.064
						l0.021,0.056l0.028,0.063l0.042,0.19l0.022,0.064l0.021,0.056l0.022,0.063l0.042,0.19l0.085,0.254l0.014,0.056l0.014,0.063
						l0.042,0.126l0.014,0.057l0.022,0.063l0.014,0.07l0.015,0.063l0.021,0.056l0.042,0.127l0.034,0.136l0.027,0.103l0.028,0.099
						L-8.426,4.8l0.029,0.153l0.042,0.117l0.026,0.149l0.016,0.063l0.015,0.058l0.018,0.068l0.014,0.042l0.021,0.078l0.042,0.126
						l0.008,0.031l0.011-0.046l0.042-0.126l0.022-0.078l0.014-0.042l0.021-0.076l0.024-0.114l0.043-0.138l0.018-0.099l0.034-0.118
						l0.023-0.118l0.014-0.076l0.038-0.137l0.022-0.076l0.008-0.062l0.028-0.056l0.042-0.127l0.021-0.056l0.014-0.064l0.014-0.07
						l0.021-0.064l0.014-0.056l0.043-0.126l0.014-0.063l0.014-0.057l0.084-0.253l0.042-0.19l0.021-0.063l0.022-0.056l0.021-0.063
						l0.042-0.19l0.028-0.064l0.022-0.056l0.021-0.063l0.014-0.064l0.049-0.168l0.022-0.078l0.021-0.064l0.022-0.055l0.021-0.064
						l0.028-0.063l0.028-0.057l0.057-0.07l0.091-0.049l0.113-0.028h0.119l0.106,0.028l0.051,0.046l0.007,0.006l0.012,0.011
						l0.002,0.013l0.002,0.007l0.025,0.082l0.038,0.178l0.043,0.234l0.028,0.118l0.003,0.064l0.022,0.074l0.011,0.057l0.008,0.07
						l0.021,0.062L-6.34,3.06l0.022,0.061l0.01,0.06l0.061,0.185l0.014,0.065l0.041,0.123l0.017,0.055l0.022,0.062l0.013,0.066
						l0.011,0.059l0.03,0.13l0.04,0.123l0.017,0.056l0.015,0.065l0.02,0.062l0.011,0.058l0.02,0.062l0.014,0.066l0.017,0.056
						l0.029,0.13l0.011,0.059l0.041,0.124l0.01,0.059l0.062,0.184l0.024,0.068l0.026,0.058l0.021,0.061L-5.696,5.3l0.029,0.09
						l0.02,0.061l0.027,0.074l0.027,0.058l0.029,0.049l0.026,0.058l0.194,0.326l0.046,0.046l0.05,0.044l0.046,0.038l0.05,0.043
						l0.054,0.034l0.059,0.03l0.061,0.021l0.121,0.01l0.07,0.007l0.081,0.026l0.07,0.073l0.03,0.106L-4.61,6.61z"/>
				</g>
				<g id="g380" transform="translate(150.0262,65.7585)">
					<path id="path382" inkscape:connector-curvature="0" fill="#99D420" d="M-1.797,7.354l-0.035-0.05l-0.085-0.099L-2.016,7.12
						l-0.05-0.035L-2.13,7.05l-0.042-0.014l-0.07-0.042l-0.042-0.022l-0.064-0.028l-0.07-0.022l-0.064-0.021l-0.064-0.007
						l-0.07-0.014l-0.078-0.007L-2.78,6.858l-0.064-0.007h-0.064l-0.127,0.014l-0.127,0.006l-0.063,0.007l-0.191,0.042h-0.05
						l-0.035-0.028l-0.014-0.05V6.781L-3.524,6.71V6.59l0.007-0.071l0.014-0.056l0.042-0.127l0.07-0.114l0.042-0.05l0.042-0.042
						l0.114-0.07l0.07-0.022l0.064-0.022l0.05-0.006l0.063-0.014l0.064-0.007h0.07l0.064,0.007l0.184,0.035l0.063,0.014l0.064,0.021
						l0.057,0.022l0.12,0.05l0.114,0.057l0.098,0.078l0.05,0.035l0.05,0.042l0.099,0.092l0.085,0.099l0.035,0.05l0.042,0.056
						l0.071,0.099l0.035,0.057l0.028,0.057l0.036,0.057l0.028,0.056l0.035,0.05l0.028,0.057l0.029,0.064l0.028,0.056l0.036,0.057
						l0.049,0.035h0.064l0.064-0.042l0.035-0.063L-1.125,7.12l-0.028-0.064l-0.036-0.078l-0.042-0.078l-0.035-0.078l-0.042-0.078
						l-0.042-0.07l-0.071-0.114l-0.021-0.042l-0.042-0.063l-0.07-0.099L-1.6,6.306l-0.042-0.042l-0.042-0.05l-0.05-0.057
						L-1.755,6.13l-0.05-0.057l-0.042-0.05l-0.099-0.085l-0.07-0.056L-2.08,5.826l-0.113-0.071L-2.37,5.677l-0.057-0.021
						l-0.064-0.022L-2.583,5.62l-0.085-0.021l-0.148-0.014l-0.093-0.007L-2.986,5.57h-0.063l-0.255,0.029L-3.36,5.613l-0.064,0.022
						l-0.064,0.028l-0.056,0.029l-0.114,0.063l-0.056,0.029l-0.05,0.042l-0.049,0.05L-3.842,5.91l-0.05,0.057l-0.042,0.049
						l-0.035,0.057l-0.028,0.05l-0.028,0.064l-0.022,0.056l-0.022,0.064L-4.082,6.37l-0.014,0.056L-4.111,6.49l-0.021,0.191v0.134
						l0.007,0.063v0.064l0.042,0.191l0.021,0.056l0.014,0.064l0.022,0.064l0.014,0.063l0.022,0.064l0.028,0.078l0.035,0.085
						l0.035,0.064l0.043,0.078L-3.8,7.82l0.029,0.064l0.035,0.05l0.042,0.05l0.106,0.113l0.106,0.106l0.057,0.05l0.064,0.05
						l0.07,0.05l0.064,0.05l0.07,0.042l0.07,0.035l0.064,0.028l0.092,0.042l0.149,0.05l0.127,0.029l0.092,0.014h0.155l0.092-0.014
						L-2.2,8.606l0.092-0.022l0.063-0.021l0.064-0.028l0.057-0.029l0.042-0.028l0.099-0.085l0.042-0.05l0.042-0.071l0.035-0.085
						l0.021-0.063l0.014-0.064l0.007-0.063V7.912L-1.628,7.82l-0.007-0.07l-0.021-0.085L-1.684,7.58l-0.028-0.071l-0.022-0.035
						L-1.769,7.41L-1.797,7.354z M-2.66,8.202L-2.76,8.16l-0.085-0.042l-0.057-0.035L-3,7.998l-0.064-0.064L-3.12,7.87l-0.049-0.056
						l-0.05-0.078l-0.049-0.07l-0.036-0.064l-0.042-0.078l-0.028-0.085l-0.028-0.064l-0.022-0.056l-0.007-0.05l0.036-0.036
						l0.091-0.021l0.142-0.007l0.071-0.007h0.198l0.071,0.014l0.063,0.014l0.071,0.028l0.042,0.014l0.07,0.035l0.05,0.035
						l0.05,0.042l0.05,0.05l0.05,0.042l0.042,0.057L-2.3,7.58l0.029,0.057L-2.236,7.7l0.042,0.127l0.014,0.071l0.007,0.063
						L-2.18,8.033l-0.028,0.063l-0.042,0.05l-0.057,0.042L-2.37,8.217L-2.434,8.23l-0.064,0.007l-0.07-0.014
						C-2.568,8.224-2.66,8.202-2.66,8.202z"/>
				</g>
				<g id="g384" transform="translate(152.502,66.7664)">
					<path id="path386" inkscape:connector-curvature="0" fill="#99D420" d="M-2.292,7.152l-0.057-0.029l-0.049-0.028l-0.05-0.035
						l-0.057-0.042l-0.05-0.042l-0.114-0.078l-0.05-0.035l-0.05-0.043l-0.049-0.05L-2.9,6.671l-0.05-0.05l-0.086-0.099l-0.07-0.113
						l-0.042-0.057l-0.085-0.17L-3.311,5.95l-0.022-0.092L-3.36,5.751l-0.029-0.092l-0.042-0.191L-3.46,5.376L-3.488,5.27
						l-0.022-0.092L-3.53,5.114l-0.022-0.092l-0.014-0.078l-0.021-0.07L-3.594,4.81l-0.014-0.057l-0.021-0.057l-0.042-0.035
						l-0.064-0.021l-0.063-0.007l-0.092-0.007l-0.106,0.007l-0.092,0.014l-0.057,0.028l-0.042,0.063l-0.007,0.078l0.014,0.07
						L-4.16,4.98l0.021,0.085l0.014,0.064l0.021,0.064l0.014,0.063l0.022,0.057l0.021,0.063l0.014,0.064l0.014,0.057l0.014,0.063
						l0.022,0.064l0.021,0.057l0.029,0.127l0.014,0.056l0.007,0.064l0.022,0.064l0.014,0.063l0.022,0.064l0.021,0.085l0.029,0.092
						l0.035,0.127l0.014,0.057l0.014,0.064l0.022,0.063l0.014,0.064l0.021,0.056l0.014,0.064l0.021,0.064l0.022,0.091l0.021,0.086
						l0.014,0.063l0.042,0.127l0.014,0.057l0.021,0.064l0.029,0.127l0.05,0.07l0.091,0.05l0.114,0.014L-3.12,7.59l0.106-0.035
						l0.07-0.07l0.014-0.086l-0.014-0.07l-0.014-0.05l-0.022-0.063l-0.014-0.064l-0.021-0.057l-0.014-0.063l-0.021-0.064
						l-0.014-0.063l-0.007-0.042l0.007-0.007l0.028,0.035l0.042,0.05l0.036,0.05l0.085,0.099l0.05,0.042l0.092,0.078l0.05,0.042
						l0.092,0.092l0.142,0.113l0.056,0.036l0.057,0.028l0.057,0.035l0.057,0.021l0.063,0.022l0.092,0.022l0.085,0.014h0.162
						l0.114-0.014l0.078-0.014l0.064-0.029L-1.5,7.541l0.05-0.049l0.036-0.05l0.035-0.057l0.028-0.057l0.022-0.063l0.021-0.086
						l0.014-0.085V6.961l-0.007-0.063V6.834l-0.007-0.057l-0.014-0.063l-0.014-0.071L-1.352,6.6l-0.021-0.07l-0.022-0.092
						l-0.028-0.106l-0.029-0.092l-0.021-0.063l-0.022-0.092l-0.028-0.121L-1.55,5.85l-0.028-0.099l-0.014-0.063l-0.014-0.05
						L-1.62,5.574L-1.641,5.51l-0.014-0.056l-0.042-0.191l-0.007-0.064V5.072l0.028-0.056l0.05-0.036l0.064-0.007L-1.5,4.994
						l0.064,0.028l0.057,0.036l0.05,0.035l0.056,0.042l0.092,0.092l0.036,0.05l0.042,0.056l0.035,0.05l0.05,0.057l0.035,0.05
						l0.042,0.064l0.064,0.106l0.042,0.064l0.021,0.035l0.042,0.064l0.036,0.063l0.056,0.114l0.029,0.063l0.021,0.057l0.022,0.063
						l0.035,0.057l0.063,0.042l0.092-0.021l0.057-0.071v-0.07l-0.021-0.064l-0.029-0.056l-0.028-0.064l-0.029-0.057l-0.035-0.056
						l-0.028-0.057l-0.042-0.064l-0.022-0.042l-0.07-0.127L-0.68,5.49l-0.035-0.064l-0.07-0.113l-0.042-0.064l-0.029-0.035
						l-0.042-0.057l-0.05-0.063l-0.042-0.05l-0.078-0.085l-0.042-0.05L-1.21,4.825l-0.042-0.042l-0.057-0.043l-0.057-0.035
						l-0.113-0.056l-0.057-0.022l-0.063-0.021l-0.064-0.014L-1.72,4.584l-0.07-0.007h-0.064l-0.063,0.007l-0.057,0.014l-0.064,0.021
						l-0.056,0.022l-0.057,0.035l-0.042,0.035l-0.042,0.05l-0.029,0.064l-0.021,0.056L-2.3,4.945l-0.014,0.057v0.155L-2.3,5.249
						l0.007,0.071l0.022,0.092l0.063,0.234l0.022,0.12l0.028,0.12l0.028,0.114l0.029,0.091l0.021,0.064l0.029,0.092l0.028,0.114
						l0.022,0.113l0.028,0.092l0.028,0.127l0.007,0.064l0.028,0.134l0.007,0.063l-0.014,0.071l-0.042,0.07l-0.064,0.064L-2.088,7.18
						l-0.063,0.007L-2.215,7.18L-2.292,7.152z"/>
				</g>
				<g id="g388" transform="translate(164.8243,64.0517)">
					<path id="path390" inkscape:connector-curvature="0" fill="#99D420" d="M-4.757,7.695L-4.856,7.61l-0.113-0.07l-0.057-0.029
						l-0.114-0.07l-0.056-0.029l-0.128-0.042l-0.07-0.021l-0.127-0.022l-0.042-0.014l-0.071-0.014L-5.69,7.292h-0.064l-0.078-0.007
						h-0.064l-0.127,0.014L-6.101,7.32l-0.064,0.022l-0.05,0.021l-0.063,0.022l-0.057,0.028l-0.114,0.071l-0.05,0.042l-0.085,0.098
						L-6.618,7.68l-0.028,0.057l-0.035,0.057l-0.043,0.127l-0.028,0.127l-0.014,0.127l-0.006,0.071l0.006,0.063v0.198l0.014,0.063
						l0.014,0.057l0.014,0.064l0.022,0.127l0.014,0.07l0.014,0.064l0.022,0.057l0.021,0.063l0.029,0.064l0.028,0.057l0.022,0.063
						l0.035,0.085l0.042,0.085l0.035,0.057l0.042,0.057l0.036,0.05l0.042,0.05l0.07,0.113l0.042,0.05l0.092,0.092l0.099,0.085
						l0.05,0.035l0.056,0.042l0.064,0.042l0.078,0.05l0.078,0.042l0.056,0.029l0.071,0.028l0.042,0.014l0.078,0.028l0.042,0.014
						l0.071,0.021l0.063,0.014l0.071,0.007l0.063,0.007h0.163l0.113-0.014l0.092-0.014l0.064-0.014l0.063-0.022l0.057-0.028
						l0.127-0.078l0.078-0.042l0.05-0.043l0.035-0.042l0.043-0.049l0.042-0.057l0.085-0.156l0.021-0.063l0.007-0.064l0.007-0.057
						l0.028-0.127V9.237L-4.07,9.152l-0.007-0.078l-0.007-0.07l-0.042-0.212l-0.029-0.099l-0.021-0.071l-0.028-0.07l-0.029-0.078
						l-0.021-0.064l-0.042-0.078l-0.064-0.127l-0.035-0.078l0.007-0.05l0.056-0.006h0.042l0.078,0.006l0.05,0.007l0.063,0.014
						l0.071,0.028l0.049,0.029l0.114,0.07l0.05,0.042l0.092,0.092l0.085,0.099l0.035,0.05l0.035,0.057l0.036,0.049l0.056,0.114
						l0.064,0.12l0.021,0.042l0.043,0.064l0.063,0.035l0.085-0.014l0.057-0.063l0.007-0.078L-3.158,8.77L-3.243,8.6l-0.035-0.05
						l-0.07-0.114l-0.029-0.056l-0.035-0.05l-0.042-0.057l-0.035-0.05l-0.042-0.042l-0.092-0.099l-0.042-0.042l-0.05-0.042
						l-0.05-0.035l-0.057-0.042l-0.05-0.028l-0.113-0.057L-4.05,7.808l-0.057-0.014l-0.254-0.029l-0.078,0.007L-4.502,7.78
						l-0.057,0.014L-4.615,7.8l-0.05-0.021l-0.05-0.035L-4.757,7.695z M-6.158,8.466l-0.007-0.085l0.007-0.071l0.007-0.092
						l0.014-0.113l0.029-0.114l0.05-0.106l0.05-0.071l0.056-0.05l0.078-0.035l0.106-0.028h0.092l0.071,0.007l0.07,0.014l0.064,0.029
						l0.056,0.028l0.064,0.035l0.057,0.035l0.05,0.043l0.056,0.042l0.029,0.049v0.042l-0.029,0.05l-0.035,0.057l-0.014,0.064
						l0.014,0.085l0.029,0.085l0.05,0.042l0.056,0.035l0.064,0.007l0.063-0.014l0.05-0.014l0.042,0.007l0.029,0.042l0.021,0.056
						l0.085,0.255l0.042,0.19l0.014,0.092l0.022,0.121l0.014,0.24l-0.007,0.114l-0.028,0.12l-0.042,0.106l-0.05,0.07L-4.828,9.88
						l-0.085,0.036l-0.106,0.021L-5.11,9.944h-0.071L-5.238,9.93l-0.063-0.021l-0.07-0.042l-0.057-0.036l-0.064-0.042l-0.07-0.056
						l-0.05-0.042l-0.05-0.05l-0.035-0.05l-0.042-0.05l-0.036-0.057l-0.07-0.099l-0.035-0.056l-0.142-0.283l-0.022-0.064
						l-0.014-0.056l-0.042-0.127l-0.014-0.057l-0.022-0.064l-0.006-0.064V8.551C-6.143,8.551-6.158,8.466-6.158,8.466z"/>
				</g>
				<g id="g392" transform="translate(167.0525,67.5182)">
					<path id="path394" inkscape:connector-curvature="0" fill="#99D420" d="M-5.202,7.002l-0.064,0.191l-0.007,0.063V7.32
						l0.014,0.063l0.029,0.064l0.035,0.05l0.042,0.05l0.05,0.042l0.056,0.028l0.064,0.014h0.064l0.063-0.014l0.057-0.035
						l0.042-0.042l0.029-0.057l0.021-0.063V7.228l-0.014-0.071V7.101l0.014-0.057l0.035-0.05l0.05-0.05l0.05-0.042l0.05-0.057
						l0.078-0.092l0.05-0.042l0.092-0.092l0.05-0.056l0.028-0.036l0.05-0.056l0.05-0.042l0.042-0.05l0.071-0.114l0.021-0.063
						l0.022-0.086l0.021-0.091l-0.007-0.064l-0.021-0.064l-0.028-0.056l-0.042-0.05L-4.12,5.678l-0.042-0.05l-0.035-0.056
						l-0.036-0.05l-0.042-0.057L-4.311,5.41l-0.042-0.057l-0.035-0.056l-0.12-0.241L-4.53,4.992l-0.021-0.056l-0.014-0.064
						l-0.014-0.07l-0.014-0.064l-0.007-0.064v-0.07l0.028-0.142l0.035-0.057l0.036-0.063l0.049-0.042l0.057-0.035l0.07-0.014h0.134
						l0.064,0.014l0.064,0.021L-4,4.314l0.05,0.035l0.106,0.07l0.057,0.042l0.049,0.042l0.043,0.042l0.042,0.057l0.127,0.149
						l0.106,0.17l0.035,0.05l0.035,0.063l0.035,0.057l0.028,0.057l0.036,0.064l0.021,0.042l0.042,0.078l0.029,0.057l0.021,0.056
						l0.029,0.057l0.063,0.035l0.092-0.021l0.064-0.071V5.367L-2.91,5.303l-0.057-0.12l-0.028-0.057L-3.03,5.07l-0.057-0.114
						l-0.07-0.113L-3.194,4.78l-0.028-0.035l-0.035-0.064l-0.071-0.113l-0.085-0.114l-0.056-0.078l-0.05-0.07l-0.085-0.099
						l-0.05-0.042L-3.738,4.08l-0.056-0.042l-0.064-0.042l-0.113-0.057L-4.035,3.91l-0.057-0.029l-0.063-0.021l-0.057-0.014
						l-0.07-0.014h-0.163l-0.092,0.007l-0.142,0.028l-0.056,0.022l-0.071,0.035l-0.106,0.071l-0.05,0.042L-5.004,4.08l-0.043,0.057
						l-0.035,0.05L-5.11,4.25l-0.028,0.057L-5.153,4.37l-0.014,0.071l-0.014,0.063l-0.007,0.064v0.063l0.028,0.255l0.022,0.063
						l0.021,0.057L-5.09,5.07l0.036,0.078l0.042,0.078l0.035,0.064l0.05,0.078l0.05,0.071l0.035,0.063l0.042,0.078l0.057,0.078
						L-4.7,5.714l0.056,0.099l0.078,0.114l0.035,0.078l0.022,0.106l-0.014,0.085l-0.07,0.113l-0.042,0.057L-4.75,6.492l-0.042,0.05
						l-0.057,0.042L-4.905,6.57l-0.029-0.063l-0.014-0.064l-0.021-0.063l-0.014-0.064l-0.014-0.057l-0.021-0.063l-0.064-0.17
						l-0.021-0.064l-0.022-0.057l-0.021-0.063l-0.035-0.086l-0.036-0.078l-0.028-0.063L-5.28,5.53l-0.035-0.078l-0.036-0.07
						l-0.035-0.078l-0.042-0.078L-5.464,5.17l-0.042-0.036H-5.57L-5.627,5.17L-5.67,5.218l0.007,0.057l0.022,0.064l0.028,0.063
						l0.022,0.057l0.021,0.064l0.057,0.127l0.022,0.042l0.028,0.07l0.028,0.057l0.022,0.064l0.028,0.063l0.022,0.064l0.021,0.057
						l0.057,0.127l0.014,0.063l0.022,0.064l0.014,0.064L-5.21,6.45l0.014,0.064l0.014,0.056l0.014,0.064l0.022,0.064l0.014,0.07
						v0.064l-0.014,0.056L-5.202,7.002z"/>
				</g>
				<g id="g396" transform="translate(173.7556,63.5566)">
					<path id="path398" inkscape:connector-curvature="0" fill="#99D420" d="M-6.543,7.794l-0.064,0.014L-6.67,7.829l-0.057,0.028
						l-0.057,0.042l-0.085,0.099l-0.035,0.057l-0.022,0.064l-0.006,0.063l-0.007,0.071l0.014,0.127l0.007,0.07l0.014,0.127
						l0.028,0.128l0.014,0.049l0.014,0.064l0.021,0.078l0.014,0.057l0.021,0.064l0.014,0.063l0.022,0.064l0.014,0.063l0.022,0.086
						l0.028,0.091l0.014,0.064l0.021,0.064l0.014,0.063l0.022,0.064l0.014,0.057l0.029,0.127l0.006,0.063l0.043,0.191l0.006,0.064
						l0.007,0.07l-0.007,0.064l-0.028,0.056l-0.042,0.042L-6.65,10.39l-0.07,0.007l-0.064-0.014l-0.056-0.021l-0.17-0.106
						l-0.056-0.042l-0.099-0.085l-0.042-0.05l-0.05-0.042L-7.3,9.987L-7.342,9.93l-0.036-0.056l-0.035-0.05l-0.035-0.057
						l-0.042-0.05l-0.035-0.057l-0.029-0.056l-0.028-0.064l-0.063-0.114l-0.022-0.056L-7.71,9.244L-7.725,9.18l-0.028-0.085
						l-0.022-0.085l-0.021-0.071l-0.022-0.085L-7.845,8.77l-0.022-0.07l-0.042-0.17l-0.006-0.07l-0.022-0.092l-0.028-0.113
						l-0.029-0.092l-0.021-0.064l-0.014-0.057L-8.05,7.978l-0.029-0.057l-0.042-0.042l-0.064-0.028l-0.063-0.014l-0.071-0.007
						l-0.07,0.007h-0.071l-0.063,0.014l-0.057,0.028l-0.035,0.042l0.007,0.064l0.007,0.07l0.014,0.085l0.022,0.085l0.028,0.071
						l0.022,0.092l0.035,0.113l0.028,0.114l0.022,0.092l0.014,0.07l0.042,0.17l0.042,0.191l0.021,0.057l0.022,0.063l0.021,0.085
						l0.014,0.085l0.021,0.071l0.014,0.057l0.042,0.148l0.022,0.086l0.021,0.07l0.014,0.092l0.021,0.113v0.121l-0.006,0.092
						l-0.042,0.056l-0.071,0.036l-0.085,0.014l-0.064-0.014l-0.085-0.036l-0.07-0.042l-0.05-0.05l-0.099-0.085L-8.736,10.1
						L-8.8,10.036l-0.042-0.05l-0.035-0.05L-8.906,9.88l-0.043-0.063l-0.028-0.035l-0.05-0.078l-0.05-0.07l-0.042-0.064l-0.05-0.078
						L-9.26,9.307l-0.028-0.063L-9.31,9.18l-0.014-0.064l-0.042-0.127L-9.38,8.926l-0.014-0.071l-0.042-0.19L-9.458,8.6
						l-0.029-0.127l-0.021-0.064l-0.014-0.07l-0.022-0.071l-0.014-0.063l-0.014-0.05l-0.014-0.064l-0.021-0.063l-0.022-0.071
						l-0.05-0.063l-0.098-0.05l-0.121-0.007l-0.113,0.007l-0.113,0.042l-0.071,0.07l-0.014,0.085l0.014,0.064l0.029,0.07
						l0.014,0.042l0.021,0.071l0.014,0.063l0.022,0.092l0.021,0.085l0.014,0.064l0.042,0.127l0.014,0.057l0.021,0.064l0.014,0.063
						l0.021,0.057l0.014,0.063l0.022,0.064L-9.89,9.18l0.022,0.085l0.014,0.064l0.043,0.127l0.021,0.092l0.022,0.085l0.021,0.064
						l0.014,0.063l0.007,0.064l0.021,0.063l0.014,0.064l0.028,0.085l0.029,0.092l0.028,0.127l0.014,0.057l0.07,0.318l0.022,0.057
						l0.028,0.063l0.05,0.035l0.07,0.022l0.071,0.014l0.142-0.014l0.07-0.014l0.064-0.028l0.056-0.042l0.029-0.05l-0.007-0.064
						l-0.022-0.07l-0.021-0.064l-0.014-0.063l-0.021-0.064l-0.014-0.07l-0.022-0.064l-0.028-0.127l-0.007-0.042l0.029,0.014
						l0.035,0.063l0.042,0.057l0.035,0.057l0.042,0.05l0.035,0.056l0.042,0.05l0.05,0.064l0.042,0.042l0.035,0.042l0.099,0.085
						l0.114,0.078l0.05,0.036l0.056,0.035l0.064,0.028l0.057,0.022l0.07,0.021l0.071,0.007h0.12l0.064-0.007l0.063-0.014
						l0.057-0.021l0.057-0.028l0.05-0.036l0.042-0.042l0.042-0.05l0.056-0.113l0.022-0.057l0.021-0.063l0.007-0.064v-0.064
						l-0.007-0.085l-0.006-0.092l-0.007-0.05h0.007l0.028,0.036l0.042,0.056l0.042,0.05l0.078,0.099l0.05,0.057l0.029,0.035
						l0.092,0.106l0.042,0.05l0.05,0.035l0.106,0.085l0.057,0.042l0.05,0.035l0.057,0.029l0.063,0.028l0.064,0.014l0.085,0.014
						l0.12,0.007l0.05,0.007h0.064l0.063-0.014l0.086-0.021l0.084-0.035l0.064-0.042l0.042-0.043l0.036-0.056l0.028-0.057
						l0.014-0.057l0.022-0.063l0.007-0.064l0.007-0.057v-0.127l-0.007-0.063l-0.007-0.071l-0.029-0.127l-0.021-0.092L-6.07,9.52
						l-0.028-0.093l-0.022-0.063l-0.014-0.092l-0.022-0.078l-0.021-0.071l-0.028-0.085l-0.022-0.085l-0.022-0.07l-0.035-0.17
						l-0.014-0.07L-6.31,8.551l-0.014-0.12l0.007-0.114l0.021-0.085l0.042-0.042l0.071,0.007l0.057,0.014l0.05,0.028l0.056,0.028
						l0.057,0.043l0.05,0.035l0.099,0.098l0.035,0.05l0.085,0.114l0.035,0.035l0.042,0.057l0.248,0.396l0.028,0.063l0.064,0.128
						l0.021,0.035l0.042,0.063l0.029,0.057l0.063,0.035l0.085-0.014l0.057-0.071v-0.07l-0.028-0.064l-0.035-0.063l-0.022-0.057
						l-0.028-0.05l-0.064-0.127l-0.05-0.085l-0.042-0.071l-0.035-0.056l-0.035-0.05l-0.106-0.17L-5.461,8.48l-0.071-0.106
						l-0.042-0.057l-0.078-0.099l-0.092-0.092l-0.042-0.049l-0.042-0.042l-0.099-0.086l-0.057-0.035l-0.17-0.085l-0.063-0.021
						l-0.057-0.014l-0.071-0.007h-0.141L-6.543,7.794z"/>
				</g>
				<g id="g400" transform="translate(179.7422,65.3073)">
					<path id="path402" inkscape:connector-curvature="0" fill="#99D420" d="M-7.74,7.444l-0.014-0.035L-7.79,7.337l-0.035-0.05
						l-0.028-0.056l-0.029-0.064L-7.91,7.111l-0.071-0.113l-0.035-0.05l-0.035-0.057L-8.08,6.836l-0.036-0.057l-0.042-0.05
						L-8.2,6.673l-0.042-0.05L-8.32,6.525l-0.042-0.05l-0.042-0.043l-0.198-0.17L-8.66,6.227l-0.064-0.035l-0.078-0.036
						l-0.085-0.034L-8.95,6.1l-0.064-0.014h-0.07l-0.085,0.007l-0.085,0.021l-0.064,0.022l-0.05,0.035l-0.05,0.042l-0.05,0.071
						l-0.049,0.078l-0.022,0.064L-9.558,6.51l-0.007,0.092v0.07l0.007,0.092l0.006,0.085l-0.021,0.014l-0.035-0.05l-0.071-0.113
						l-0.07-0.099l-0.042-0.05l-0.036-0.05l-0.042-0.05l-0.035-0.05l-0.05-0.042l-0.042-0.042l-0.05-0.042l-0.05-0.035l-0.056-0.035
						l-0.078-0.05l-0.106-0.049l-0.114-0.035l-0.092-0.022l-0.127-0.014l-0.07,0.007l-0.085,0.014l-0.086,0.021L-10.973,6.1
						l-0.057,0.022l-0.05,0.034l-0.098,0.086l-0.036,0.05l-0.035,0.056l-0.042,0.078l-0.042,0.106l-0.022,0.092l-0.006,0.071
						l-0.014,0.092l-0.007,0.113v0.092l0.007,0.071l0.007,0.092l0.014,0.085l0.022,0.07l0.021,0.085l0.022,0.092l0.022,0.064
						l0.028,0.056l0.022,0.064l0.17,0.34l0.035,0.056l0.035,0.05l0.035,0.057l0.071,0.099l0.042,0.05l0.092,0.106l0.028,0.028
						l0.05,0.057l0.099,0.086l0.063,0.063l0.078,0.057l0.099,0.078l0.056,0.035l0.05,0.036l0.064,0.028l0.085,0.035l0.078,0.042
						l0.071,0.035l0.085,0.029l0.085,0.021l0.07,0.022l0.177,0.014l0.064,0.007h0.085l0.142-0.007l0.162-0.014l0.156-0.029
						l0.063-0.014l0.078-0.022l0.282-0.127l0.05-0.042l0.05-0.035l0.05-0.042l0.042-0.05l0.014-0.078l-0.029-0.099L-8.37,8.455
						l-0.078-0.049l-0.057-0.007L-8.561,8.42l-0.056,0.042l-0.064,0.036l-0.057,0.035l-0.05,0.021l-0.056,0.029l-0.064,0.028
						l-0.057,0.014l-0.12,0.028l-0.07,0.022l-0.071,0.014h-0.142l-0.05-0.006l-0.07-0.007L-9.58,8.653L-9.756,8.59l-0.071-0.036
						l-0.07-0.042l-0.05-0.035l-0.057-0.035l-0.05-0.035l-0.049-0.042l-0.057-0.05l-0.028-0.029l-0.05-0.057L-10.28,8.18
						l-0.036-0.05L-10.4,8.031l-0.035-0.05l-0.035-0.057l-0.085-0.17l-0.035-0.057l-0.043-0.127l-0.028-0.063l-0.028-0.057
						l-0.042-0.191l-0.022-0.07l-0.021-0.191V6.8l0.006-0.07l0.022-0.064l0.028-0.057l0.035-0.056l0.043-0.042l0.063-0.029
						l0.085-0.014l0.092,0.007l0.064,0.021l0.113,0.057l0.099,0.085l0.042,0.042l0.05,0.042l0.042,0.05l0.035,0.05l0.042,0.05
						l0.036,0.05l0.078,0.106l0.035,0.05l0.106,0.17l0.042,0.078l0.05,0.092l0.028,0.042l0.085,0.184l0.028,0.063l0.014,0.05
						l0.029,0.064l0.021,0.056l0.022,0.064l0.028,0.078l0.042,0.142l0.028,0.078l0.022,0.071l0.042,0.064l0.071,0.035l0.063,0.014
						l0.064-0.007l0.063-0.014l0.114-0.057l0.056-0.035l0.029-0.042l0.007-0.064l-0.022-0.056l-0.014-0.064l-0.021-0.064
						l-0.028-0.127l-0.022-0.064L-8.83,7.769l-0.042-0.127l-0.014-0.071l-0.007-0.042l-0.022-0.085l-0.014-0.063L-8.957,7.26
						l-0.021-0.085l-0.014-0.07l-0.014-0.078l-0.021-0.106L-9.049,6.8l-0.007-0.106l0.007-0.092l0.035-0.057l0.071-0.035
						l0.106-0.007l0.086,0.028l0.063,0.036l0.099,0.07l0.05,0.05l0.085,0.092l0.085,0.099l0.071,0.098l0.035,0.057l0.042,0.057
						l0.014,0.042l0.113,0.17l0.028,0.057l0.036,0.057l0.141,0.282l0.064,0.036L-7.74,7.72l0.057-0.07l0.007-0.071l-0.029-0.064
						L-7.74,7.444z"/>
				</g>
				<g id="g404" transform="translate(181.5021,66.7664)">
					<path id="path406" inkscape:connector-curvature="0" fill="#99D420" d="M-8.092,7.152l-0.057-0.029l-0.049-0.028l-0.05-0.035
						l-0.057-0.042l-0.05-0.042l-0.114-0.078l-0.049-0.035l-0.05-0.043l-0.049-0.05L-8.7,6.671l-0.05-0.05l-0.085-0.099L-8.906,6.41
						l-0.042-0.057l-0.085-0.17L-9.111,5.95l-0.022-0.092L-9.16,5.751l-0.029-0.092l-0.042-0.191L-9.26,5.376L-9.288,5.27
						l-0.022-0.092L-9.33,5.114l-0.022-0.092l-0.014-0.078l-0.021-0.07L-9.394,4.81l-0.014-0.057l-0.021-0.057l-0.042-0.035
						l-0.064-0.021l-0.063-0.007l-0.092-0.007l-0.106,0.007l-0.092,0.014l-0.057,0.028l-0.042,0.063l-0.007,0.078l0.014,0.07
						L-9.96,4.98l0.021,0.085l0.014,0.064l0.021,0.064l0.014,0.063l0.022,0.057l0.021,0.063l0.014,0.064l0.014,0.057l0.014,0.063
						l0.022,0.064l0.021,0.057l0.029,0.127l0.014,0.056l0.007,0.064l0.022,0.064l0.014,0.063l0.022,0.064l0.021,0.085l0.029,0.092
						l0.035,0.127l0.014,0.057l0.014,0.064l0.022,0.063l0.014,0.064l0.021,0.056l0.014,0.064l0.021,0.064l0.022,0.091l0.021,0.086
						l0.014,0.063l0.042,0.127l0.014,0.057l0.021,0.064l0.029,0.127l0.05,0.07l0.092,0.05l0.113,0.014L-8.92,7.59l0.106-0.035
						l0.071-0.07l0.014-0.086l-0.014-0.07l-0.014-0.05l-0.022-0.063l-0.014-0.064l-0.022-0.057l-0.014-0.063l-0.022-0.064
						l-0.014-0.063l-0.007-0.042l0.007-0.007l0.029,0.035l0.042,0.05l0.035,0.05l0.085,0.099l0.05,0.042l0.092,0.078l0.05,0.042
						l0.092,0.092l0.142,0.113l0.056,0.036l0.057,0.028l0.057,0.035l0.057,0.021l0.063,0.022l0.092,0.022l0.085,0.014h0.163
						l0.113-0.014l0.078-0.014l0.064-0.029L-7.3,7.541l0.049-0.049l0.036-0.05l0.035-0.057l0.028-0.057l0.022-0.063l0.021-0.086
						l0.014-0.085V6.961l-0.007-0.063V6.834l-0.007-0.057l-0.014-0.063l-0.014-0.071L-7.152,6.6l-0.021-0.07l-0.022-0.092
						l-0.028-0.106l-0.029-0.092l-0.021-0.063l-0.022-0.092l-0.028-0.121L-7.35,5.85l-0.028-0.099l-0.014-0.063l-0.014-0.05
						L-7.42,5.574L-7.441,5.51l-0.014-0.056l-0.042-0.191l-0.007-0.064V5.072l0.028-0.056l0.05-0.036l0.064-0.007L-7.3,4.994
						l0.063,0.028l0.057,0.036l0.05,0.035l0.056,0.042l0.092,0.092l0.036,0.05l0.042,0.056l0.035,0.05l0.05,0.057l0.035,0.05
						l0.042,0.064l0.064,0.106l0.042,0.064l0.021,0.035l0.042,0.064l0.035,0.063l0.057,0.114l0.029,0.063l0.021,0.057l0.022,0.063
						l0.035,0.057l0.064,0.042l0.091-0.021l0.057-0.071v-0.07l-0.021-0.064l-0.029-0.056l-0.028-0.064l-0.029-0.057l-0.035-0.056
						l-0.028-0.057l-0.042-0.064l-0.022-0.042l-0.07-0.127L-6.48,5.49l-0.035-0.064l-0.07-0.113l-0.042-0.064l-0.029-0.035
						l-0.042-0.057l-0.05-0.063l-0.042-0.05l-0.078-0.085l-0.042-0.05L-7.01,4.825l-0.042-0.042l-0.057-0.043l-0.057-0.035
						l-0.113-0.056l-0.057-0.022l-0.063-0.021l-0.064-0.014L-7.52,4.584l-0.07-0.007h-0.064l-0.063,0.007l-0.057,0.014l-0.064,0.021
						l-0.056,0.022l-0.057,0.035l-0.042,0.035l-0.042,0.05l-0.029,0.064l-0.021,0.056L-8.1,4.945l-0.014,0.057v0.155L-8.1,5.249
						l0.007,0.071l0.022,0.092l0.063,0.234l0.022,0.12l0.028,0.12l0.029,0.114l0.028,0.091l0.021,0.064l0.029,0.092l0.028,0.114
						l0.022,0.113l0.028,0.092l0.028,0.127l0.007,0.064L-7.71,6.89l0.006,0.063l-0.014,0.071l-0.042,0.07l-0.064,0.064L-7.887,7.18
						l-0.064,0.007L-8.015,7.18L-8.092,7.152z"/>
				</g>
				<g id="g408" transform="translate(184.0492,66.4834)">
					<path id="path410" inkscape:connector-curvature="0" fill="#99D420" d="M-8.602,7.209l0.05,0.05l0.085,0.099l0.149,0.127
						l0.05,0.035l0.056,0.042l0.05,0.035l0.057,0.029l0.064,0.028l0.106,0.057l0.064,0.035l0.127,0.042l0.057,0.022l0.127,0.028
						l0.064,0.007l0.07,0.007L-7.3,7.866h0.162l0.092-0.014l0.078-0.014l0.05-0.007l0.042,0.022l0.028,0.05l0.014,0.063l0.042,0.127
						l0.014,0.057l0.022,0.064l0.05,0.12l0.022,0.07l0.014,0.042l0.029,0.071l0.014,0.057l0.042,0.127l0.022,0.057l0.07,0.212
						l0.035,0.085l0.042,0.127l0.022,0.057l0.028,0.07l0.014,0.042l0.057,0.127l0.021,0.057l0.064,0.121l0.028,0.056l0.064,0.05
						l0.078,0.029h0.07l0.064-0.007l0.07-0.014l0.043-0.014l0.07-0.021l0.05-0.035l0.022-0.057l-0.014-0.057L-5.68,9.522
						l-0.028-0.064l-0.029-0.057l-0.021-0.056l-0.022-0.064l-0.035-0.085l-0.028-0.085l-0.029-0.078l-0.085-0.226l-0.028-0.085
						l-0.035-0.085l-0.022-0.063l-0.022-0.057l-0.049-0.149l-0.036-0.085l-0.021-0.07L-6.246,7.98L-6.26,7.916l-0.022-0.057
						l-0.021-0.063l-0.022-0.057l-0.021-0.063l-0.022-0.057L-6.38,7.555l-0.014-0.056l-0.014-0.064L-6.43,7.372l-0.022-0.057
						l-0.021-0.064l-0.014-0.063l-0.014-0.057l-0.014-0.064l-0.022-0.064l-0.021-0.091L-6.586,6.82L-6.6,6.777l-0.021-0.078
						l-0.014-0.063L-6.65,6.551l-0.014-0.092l-0.042-0.191l-0.007-0.064l-0.014-0.063l-0.014-0.092l-0.014-0.085L-6.763,5.9
						l-0.014-0.063l-0.006-0.064V5.709l0.006-0.07l0.007-0.092l0.022-0.085l0.021-0.064l0.043-0.042l0.056-0.021l0.064-0.007
						l0.056,0.014l0.064,0.021l0.057,0.035l0.127,0.114l0.05,0.05l0.07,0.098l0.071,0.114l0.098,0.142l0.036,0.057l0.028,0.056
						l0.035,0.064L-5.8,6.246l0.035,0.064l0.028,0.05l0.029,0.063l0.035,0.078l0.078,0.057l0.085-0.014l0.05-0.071V6.381
						l-0.035-0.085l-0.035-0.07l-0.042-0.078l-0.042-0.091l-0.029-0.042l-0.085-0.17L-5.772,5.78l-0.092-0.149l-0.07-0.114
						l-0.036-0.049l-0.042-0.057l-0.035-0.05L-6.091,5.32l-0.05-0.042l-0.05-0.057l-0.028-0.028l-0.05-0.057l-0.05-0.042
						l-0.057-0.035l-0.05-0.029l-0.056-0.028l-0.184-0.064l-0.064-0.014h-0.056l-0.064-0.007l-0.063,0.007l-0.064,0.014
						l-0.057,0.029l-0.057,0.035l-0.042,0.035l-0.05,0.05l-0.07,0.099l-0.029,0.057L-7.3,5.305l-0.014,0.057l-0.021,0.191v0.134
						L-7.35,5.695l-0.035-0.05L-7.42,5.589l-0.064-0.113l-0.035-0.05l-0.042-0.05l-0.078-0.099l-0.043-0.042l-0.148-0.127
						l-0.064-0.05l-0.07-0.057l-0.064-0.042l-0.056-0.028l-0.071-0.022l-0.162-0.035L-8.39,4.86l-0.063-0.007L-8.51,4.86
						l-0.064,0.007l-0.063,0.014l-0.057,0.014l-0.063,0.029l-0.05,0.028l-0.056,0.042l-0.064,0.064l-0.063,0.057l-0.036,0.056
						l-0.028,0.057l-0.022,0.064l-0.042,0.113l-0.021,0.064l-0.007,0.063l-0.007,0.085v0.092l-0.007,0.064v0.064l0.007,0.07
						l0.007,0.085l0.014,0.092l0.014,0.063l0.022,0.071l0.007,0.042l0.021,0.071l0.022,0.063l0.064,0.17l0.021,0.064l0.057,0.113
						l0.042,0.078l0.035,0.078l0.042,0.07l0.029,0.035l0.042,0.057l0.07,0.099L-8.602,7.209z M-7.159,7.456l-0.134-0.006h-0.064
						L-7.42,7.435l-0.071-0.014l-0.042-0.014l-0.07-0.028l-0.064-0.021l-0.063-0.029l-0.057-0.035l-0.05-0.035l-0.05-0.042
						l-0.05-0.05l-0.099-0.085l-0.042-0.042l-0.042-0.05l-0.085-0.106l-0.035-0.05L-8.276,6.77l-0.085-0.156l-0.036-0.056
						l-0.021-0.057l-0.022-0.064L-8.46,6.381l-0.029-0.063l-0.042-0.17l-0.021-0.063l-0.014-0.092l-0.007-0.085l-0.006-0.07
						l0.014-0.093l0.014-0.113l0.014-0.092l0.022-0.063l0.035-0.05l0.042-0.042l0.05-0.042l0.064-0.029l0.085-0.014l0.085,0.006
						l0.071,0.029l0.042,0.021l0.063,0.035l0.05,0.036l0.085,0.085l0.05,0.056l0.042,0.05l0.05,0.05l0.035,0.05l0.035,0.057
						l0.042,0.064l0.05,0.084l0.049,0.064l0.029,0.057l0.028,0.064l0.022,0.056l0.028,0.064L-7.35,6.31l0.035,0.078l0.029,0.064
						l0.021,0.057l0.099,0.297l0.028,0.092l0.057,0.226l0.022,0.092l0.021,0.07l0.014,0.078l-0.022,0.064l-0.05,0.028
						C-7.095,7.456-7.159,7.456-7.159,7.456z"/>
				</g>
				<g id="g412" transform="translate(189.7085,65.5461)">
					<path id="path414" inkscape:connector-curvature="0" fill="#99D420" d="M-9.734,7.396V7.318l-0.021-0.064l-0.057-0.113
						l-0.064-0.106L-9.91,6.971l-0.028-0.056l-0.042-0.064l-0.022-0.042l-0.035-0.063l-0.035-0.057l-0.036-0.05l-0.042-0.057
						l-0.035-0.05l-0.07-0.113l-0.128-0.149l-0.085-0.092l-0.049-0.05l-0.043-0.05l-0.049-0.042l-0.156-0.12l-0.05-0.035
						l-0.063-0.029l-0.064-0.021L-11,5.818l-0.127-0.028h-0.12l-0.078,0.007l-0.057,0.021l-0.064,0.021l-0.057,0.036l-0.049,0.042
						l-0.036,0.05l-0.035,0.057l-0.028,0.063l-0.014,0.057l-0.014,0.064l-0.007,0.063v0.064l0.014,0.127l0.014,0.063l0.021,0.064
						l0.029,0.127l0.021,0.057l0.014,0.064l0.022,0.063l0.021,0.057l0.064,0.191l0.006,0.056l0.014,0.064l0.022,0.064l0.014,0.063
						l0.014,0.057l0.042,0.127l0.022,0.085l0.021,0.092l0.042,0.127l0.014,0.064l0.014,0.05l0.014,0.063l0.029,0.071l0.021,0.056
						l0.042,0.191l0.022,0.064l0.021,0.085l0.029,0.092l0.021,0.063l0.028,0.057l0.043,0.035l0.063,0.029l0.057,0.007l0.07-0.007
						l0.128-0.014l0.113-0.042l0.035-0.05V8.634l-0.014-0.063l-0.022-0.085l-0.022-0.092l-0.042-0.127l-0.014-0.057l-0.014-0.064
						l-0.021-0.07l-0.022-0.085l-0.07-0.212l-0.014-0.064l-0.029-0.092l-0.049-0.149l-0.014-0.063l-0.014-0.057l-0.014-0.064
						l-0.05-0.12l-0.014-0.063l-0.05-0.178l-0.042-0.127l-0.014-0.063l-0.021-0.092l-0.022-0.114l-0.014-0.12l0.014-0.106
						l0.057-0.078l0.078-0.021l0.064,0.006l0.063,0.029l0.05,0.035l0.057,0.042l0.234,0.234l0.042,0.05l0.035,0.05l0.042,0.056
						l0.071,0.114l0.042,0.05l0.028,0.042l0.035,0.056l0.042,0.064l0.029,0.064l0.057,0.12l0.085,0.17l0.035,0.057l0.063,0.035
						l0.092-0.014L-9.734,7.396z M-10.873,9.568l0.036,0.056l0.056,0.05l0.057,0.036l0.071,0.021l0.063,0.014h0.071l0.063-0.014
						l0.057-0.035l0.05-0.042l0.05-0.05l0.035-0.057l0.021-0.063l0.007-0.064v-0.07l-0.021-0.064l-0.035-0.057l-0.043-0.056
						l-0.05-0.043l-0.056-0.042l-0.064-0.028l-0.07-0.014l-0.064,0.007l-0.07,0.014l-0.114,0.07l-0.042,0.05l-0.035,0.057
						l-0.014,0.064l-0.006,0.063l0.006,0.064l0.014,0.07L-10.873,9.568z"/>
				</g>
				<g id="g416" transform="translate(192.2732,65.7585)">
					<path id="path418" inkscape:connector-curvature="0" fill="#99D420" d="M-10.247,7.354l-0.035-0.05l-0.085-0.099l-0.099-0.085
						l-0.05-0.035l-0.064-0.035l-0.042-0.014l-0.07-0.042l-0.042-0.022l-0.064-0.028l-0.07-0.022l-0.064-0.021l-0.064-0.007
						l-0.07-0.014l-0.078-0.007l-0.085-0.014l-0.064-0.007h-0.064l-0.127,0.014l-0.127,0.006l-0.063,0.007l-0.191,0.042h-0.05
						l-0.035-0.028l-0.014-0.05V6.781l-0.007-0.071V6.59l0.007-0.071l0.014-0.056l0.042-0.127l0.07-0.114l0.042-0.05l0.042-0.042
						l0.114-0.07l0.07-0.022l0.064-0.022l0.05-0.006l0.063-0.014l0.064-0.007h0.07l0.064,0.007l0.184,0.035l0.063,0.014l0.064,0.021
						l0.057,0.022l0.12,0.05l0.114,0.057l0.098,0.078l0.05,0.035l0.05,0.042l0.099,0.092l0.085,0.099l0.035,0.05l0.043,0.056
						l0.07,0.099l0.035,0.057l0.028,0.057l0.036,0.057l0.028,0.056l0.035,0.05l0.029,0.057l0.028,0.064l0.028,0.056l0.036,0.057
						l0.049,0.035h0.064l0.064-0.042l0.035-0.063L-9.575,7.12l-0.028-0.064l-0.036-0.078l-0.042-0.078l-0.035-0.078l-0.042-0.078
						l-0.042-0.07l-0.07-0.114l-0.022-0.042l-0.042-0.063l-0.07-0.099l-0.043-0.05l-0.042-0.042l-0.042-0.05l-0.05-0.057
						l-0.021-0.028l-0.05-0.057l-0.042-0.05l-0.099-0.085l-0.07-0.056l-0.064-0.057l-0.113-0.071l-0.177-0.078l-0.057-0.021
						l-0.064-0.022l-0.092-0.014l-0.085-0.021l-0.148-0.014l-0.093-0.007l-0.078-0.007h-0.063l-0.255,0.029l-0.056,0.014
						l-0.064,0.022l-0.064,0.028l-0.056,0.029l-0.114,0.063l-0.057,0.029l-0.05,0.042l-0.049,0.05l-0.029,0.035l-0.05,0.057
						l-0.042,0.049l-0.035,0.057l-0.028,0.05l-0.029,0.064l-0.021,0.056l-0.022,0.064l-0.014,0.064l-0.014,0.056L-12.56,6.49
						l-0.021,0.191v0.134l0.007,0.063v0.064l0.042,0.191l0.021,0.056l0.014,0.064l0.021,0.064l0.014,0.063l0.022,0.064l0.028,0.078
						l0.035,0.085l0.035,0.064l0.042,0.078l0.05,0.07l0.029,0.064l0.035,0.05l0.042,0.05l0.106,0.113l0.106,0.106l0.057,0.05
						l0.064,0.05l0.07,0.05l0.064,0.05l0.07,0.042l0.07,0.035l0.064,0.028l0.092,0.042l0.149,0.05l0.127,0.029l0.092,0.014h0.155
						l0.092-0.014l0.114-0.022l0.092-0.022l0.063-0.021l0.064-0.028l0.057-0.029l0.042-0.028l0.099-0.085l0.042-0.05l0.042-0.071
						l0.035-0.085l0.021-0.063l0.014-0.064l0.007-0.063V7.912l-0.007-0.092l-0.007-0.07l-0.021-0.085l-0.028-0.085l-0.029-0.071
						l-0.022-0.035l-0.035-0.063L-10.247,7.354z M-11.11,8.202l-0.099-0.042l-0.085-0.042l-0.057-0.035l-0.098-0.085l-0.064-0.064
						L-11.57,7.87l-0.049-0.056l-0.05-0.078l-0.049-0.07l-0.036-0.064l-0.042-0.078l-0.028-0.085l-0.028-0.064l-0.022-0.056
						l-0.007-0.05l0.035-0.036l0.092-0.021l0.142-0.007l0.071-0.007h0.198l0.071,0.014l0.063,0.014l0.071,0.028l0.042,0.014
						l0.07,0.035l0.05,0.035l0.05,0.042l0.05,0.05l0.05,0.042l0.042,0.057l0.035,0.05l0.028,0.057l0.036,0.063l0.042,0.127
						l0.014,0.071l0.007,0.063l-0.007,0.071l-0.028,0.063l-0.042,0.05l-0.057,0.042l-0.063,0.029l-0.064,0.014l-0.064,0.007
						l-0.07-0.014L-11.11,8.202z"/>
				</g>
			</g>
		</g>
	</g>
</g>
</svg>
