<!-- Generator: Adobe Illustrator 17.0.0, SVG Export Plug-In  -->
<svg version="1.1"
	 xmlns="http://www.w3.org/2000/svg" xmlns:xlink="http://www.w3.org/1999/xlink" xmlns:a="http://ns.adobe.com/AdobeSVGViewerExtensions/3.0/"
	 x="0px" y="0px" width="11.677px" height="12.086px" viewBox="0 0 11.677 12.086" enable-background="new 0 0 11.677 12.086"
	 xml:space="preserve">
<defs>
</defs>
<g>
	<path fill="#666666" d="M2.755,1.741L2.612,7.773c-1-0.248-0.067,0.405-0.509,0.405C1.026,8.178,0,9.055,0,10.132
		s0.71,1.954,1.787,1.954s1.787-0.877,1.787-1.954V3.389l3-0.579V1.997l-3,0.579V1.832l4-1.023V0L3.658,1.161
		C3.491,1.21,2.755,1.567,2.755,1.741z M1.805,11.304c-0.647,0-1.172-0.526-1.172-1.172c0-0.647,0.526-1.172,1.172-1.172
		c0.646,0,1.172,0.526,1.172,1.172C2.977,10.779,2.451,11.304,1.805,11.304z"/>
	<path fill="#666666" d="M11.285,5.982H5.264c-0.217,0-0.393-0.283-0.393-0.5s0.176-0.5,0.393-0.5h6.021
		c0.217,0,0.393,0.283,0.393,0.5S11.501,5.982,11.285,5.982z"/>
	<path fill="#666666" d="M11.285,8.982H5.264c-0.217,0-0.393-0.283-0.393-0.5s0.176-0.5,0.393-0.5h6.021
		c0.217,0,0.393,0.283,0.393,0.5S11.501,8.982,11.285,8.982z"/>
	<path fill="#666666" d="M11.285,11.982H5.264c-0.217,0-0.393-0.283-0.393-0.5s0.176-0.5,0.393-0.5h6.021
		c0.217,0,0.393,0.283,0.393,0.5S11.501,11.982,11.285,11.982z"/>
</g>
</svg>
