<!-- Generator: Adobe Illustrator 17.1.0, SVG Export Plug-In  -->

<svg version="1.1"
	 xmlns="http://www.w3.org/2000/svg" xmlns:xlink="http://www.w3.org/1999/xlink" xmlns:a="http://ns.adobe.com/AdobeSVGViewerExtensions/3.0/"
	 x="0px" y="0px" width="612px" height="612px" viewBox="0 0 612 612" enable-background="new 0 0 612 612" xml:space="preserve">
<defs>
</defs>
<g>
	<g id="_x38__1_">
		<g>
			<path fill="#7C7C7C" d="M306,0C136.992,0,0,136.992,0,306s136.992,306,306,306s306-137.012,306-306S475.008,0,306,0z M306,573.75
				C158.125,573.75,38.25,453.875,38.25,306S158.125,38.25,306,38.25S573.75,158.125,573.75,306S453.875,573.75,306,573.75z
				 M420.75,286.875h-95.625V191.25c0-10.557-8.568-19.125-19.125-19.125s-19.125,8.568-19.125,19.125v95.625H191.25
				c-10.557,0-19.125,8.568-19.125,19.125s8.568,19.125,19.125,19.125h95.625v95.625c0,10.557,8.568,19.125,19.125,19.125
				s19.125-8.568,19.125-19.125v-95.625h95.625c10.557,0,19.125-8.568,19.125-19.125S431.307,286.875,420.75,286.875z"/>
		</g>
	</g>
</g>
</svg>
