<!-- Generator: Adobe Illustrator 17.0.0, SVG Export Plug-In  -->
<svg version="1.1"
	 xmlns="http://www.w3.org/2000/svg" xmlns:xlink="http://www.w3.org/1999/xlink" xmlns:a="http://ns.adobe.com/AdobeSVGViewerExtensions/3.0/"
	 x="0px" y="0px" width="13.072px" height="9.567px" viewBox="0 0 13.072 9.567" enable-background="new 0 0 13.072 9.567"
	 xml:space="preserve">
<defs>
</defs>
<g>
	<g id="Compact_x5F_Disc_1_">
		<g>
			<path fill="#666666" d="M5.38,3.628c-0.637,0.637-0.637,1.674,0,2.312s1.675,0.637,2.312,0c0.637-0.637,0.637-1.674,0-2.312
				S6.018,2.99,5.38,3.628z M6.921,5.169c-0.212,0.213-0.558,0.213-0.771,0s-0.213-0.558,0-0.771s0.558-0.213,0.771,0
				C7.134,4.611,7.134,4.956,6.921,5.169z M2.683,0.16c-0.213-0.213-0.558-0.213-0.771,0c-2.55,2.55-2.55,6.698,0,9.248
				c0.213,0.213,0.558,0.213,0.771,0c0.213-0.213,0.213-0.558,0-0.771c-2.125-2.125-2.125-5.582,0-7.706
				C2.896,0.717,2.896,0.373,2.683,0.16z M11.16,0.16c-0.213-0.213-0.558-0.213-0.771,0c-0.213,0.213-0.213,0.558,0,0.771
				c2.125,2.125,2.125,5.582,0,7.706c-0.213,0.213-0.213,0.558,0,0.771c0.213,0.213,0.558,0.213,0.771,0
				C13.71,6.858,13.71,2.709,11.16,0.16z"/>
		</g>
	</g>
	<path fill="#666666" d="M4.61,7.481c-0.213,0.213-0.558,0.213-0.771,0c-1.487-1.487-1.487-3.907,0-5.394
		c0.213-0.213,0.558-0.213,0.77,0c0.213,0.213,0.213,0.558,0,0.771c-1.062,1.062-1.062,2.791,0,3.853
		C4.823,6.923,4.823,7.268,4.61,7.481z"/>
	<path fill="#666666" d="M9.233,7.481c-0.213,0.213-0.558,0.213-0.771,0c-0.213-0.213-0.213-0.558,0-0.771
		c1.062-1.062,1.062-2.791,0-3.853c-0.213-0.213-0.213-0.558,0-0.771c0.213-0.213,0.558-0.213,0.771,0
		C10.721,3.574,10.72,5.994,9.233,7.481z"/>
</g>
</svg>
