<!-- Generator: Adobe Illustrator 17.1.0, SVG Export Plug-In  -->
<svg version="1.1"
	 xmlns="http://www.w3.org/2000/svg" xmlns:xlink="http://www.w3.org/1999/xlink" xmlns:a="http://ns.adobe.com/AdobeSVGViewerExtensions/3.0/"
	 x="0px" y="0px" width="91.471px" height="127.741px" viewBox="0 0 91.471 127.741" enable-background="new 0 0 91.471 127.741"
	 xml:space="preserve">
<defs>
</defs>
<g>
	<path fill="#FFFFFF" d="M6.799,10.004H5.227v3.899H0.98V0.143h5.839c3.409,0,5.083,1.939,5.083,4.798
		C11.902,7.513,10.311,10.004,6.799,10.004z M6.125,2.96H5.227v4.186h0.898c0.96,0,1.531-0.837,1.531-2.246
		C7.656,3.757,7.104,2.96,6.125,2.96z"/>
	<path fill="#FFFFFF" d="M19.433,13.903l-0.531-2.675h-2.511l-0.531,2.675h-4.226L15.41,0.021h4.614l3.798,13.883H19.433z
		 M17.656,3.409l-0.959,5.268h1.919L17.656,3.409z"/>
	<path fill="#FFFFFF" d="M32.231,13.903l-2.083-5.002h-0.633v5.002H25.27V0.143h5.839c3.062,0,5.043,1.511,5.043,4.063
		c0,1.816-0.96,3.185-2.553,3.675l3.206,6.022H32.231z M30.577,3.104h-1.062v2.857h0.837c0.735,0,1.552-0.469,1.552-1.53
		C31.904,3.695,31.374,3.104,30.577,3.104z"/>
	<path fill="#FFFFFF" d="M43.969,3.43v10.474h-4.246V3.43h-2.695V0.143h9.637V3.43H43.969z"/>
	<path fill="#FFFFFF" d="M54.014,13.903l-0.531-2.675h-2.511l-0.531,2.675h-4.226l3.776-13.883h4.614l3.798,13.883H54.014z
		 M52.237,3.409l-0.959,5.268h1.919L52.237,3.409z"/>
	<path fill="#FFFFFF" d="M65.486,14.087c-4.349,0-6.492-2.817-6.492-7.187c0-3.267,1.49-6.859,7.574-6.9
		c0.776,0,1.531,0.021,2.328,0.102l-0.123,3.124c-0.592-0.041-1.204-0.062-1.816-0.062c-2.838,0.021-3.736,1.511-3.736,4.043
		c0,1.837,0.326,3.92,1.857,3.92c0.163,0,0.367-0.041,0.511-0.082V6.268h3.797v7.31C68.223,13.903,66.813,14.087,65.486,14.087z"/>
	<path fill="#FFFFFF" d="M71.527,13.903V0.143h8.901v3.083h-4.655v1.776h4.655v3.062h-4.655v2.756h4.655v3.083H71.527z"/>
	<path fill="#FFFFFF" d="M87.061,10.8h4.165v3.104h-9.718v-0.47l4.287-10.188h-4.062V0.143h9.738v0.531L87.061,10.8z"/>
	<path fill="#FFFFFF" d="M8.371,36.007H3.858L0,22.124h4.39l1.756,9.861l1.837-9.861h4.227L8.371,36.007z"/>
	<path fill="#FFFFFF" d="M18.76,36.171c-3.92,0-5.737-3.349-5.737-7.187c0-3.899,1.858-7.166,5.758-7.166
		c3.961,0,5.736,3.185,5.736,7.166C24.517,32.781,22.618,36.171,18.76,36.171z M18.76,24.492c-1.205,0-1.47,1.49-1.47,4.532
		c0,3.043,0.285,4.533,1.47,4.533c1.225,0,1.49-1.49,1.49-4.533C20.25,25.982,19.964,24.492,18.76,24.492z"/>
	<path fill="#FFFFFF" d="M27.658,36.027c-0.571,0-1.144-0.021-1.735-0.061l0.163-2.981c0.694,0.123,1.43,0.204,2.145,0.204
		c1.082,0,2.47-0.265,2.47-1.266c0-0.633-0.592-1.082-2.164-1.939c-1.511-0.816-2.735-1.837-2.735-3.797
		c0-3.287,3.512-4.247,6.37-4.247c0.714,0,1.511,0.062,2.266,0.143l-0.143,2.94c-0.735-0.103-1.531-0.184-2.308-0.184
		c-1,0-2,0.285-2,1c0,0.633,0.878,1.021,1.979,1.613c1.531,0.816,2.94,1.796,2.94,3.961C34.906,35.149,30.884,36.027,27.658,36.027z
		"/>
	<path fill="#FFFFFF" d="M2.144,58.009c-0.571,0-1.144-0.021-1.735-0.061l0.163-2.981c0.694,0.123,1.43,0.204,2.145,0.204
		c1.082,0,2.47-0.265,2.47-1.266c0-0.633-0.592-1.082-2.164-1.939c-1.511-0.816-2.735-1.837-2.735-3.797
		c0-3.287,3.512-4.247,6.369-4.247c0.715,0,1.512,0.062,2.267,0.143l-0.143,2.94c-0.735-0.103-1.531-0.184-2.308-0.184
		c-1,0-2,0.285-2,1c0,0.633,0.877,1.021,1.979,1.613c1.531,0.816,2.94,1.796,2.94,3.961C9.392,57.131,5.369,58.009,2.144,58.009z"/>
	<path fill="#FFFFFF" d="M17.884,57.866l-0.531-2.675h-2.511l-0.531,2.675h-4.226l3.776-13.883h4.614l3.798,13.883H17.884z
		 M16.107,47.372l-0.959,5.268h1.919L16.107,47.372z"/>
	<path fill="#FFFFFF" d="M30.089,57.988h-4.513l-3.858-13.883h4.39l1.756,9.861l1.837-9.861h4.227L30.089,57.988z"/>
	<path fill="#FFFFFF" d="M40.478,58.152c-3.92,0-5.737-3.349-5.737-7.187c0-3.899,1.858-7.166,5.758-7.166
		c3.961,0,5.736,3.185,5.736,7.166C46.234,54.763,44.336,58.152,40.478,58.152z M40.478,46.474c-1.205,0-1.47,1.49-1.47,4.533
		c0,3.042,0.285,4.532,1.47,4.532c1.225,0,1.49-1.49,1.49-4.532C41.968,47.964,41.682,46.474,40.478,46.474z"/>
	<path fill="#FFFFFF" d="M47.929,57.866V44.105h4.246v13.761H47.929z"/>
	<path fill="#FFFFFF" d="M61.503,57.866l-2.083-5.002h-0.633v5.002h-4.246V44.105h5.839c3.062,0,5.043,1.511,5.043,4.063
		c0,1.816-0.96,3.185-2.553,3.675l3.206,6.022H61.503z M59.849,47.066h-1.062v2.857h0.837c0.735,0,1.552-0.469,1.552-1.53
		C61.176,47.658,60.646,47.066,59.849,47.066z"/>
	<path fill="#FFFFFF" d="M68.912,58.009c-0.571,0-1.144-0.021-1.735-0.061l0.163-2.981c0.694,0.123,1.43,0.204,2.145,0.204
		c1.082,0,2.47-0.265,2.47-1.266c0-0.633-0.592-1.082-2.164-1.939c-1.511-0.816-2.735-1.837-2.735-3.797
		c0-3.287,3.512-4.247,6.37-4.247c0.714,0,1.511,0.062,2.266,0.143l-0.143,2.94c-0.735-0.103-1.531-0.184-2.308-0.184
		c-1,0-2,0.285-2,1c0,0.633,0.878,1.021,1.979,1.613c1.531,0.816,2.94,1.796,2.94,3.961C76.16,57.131,72.138,58.009,68.912,58.009z"
		/>
	<path fill="#FFFFFF" d="M7.31,79.849l-0.98-3.899H2.021l-0.98,3.899h-0.47l3.553-14.066h0.123l3.552,14.066H7.31z M4.186,67.293
		L2.123,75.5h4.104L4.186,67.293z"/>
	<path fill="#FFFFFF" d="M11.817,80.155h-0.122L8.143,66.088h0.49l3.124,12.557L14.9,66.088h0.47L11.817,80.155z"/>
	<path fill="#FFFFFF" d="M18.002,79.849V66.088h5.736v0.449h-5.268v5.165h5.268v0.449h-5.268v7.248h5.268v0.449H18.002z"/>
	<path fill="#FFFFFF" d="M30.862,79.951c-3.858,0-5.084-3.981-5.084-7.187c0-3.573,1.49-6.758,5.513-6.758
		c0.082,0,0.367,0.02,0.47,0.02l-0.041,0.43c-0.204-0.021-0.47-0.021-0.592-0.021c-3.614,0-4.88,3.185-4.88,6.309
		c0,2.939,1.041,6.778,4.614,6.778c0.225,0,0.429-0.021,0.653-0.041l0.041,0.429C31.312,79.931,31.087,79.951,30.862,79.951z"/>
	<path fill="#FFFFFF" d="M39.475,79.849V66.088h0.469v13.312h5.268v0.449H39.475z"/>
	<path fill="#FFFFFF" d="M52.56,79.849l-0.979-3.899h-4.308l-0.98,3.899h-0.47l3.553-14.066h0.123l3.552,14.066H52.56z
		 M49.437,67.293L47.374,75.5h4.104L49.437,67.293z"/>
	<path fill="#FFFFFF" d="M1.47,101.952c-0.306,0-0.592-0.02-0.898-0.061l0.062-0.449c0.307,0.041,0.592,0.061,0.898,0.061
		c1.817,0,4.431-0.918,4.431-3.103c0-1.307-0.878-2.287-2.593-3.675c-1.123-0.919-2.736-2.001-2.736-3.777
		c0-1.817,2.021-3.042,4.227-3.042c0.449,0,0.734,0.021,1.123,0.062l-0.062,0.429c-0.367-0.062-0.674-0.082-1.041-0.082
		c-1.675,0-3.777,0.857-3.777,2.716c0,1.511,1.449,2.409,2.531,3.307c1.226,1.021,2.798,2.267,2.798,4.022
		C6.432,100.851,3.573,101.952,1.47,101.952z"/>
	<path fill="#FFFFFF" d="M11.962,102.137c-3.042,0-3.491-4.941-3.491-7.207c0-2.164,0.47-7.207,3.532-7.207
		c3.042,0,3.491,4.94,3.491,7.207C15.494,97.094,15.024,102.137,11.962,102.137z M11.982,88.151c-2.675,0-3.042,4.899-3.042,6.758
		c0,1.96,0.388,6.799,3.042,6.799c2.675,0,3.042-4.9,3.042-6.758C15.024,92.99,14.637,88.151,11.982,88.151z"/>
	<path fill="#FFFFFF" d="M24.924,102.034l-5.92-12.413v12.209h-0.449V87.865h0.081l5.9,12.331V88.069h0.449v13.965H24.924z"/>
	<path fill="#FFFFFF" d="M31.536,102.137c-3.042,0-3.491-4.941-3.491-7.207c0-2.164,0.47-7.207,3.532-7.207
		c3.042,0,3.491,4.94,3.491,7.207C35.068,97.094,34.599,102.137,31.536,102.137z M31.557,88.151c-2.675,0-3.042,4.899-3.042,6.758
		c0,1.96,0.388,6.799,3.042,6.799c2.675,0,3.042-4.9,3.042-6.758C34.599,92.99,34.211,88.151,31.557,88.151z"/>
	<path fill="#FFFFFF" d="M40.147,88.519v13.312h-0.47V88.519H36.37v-0.449h7.105v0.449H40.147z"/>
	<path fill="#FFFFFF" d="M51.885,101.83v-7.697h-5.492v7.697h-0.469V88.069h0.469v5.614h5.492v-5.614h0.47v13.761H51.885z"/>
	<path fill="#FFFFFF" d="M56.436,101.83V88.069h5.736v0.449h-5.268v5.165h5.268v0.449h-5.268v7.248h5.268v0.449H56.436z
		 M60.11,87.294l-3.083-1.43l0.225-0.449l3.001,1.552L60.11,87.294z"/>
	<path fill="#FFFFFF" d="M71.235,104.954l-2.817-2.92c-0.225,0.062-0.449,0.103-0.694,0.103c-3.083,0-3.512-5.084-3.512-7.207
		c0-5.309,1.817-7.207,3.512-7.207c3.083,0,3.512,5.083,3.512,7.207c0,1.837-0.326,5.88-2.409,6.941l2.716,2.694L71.235,104.954z
		 M67.724,88.172c-2.694,0-3.042,4.981-3.042,6.737c0,1.797,0.348,6.799,3.042,6.799c1.879,0,3.042-2.613,3.042-6.778
		C70.766,93.153,70.419,88.172,67.724,88.172z"/>
	<path fill="#FFFFFF" d="M77.378,102.075c-2.307,0-3.205-2.226-3.205-4.247v-9.759h0.47v9.738c0,1.756,0.735,3.798,2.756,3.798
		c2.185,0,2.757-1.919,2.757-3.777v-9.759h0.47v9.759C80.625,99.952,79.828,102.075,77.378,102.075z"/>
	<path fill="#FFFFFF" d="M84.583,101.83V88.069h5.736v0.449h-5.268v5.165h5.268v0.449h-5.268v7.248h5.268v0.449H84.583z"/>
</g>
<g>
	<g>
		<path fill="#939EB0" d="M74.019,123.489c0,2.348-1.904,4.252-4.252,4.252H4.271c-2.348,0-4.252-1.904-4.252-4.252v-7.496
			c0-2.348,1.904-4.252,4.252-4.252h65.496c2.348,0,4.252,1.904,4.252,4.252V123.489z"/>
	</g>
	<g>
		<path fill="#333333" d="M6.746,122.616v-6.442h4.777v1.09H8.047v1.429h3.234v1.085H8.047v1.753h3.6v1.086H6.746z"/>
		<path fill="#333333" d="M16.985,122.616h-1.234v-2.382c0-0.504-0.026-0.83-0.079-0.978c-0.053-0.148-0.139-0.263-0.257-0.346
			c-0.119-0.081-0.262-0.123-0.429-0.123c-0.214,0-0.406,0.06-0.575,0.176c-0.171,0.118-0.287,0.273-0.35,0.467
			c-0.063,0.193-0.095,0.551-0.095,1.072v2.113h-1.235v-4.667h1.147v0.686c0.407-0.527,0.92-0.791,1.538-0.791
			c0.272,0,0.521,0.049,0.747,0.147c0.226,0.098,0.396,0.224,0.512,0.375c0.116,0.153,0.196,0.326,0.242,0.52
			c0.045,0.193,0.067,0.47,0.067,0.83V122.616z"/>
		<path fill="#333333" d="M20.304,121.284l1.239-0.188c0.053,0.24,0.159,0.423,0.321,0.547c0.16,0.125,0.387,0.187,0.676,0.187
			c0.319,0,0.56-0.058,0.721-0.176c0.108-0.081,0.163-0.191,0.163-0.329c0-0.094-0.029-0.171-0.088-0.233
			c-0.062-0.058-0.199-0.112-0.413-0.162c-0.996-0.22-1.628-0.42-1.895-0.602c-0.369-0.252-0.553-0.603-0.553-1.051
			c0-0.404,0.159-0.744,0.479-1.02s0.814-0.413,1.485-0.413c0.639,0,1.113,0.104,1.424,0.312c0.311,0.209,0.524,0.517,0.642,0.924
			l-1.164,0.215c-0.051-0.182-0.145-0.32-0.284-0.418c-0.139-0.096-0.338-0.145-0.595-0.145c-0.326,0-0.559,0.046-0.699,0.137
			c-0.094,0.064-0.141,0.147-0.141,0.25c0,0.088,0.041,0.162,0.123,0.225c0.111,0.082,0.496,0.197,1.153,0.347
			c0.658,0.149,1.117,0.333,1.378,0.55c0.258,0.219,0.387,0.525,0.387,0.918c0,0.428-0.179,0.795-0.536,1.104
			c-0.357,0.307-0.887,0.461-1.587,0.461c-0.636,0-1.139-0.129-1.509-0.387C20.66,122.077,20.418,121.728,20.304,121.284z"/>
		<path fill="#333333" d="M26.666,119.373l-1.12-0.202c0.126-0.451,0.343-0.785,0.65-1.002s0.765-0.325,1.371-0.325
			c0.551,0,0.961,0.065,1.23,0.195c0.27,0.131,0.459,0.296,0.569,0.497c0.109,0.2,0.164,0.568,0.164,1.105l-0.013,1.441
			c0,0.41,0.02,0.712,0.06,0.907c0.039,0.194,0.113,0.403,0.222,0.626h-1.222c-0.032-0.082-0.072-0.203-0.119-0.365
			c-0.021-0.072-0.035-0.121-0.043-0.145c-0.211,0.205-0.438,0.359-0.678,0.461c-0.24,0.103-0.496,0.154-0.769,0.154
			c-0.48,0-0.859-0.13-1.136-0.391c-0.277-0.261-0.416-0.591-0.416-0.989c0-0.264,0.063-0.499,0.189-0.705
			c0.126-0.207,0.303-0.365,0.529-0.475c0.228-0.11,0.555-0.206,0.982-0.288c0.577-0.108,0.977-0.209,1.199-0.303v-0.123
			c0-0.238-0.059-0.407-0.176-0.508c-0.117-0.102-0.338-0.152-0.663-0.152c-0.22,0-0.392,0.044-0.515,0.13
			C26.842,119.005,26.742,119.156,26.666,119.373z M28.318,120.375c-0.158,0.053-0.408,0.116-0.751,0.188
			c-0.343,0.074-0.567,0.146-0.673,0.216c-0.161,0.114-0.241,0.259-0.241,0.435c0,0.174,0.064,0.323,0.193,0.449
			s0.293,0.188,0.492,0.188c0.223,0,0.435-0.073,0.638-0.22c0.148-0.111,0.247-0.247,0.294-0.408
			c0.032-0.105,0.048-0.307,0.048-0.603V120.375z"/>
		<path fill="#333333" d="M32.033,122.616l-1.881-4.667h1.296l0.879,2.382l0.255,0.795c0.067-0.201,0.109-0.335,0.127-0.399
			c0.041-0.132,0.085-0.264,0.133-0.396l0.887-2.382h1.271l-1.854,4.667H32.033z"/>
		<path fill="#333333" d="M35.47,120.217c0-0.41,0.101-0.807,0.304-1.19c0.201-0.384,0.488-0.678,0.858-0.879
			c0.371-0.203,0.784-0.304,1.241-0.304c0.706,0,1.285,0.229,1.736,0.688c0.451,0.459,0.677,1.038,0.677,1.738
			c0,0.706-0.228,1.291-0.684,1.756c-0.455,0.464-1.029,0.696-1.72,0.696c-0.429,0-0.836-0.097-1.225-0.29
			c-0.388-0.193-0.684-0.477-0.885-0.851C35.57,121.208,35.47,120.753,35.47,120.217z M36.735,120.282
			c0,0.464,0.11,0.818,0.329,1.064c0.221,0.246,0.491,0.369,0.813,0.369s0.593-0.123,0.811-0.369
			c0.219-0.246,0.327-0.604,0.327-1.072c0-0.457-0.108-0.809-0.327-1.055c-0.218-0.246-0.488-0.369-0.811-0.369
			s-0.593,0.123-0.813,0.369C36.846,119.466,36.735,119.82,36.735,120.282z"/>
		<path fill="#333333" d="M41.253,117.316v-1.143h1.234v1.143H41.253z M41.253,122.616v-4.667h1.234v4.667H41.253z"/>
		<path fill="#333333" d="M44.936,122.616h-1.234v-4.667h1.146v0.663c0.196-0.312,0.373-0.52,0.529-0.619
			c0.157-0.1,0.335-0.149,0.534-0.149c0.281,0,0.552,0.078,0.813,0.233l-0.383,1.076c-0.208-0.135-0.401-0.202-0.58-0.202
			c-0.173,0-0.319,0.048-0.439,0.143c-0.12,0.096-0.215,0.268-0.283,0.517c-0.069,0.249-0.104,0.771-0.104,1.564V122.616z"/>
		<path fill="#333333" d="M49.721,117.949h1.15v0.686c0.15-0.234,0.352-0.425,0.607-0.571c0.254-0.146,0.537-0.22,0.848-0.22
			c0.542,0,1.002,0.213,1.38,0.638s0.567,1.017,0.567,1.775c0,0.779-0.191,1.385-0.572,1.816c-0.381,0.433-0.842,0.648-1.384,0.648
			c-0.258,0-0.491-0.052-0.701-0.154c-0.209-0.102-0.43-0.277-0.661-0.527v2.352h-1.234V117.949z M50.941,120.204
			c0,0.524,0.104,0.911,0.312,1.162c0.208,0.25,0.461,0.375,0.76,0.375c0.287,0,0.526-0.114,0.717-0.345
			c0.19-0.229,0.285-0.606,0.285-1.132c0-0.488-0.098-0.852-0.294-1.09c-0.196-0.236-0.439-0.355-0.729-0.355
			c-0.302,0-0.553,0.116-0.752,0.35C51.041,119.401,50.941,119.747,50.941,120.204z"/>
		<path fill="#333333" d="M55.254,122.616v-6.442h1.234v6.442H55.254z"/>
		<path fill="#333333" d="M60.825,122.616v-0.699c-0.17,0.25-0.394,0.446-0.67,0.59c-0.277,0.143-0.569,0.215-0.877,0.215
			c-0.313,0-0.595-0.069-0.844-0.207c-0.249-0.137-0.43-0.33-0.54-0.58c-0.112-0.248-0.168-0.593-0.168-1.032v-2.953h1.235v2.145
			c0,0.656,0.022,1.059,0.068,1.206c0.045,0.148,0.128,0.266,0.248,0.352c0.12,0.087,0.272,0.13,0.457,0.13
			c0.211,0,0.399-0.058,0.567-0.174c0.166-0.115,0.281-0.259,0.342-0.431c0.062-0.171,0.093-0.591,0.093-1.259v-1.969h1.235v4.667
			H60.825z"/>
		<path fill="#333333" d="M62.816,121.284l1.239-0.188c0.053,0.24,0.159,0.423,0.321,0.547c0.16,0.125,0.387,0.187,0.676,0.187
			c0.319,0,0.56-0.058,0.721-0.176c0.108-0.081,0.163-0.191,0.163-0.329c0-0.094-0.029-0.171-0.088-0.233
			c-0.062-0.058-0.199-0.112-0.413-0.162c-0.996-0.22-1.628-0.42-1.895-0.602c-0.369-0.252-0.553-0.603-0.553-1.051
			c0-0.404,0.159-0.744,0.479-1.02s0.814-0.413,1.485-0.413c0.639,0,1.113,0.104,1.424,0.312c0.311,0.209,0.524,0.517,0.642,0.924
			l-1.164,0.215c-0.051-0.182-0.145-0.32-0.284-0.418c-0.139-0.096-0.338-0.145-0.595-0.145c-0.326,0-0.559,0.046-0.699,0.137
			c-0.094,0.064-0.141,0.147-0.141,0.25c0,0.088,0.041,0.162,0.123,0.225c0.111,0.082,0.496,0.197,1.153,0.347
			c0.658,0.149,1.117,0.333,1.378,0.55c0.258,0.219,0.387,0.525,0.387,0.918c0,0.428-0.179,0.795-0.536,1.104
			c-0.357,0.307-0.887,0.461-1.587,0.461c-0.636,0-1.139-0.129-1.509-0.387C63.173,122.077,62.931,121.728,62.816,121.284z"/>
		<path fill="#333333" d="M6.092,124.042v-0.944h61.52v0.944H6.092z"/>
	</g>
</g>
</svg>
