<!-- Generator: Adobe Illustrator 17.1.0, SVG Export Plug-In  -->
<svg version="1.1"
	 xmlns="http://www.w3.org/2000/svg" xmlns:xlink="http://www.w3.org/1999/xlink" xmlns:a="http://ns.adobe.com/AdobeSVGViewerExtensions/3.0/"
	 x="0px" y="0px" width="384px" height="320.1px" viewBox="0 0 384 320.1" enable-background="new 0 0 384 320.1"
	 xml:space="preserve">
<defs>
</defs>
<g>
	<path fill="#A4A4A4" d="M288,281.9H38.4V102.2h57.5c0,0,14.1-19.7,42.7-38.2H19.2C8.6,64,0,72.5,0,83.1V301
		c0,10.5,8.6,19.1,19.2,19.1h288c10.6,0,19.2-8.5,19.2-19.1V192L288,223.4V281.9z M256,128v63.9l128-95.5L256,0v59.7
		C101.2,59.7,96,224,96,224C139.8,152.5,172,128,256,128z"/>
</g>
</svg>
