<!-- Generator: Adobe Illustrator 17.1.0, SVG Export Plug-In  -->
<svg version="1.1"
	 xmlns="http://www.w3.org/2000/svg" xmlns:xlink="http://www.w3.org/1999/xlink" xmlns:a="http://ns.adobe.com/AdobeSVGViewerExtensions/3.0/"
	 x="0px" y="0px" width="512px" height="512.001px" viewBox="0 0 512 512.001"
	 enable-background="new 0 0 512 512.001" xml:space="preserve">
<defs>
</defs>
<path fill="#629ECD" d="M483.724,0H28.259C12.663,0,0,12.637,0,28.259v455.466c0,15.622,12.663,28.276,28.259,28.276l455.457-0.025
	c15.613,0,28.284-12.671,28.284-28.251V28.242C511.992,12.637,499.338,0,483.724,0z M402.67,187.372
	c-2.56,117.76-76.8,199.68-189.44,204.8c-46.08,2.56-79.36-12.8-110.08-30.72c33.28,5.121,76.8-7.679,99.84-28.16
	c-33.28-2.56-53.76-20.48-64-48.64c10.24,2.56,20.48,0,28.16,0c-30.72-10.24-51.2-28.16-53.76-69.12
	c7.68,5.12,17.92,7.68,28.16,7.68c-23.04-12.8-38.4-61.44-20.48-92.16c33.28,35.84,74.24,66.56,140.8,71.68
	c-17.92-71.68,79.361-110.08,117.761-61.44c17.92-2.56,30.72-10.24,43.52-15.36c-5.12,17.92-15.36,28.16-28.16,38.4
	c12.8-2.56,25.6-5.12,35.84-10.24C428.27,166.892,415.47,177.132,402.67,187.372z"/>
</svg>
